<?xml version="1.0" standalone="no"?>
<!DOCTYPE svg PUBLIC "-//W3C//DTD SVG 1.1//EN" "http://www.w3.org/Graphics/SVG/1.1/DTD/svg11.dtd" >
<svg xmlns="http://www.w3.org/2000/svg" xmlns:xlink="http://www.w3.org/1999/xlink" version="1.1">
<metadata>
Created by FontForge 20170731 at Wed Mar 16 01:53:10 2016
 By Aleksey,,,
Copyright (C) 1996, 2016 Hoefler &#38; Co. http://www.typography.com
</metadata>
<defs>
<font id="Whitney-BoldItalic" horiz-adv-x="512" >
  <font-face 
    font-family="Whitney Bold"
    font-weight="400"
    font-style="italic"
    font-stretch="normal"
    units-per-em="1000"
    panose-1="0 0 0 0 0 0 0 0 0 0"
    ascent="800"
    descent="-200"
    x-height="490"
    cap-height="690"
    bbox="-140 -276 1048 1020"
    underline-thickness="50"
    underline-position="-200"
    slope="-9"
    unicode-range="U+0020-FB04"
  />
<missing-glyph horiz-adv-x="500" 
d="M0 -200v1000h500v-1000h-500zM71 750l179 -390l179 390h-358zM450 676l-172 -376l172 -376v752zM50 -76l172 376l-172 376v-752zM250 240l-179 -390h358z" />
    <glyph glyph-name=".notdef" horiz-adv-x="500" 
d="M0 -200v1000h500v-1000h-500zM71 750l179 -390l179 390h-358zM450 676l-172 -376l172 -376v752zM50 -76l172 376l-172 376v-752zM250 240l-179 -390h358z" />
    <glyph glyph-name=".null" horiz-adv-x="0" 
 />
    <glyph glyph-name="nonmarkingreturn" horiz-adv-x="333" 
 />
    <glyph glyph-name="space" unicode=" " horiz-adv-x="199" 
 />
    <glyph glyph-name="exclam" unicode="!" horiz-adv-x="293" 
d="M310 690l-115 -434l-94 -22l24 456h185zM215 170l-27 -170h-162l28 170h161z" />
    <glyph glyph-name="quotedbl" unicode="&#x22;" horiz-adv-x="480" 
d="M278 676l-84 -281l-85 21l3 260h166zM504 676l-84 -281l-85 21l3 260h166z" />
    <glyph glyph-name="numbersign" unicode="#" horiz-adv-x="627" 
d="M243 264h138l23 148h-137zM336 -2l23 143h-133l-24 -150l-86 21l21 129h-95v127h115l22 140h-100l-20 127h140l23 143h89l-23 -143h134l23 150l86 -21l-21 -129h95v-127h-115l-22 -140h100l20 -127h-140l-23 -143h-89z" />
    <glyph glyph-name="dollar" unicode="$" horiz-adv-x="523" 
d="M216 498q0 -19 12.5 -33t47.5 -31l39 128q-6 1 -17 1q-40 0 -61 -18t-21 -47zM257 114q46 0 72.5 22t26.5 57q0 24 -14.5 40t-54.5 35l-47 -154h17zM252 -5q-16 0 -42 2l-36 -119l-69 17l35 113q-77 19 -144 61l42 122q76 -51 144 -68l51 169q-81 36 -116 76t-35 103
q0 98 62 154t167 56q23 0 34 -1l22 75l70 -18l-21 -69q63 -16 116 -51l-42 -122q-55 40 -117 57l-43 -142q86 -38 123 -81t37 -109q0 -108 -66.5 -166.5t-171.5 -58.5z" />
    <glyph glyph-name="percent" unicode="%" horiz-adv-x="828" 
d="M200 275q-66 0 -101 44t-35 121q0 127 72 199q45 45 101 45q66 0 101 -44.5t35 -120.5q0 -60 -19.5 -113t-53.5 -87q-42 -44 -100 -44zM221 -7l-85 22l268 354l233 314l85 -22l-257 -340zM203 362q23 0 41 30q32 50 32 132q0 72 -42 72q-23 0 -41 -29q-32 -49 -32 -132
q0 -73 42 -73zM620 -8q-66 0 -101 44t-35 121q0 60 19.5 113t53.5 87q44 44 101 44q66 0 101 -44.5t35 -120.5q0 -59 -19.5 -112t-53.5 -87q-45 -45 -101 -45zM624 80q24 0 41 30q32 48 32 131q0 73 -43 73q-22 0 -40 -30q-33 -50 -33 -132q0 -72 43 -72z" />
    <glyph glyph-name="ampersand" unicode="&#x26;" horiz-adv-x="639" 
d="M249 104q49 0 97 41l-102 155q-76 -50 -76 -117q0 -35 20.5 -57t60.5 -22zM447 -6l-45 67q-91 -74 -195 -74q-91 0 -142 47t-51 122q0 154 175 231q-38 68 -38 127q0 83 54.5 136t149.5 53q100 0 186 -44l-41 -130q-79 42 -135 42q-29 0 -46 -15t-17 -40q0 -30 30 -75
l106 -161q25 59 44 133l119 -30q-36 -119 -95 -207l104 -159z" />
    <glyph glyph-name="quotesingle" unicode="'" horiz-adv-x="257" 
d="M281 676l-85 -281l-87 21l3 260h169z" />
    <glyph glyph-name="parenleft" unicode="(" horiz-adv-x="381" 
d="M399 623q-98 -80 -145.5 -169.5t-48.5 -209.5q-1 -152 112 -310l-115 -28q-160 157 -159 350q2 160 96.5 280.5t259.5 189.5v-103z" />
    <glyph glyph-name="parenright" unicode=")" horiz-adv-x="381" 
d="M3 4q98 81 145 170t48 210q1 151 -111 309l114 28q160 -157 159 -350q-1 -159 -95.5 -280t-259.5 -190v103z" />
    <glyph glyph-name="asterisk" unicode="*" horiz-adv-x="438" 
d="M451 546l-106 -69l47 -119l-31 -20l-98 80l-98 -80l-30 20l47 119l-107 69l12 35l127 -7l30 122h39l30 -122l127 7z" />
    <glyph glyph-name="plus" unicode="+" horiz-adv-x="572" 
d="M523 279h-170l-28 -177h-123l28 177h-171l19 118h171l27 177h123l-27 -177h170z" />
    <glyph glyph-name="comma" unicode="," horiz-adv-x="257" 
d="M223 172l-175 -320l-87 21l92 299h170z" />
    <glyph glyph-name="hyphen" unicode="-" horiz-adv-x="330" 
d="M308 363l-23 -144h-251l23 144h251z" />
    <glyph glyph-name="period" unicode="." horiz-adv-x="257" 
d="M198 172l-27 -172h-162l27 172h162z" />
    <glyph glyph-name="slash" unicode="/" horiz-adv-x="530" 
d="M590 669l-553 -796l-126 30l553 796z" />
    <glyph glyph-name="zero" unicode="0" horiz-adv-x="598" 
d="M275 -14q-109 0 -167 69.5t-58 196.5q0 117 32 211.5t88 150.5q76 76 184 76t166 -69.5t58 -196.5q0 -117 -31.5 -211.5t-87.5 -150.5q-76 -76 -184 -76zM281 109q30 0 55 25q34 33 59 130t25 183q0 120 -73 120q-29 0 -54 -25q-34 -34 -59 -130.5t-25 -183.5
q0 -119 72 -119z" />
    <glyph glyph-name="one" unicode="1" horiz-adv-x="387" 
d="M384 677l-107 -677h-160l82 522l-132 -53v128l174 80h143z" />
    <glyph glyph-name="two" unicode="2" horiz-adv-x="539" 
d="M527 512q0 -74 -36.5 -125.5t-123.5 -122.5l-158 -135h251v-129h-461l20 124l258 230q49 43 69 70.5t20 59.5t-21.5 50t-61.5 18q-73 0 -173 -68v137q99 68 213 68q93 0 148.5 -47.5t55.5 -129.5z" />
    <glyph glyph-name="three" unicode="3" horiz-adv-x="522" 
d="M515 525q0 -70 -37 -110.5t-105 -64.5q103 -43 103 -148q0 -102 -69.5 -158.5t-184.5 -56.5q-118 0 -224 57l38 124q94 -49 172 -49q50 0 81.5 24t31.5 68q0 81 -118 81h-47v116h67q62 0 97 23t35 64q0 63 -82 63q-78 0 -175 -55v131q107 55 211 55q97 0 151.5 -42.5
t54.5 -121.5z" />
    <glyph glyph-name="four" unicode="4" horiz-adv-x="591" 
d="M577 246l-18 -111h-96l-21 -135h-150l22 135h-305l16 102l342 439h182l-68 -430h96zM331 246l45 276l-213 -276h168z" />
    <glyph glyph-name="five" unicode="5" horiz-adv-x="529" 
d="M527 544h-273l-27 -115q131 -15 195 -64.5t64 -141.5q0 -113 -71.5 -174.5t-188.5 -61.5q-110 0 -224 49l41 132q95 -45 183 -45q52 0 79.5 23.5t27.5 63.5q0 49 -58 75t-201 37l79 354h374v-132z" />
    <glyph glyph-name="six" unicode="6" horiz-adv-x="548" 
d="M260 -12q-105 0 -165 66t-60 183q0 184 120.5 303t324.5 151v-132q-225 -42 -276 -177q80 48 160 48q75 0 117.5 -48t42.5 -134q0 -114 -73.5 -187t-190.5 -73zM269 106q45 0 74.5 33.5t29.5 90.5q0 88 -79 88q-53 0 -111 -40q-3 -24 -3 -44q0 -60 23 -94t66 -34z" />
    <glyph glyph-name="seven" unicode="7" horiz-adv-x="533" 
d="M563 676l-20 -129l-335 -554l-152 28l317 516h-278v139h468z" />
    <glyph glyph-name="eight" unicode="8" horiz-adv-x="566" 
d="M268 -13q-118 0 -180.5 51t-62.5 130q0 125 144 189q-72 56 -72 136q0 86 63.5 141t174.5 55q99 0 158.5 -44.5t59.5 -116.5q0 -111 -122 -168q93 -62 93 -161q0 -92 -70 -152t-186 -60zM241 508q0 -30 22 -53t71 -46q76 43 76 106q0 32 -21 49.5t-60 17.5
q-40 0 -64 -21.5t-24 -52.5zM269 97q47 0 75.5 26.5t28.5 67.5q0 33 -22.5 60t-86.5 56q-89 -50 -89 -126q0 -38 26 -61t68 -23z" />
    <glyph glyph-name="nine" unicode="9" horiz-adv-x="548" 
d="M90 -14v132q223 37 280 168q-75 -42 -147 -42q-80 0 -124.5 48.5t-44.5 134.5q0 115 74 188.5t190 73.5q104 0 164.5 -66.5t60.5 -182.5q0 -187 -124 -306t-329 -148zM284 354q53 0 110 37q4 24 4 52q0 59 -23.5 93t-66.5 34q-45 0 -74 -34.5t-29 -93.5q0 -88 79 -88z
" />
    <glyph glyph-name="colon" unicode=":" horiz-adv-x="265" 
d="M252 490l-26 -170h-161l26 170h161zM202 170l-28 -170h-160l27 170h161z" />
    <glyph glyph-name="semicolon" unicode=";" horiz-adv-x="265" 
d="M255 490l-27 -170h-160l26 170h161zM219 170l-175 -318l-87 21l91 297h171z" />
    <glyph glyph-name="less" unicode="&#x3c;" horiz-adv-x="572" 
d="M475 63l-412 222l17 106l482 222l-22 -135l-320 -144l275 -144z" />
    <glyph glyph-name="equal" unicode="=" horiz-adv-x="590" 
d="M542 399h-445l20 120h445zM504 158h-445l19 119h445z" />
    <glyph glyph-name="greater" unicode="&#x3e;" horiz-adv-x="572" 
d="M126 613l412 -222l-17 -106l-482 -222l22 135l320 144l-275 144z" />
    <glyph glyph-name="question" unicode="?" horiz-adv-x="483" 
d="M156 229l2 25l13 132l17 6q85 31 117 54.5t32 58.5q0 56 -72 56q-75 0 -186 -70v146q106 66 228 66q94 0 144.5 -46.5t50.5 -126.5q0 -95 -60 -154t-188 -97l-8 -30zM73 0l27 170h162l-27 -170h-162z" />
    <glyph glyph-name="at" unicode="@" horiz-adv-x="832" 
d="M373 -140q-159 0 -247.5 84t-88.5 246q0 119 57 223t155 166t212 62q152 0 242.5 -87t90.5 -242q0 -122 -52.5 -195.5t-145.5 -73.5q-51 0 -88.5 23.5t-51.5 62.5q-74 -86 -144 -86q-49 0 -78.5 34.5t-29.5 96.5q0 124 74 209.5t176 85.5q84 0 166 -35l-41 -220
q-6 -28 -6 -55q0 -54 61 -54q52 0 84 55.5t32 150.5q0 145 -79.5 219.5t-213.5 74.5q-153 0 -264.5 -120.5t-111.5 -293.5q0 -152 79.5 -224t216.5 -72q118 0 214 48l6 -36q-96 -47 -224 -47zM365 145q31 0 91 68l29 153q-17 6 -37 6q-48 0 -83.5 -52.5t-35.5 -120.5
q0 -54 36 -54z" />
    <glyph glyph-name="A" unicode="A" horiz-adv-x="663" 
d="M444 -7l-22 150h-216l-66 -143h-166l347 693h173l121 -670zM372 514l-108 -238h141z" />
    <glyph glyph-name="B" unicode="B" horiz-adv-x="578" 
d="M563 529q0 -116 -120 -165q99 -44 99 -144q0 -105 -77 -162.5t-209 -57.5h-234l109 690h211q107 0 164 -42.5t57 -118.5zM406 502q0 70 -87 70h-45l-25 -161h46q48 0 79.5 24t31.5 67zM380 218q0 84 -108 84h-40l-30 -185h53q56 0 90.5 26.5t34.5 74.5z" />
    <glyph glyph-name="C" unicode="C" horiz-adv-x="573" 
d="M592 647l-45 -144q-66 55 -135 55q-86 0 -140.5 -77t-54.5 -182q0 -84 38 -127t104 -43q70 0 146 43v-143q-75 -40 -176 -40q-130 0 -207 75.5t-77 217.5q0 185 104.5 302.5t258.5 117.5q104 0 184 -55z" />
    <glyph glyph-name="D" unicode="D" horiz-adv-x="665" 
d="M646 401q0 -177 -108 -285q-117 -116 -332 -116h-184l109 690h180q164 0 249.5 -73t85.5 -216zM475 392q0 168 -165 168h-31l-69 -430h25q103 0 168 65q72 74 72 197z" />
    <glyph glyph-name="E" unicode="E" 
d="M541 690l-21 -138h-243l-20 -127h182v-137h-204l-24 -150h251l-22 -138h-418l109 690h410z" />
    <glyph glyph-name="F" unicode="F" horiz-adv-x="491" 
d="M532 690l-22 -143h-233l-23 -142h174v-142h-196l-41 -263h-169l109 690h401z" />
    <glyph glyph-name="G" unicode="G" horiz-adv-x="652" 
d="M627 396l-57 -344q-108 -65 -238 -65q-132 0 -209.5 78t-77.5 213q0 183 107.5 304t269.5 121q114 0 210 -51l-45 -144q-78 54 -161 54q-93 0 -150.5 -78.5t-57.5 -197.5q0 -82 36.5 -123t98.5 -41q46 0 87 18l19 130h-107v126h275z" />
    <glyph glyph-name="H" unicode="H" horiz-adv-x="675" 
d="M684 690l-109 -690h-170l45 280h-214l-44 -280h-170l109 690h170l-42 -261h215l40 261h170z" />
    <glyph glyph-name="I" unicode="I" horiz-adv-x="298" 
d="M304 690l-109 -690h-170l109 690h170z" />
    <glyph glyph-name="J" unicode="J" horiz-adv-x="421" 
d="M434 690l-75 -477q-19 -118 -81.5 -168.5t-173.5 -50.5q-57 0 -103 8v145q42 -10 84 -10q45 0 72.5 23t36.5 82l71 448h169z" />
    <glyph glyph-name="K" unicode="K" horiz-adv-x="619" 
d="M677 690l-272 -333l175 -335l-177 -29l-162 327l-49 -320h-170l109 690h170l-48 -295l229 295h195z" />
    <glyph glyph-name="L" unicode="L" horiz-adv-x="478" 
d="M422 0h-400l109 690h170l-86 -543h207v-147z" />
    <glyph glyph-name="M" unicode="M" horiz-adv-x="866" 
d="M841 690l-59 -690h-172l42 453l-195 -456h-154l-49 456l-102 -453h-146l160 690h215l52 -465l200 465h208z" />
    <glyph glyph-name="N" unicode="N" horiz-adv-x="667" 
d="M676 690l-109 -690h-135l-188 417l-67 -417h-155l109 690h160l170 -381l60 381h155z" />
    <glyph glyph-name="O" unicode="O" horiz-adv-x="690" 
d="M327 -13q-131 0 -205 80t-74 223q0 96 31 181t89 142q88 90 222 90q131 0 205 -80t74 -223q0 -96 -31 -181t-88 -142q-90 -90 -223 -90zM330 116q47 0 86 39q35 35 58 106t23 155q0 158 -109 158q-48 0 -87 -39q-34 -33 -57 -105t-23 -156q0 -158 109 -158z" />
    <glyph glyph-name="P" unicode="P" horiz-adv-x="565" 
d="M576 484q0 -115 -81.5 -184t-223.5 -69h-44l-36 -231h-169l109 690h192q253 0 253 -206zM411 478q0 88 -103 88h-30l-32 -210h32q63 0 98 32t35 90z" />
    <glyph glyph-name="Q" unicode="Q" horiz-adv-x="697" 
d="M599 -143l-304 119q-135 53 -191 118t-56 189q0 210 120 330q90 90 223 90q131 0 204.5 -79t73.5 -216q0 -198 -120 -318q-19 -19 -49 -42l148 -47zM330 116q47 0 86 39q35 35 58 106t23 155q0 158 -109 158q-48 0 -87 -39q-34 -33 -57 -105t-23 -156q0 -158 109 -158z
" />
    <glyph glyph-name="R" unicode="R" horiz-adv-x="594" 
d="M581 495q0 -81 -39.5 -135.5t-108.5 -80.5l115 -257l-176 -29l-104 248h-41l-38 -241h-167l109 690h198q121 0 186.5 -49t65.5 -146zM417 481q0 85 -103 85h-38l-31 -206h36q65 0 100.5 31.5t35.5 89.5z" />
    <glyph glyph-name="S" unicode="S" horiz-adv-x="536" 
d="M536 642l-46 -135q-99 65 -170 65q-36 0 -54.5 -17.5t-18.5 -44.5q0 -23 15.5 -39.5t59.5 -40.5q100 -54 138.5 -101t38.5 -110q0 -109 -69.5 -169.5t-181.5 -60.5q-128 0 -247 68l47 135q111 -74 200 -74q39 0 63.5 20.5t24.5 52.5q0 25 -14 41t-54 38
q-107 57 -145.5 101.5t-38.5 114.5q0 93 65 154t174 61q114 0 213 -59z" />
    <glyph glyph-name="T" unicode="T" horiz-adv-x="585" 
d="M620 548h-195l-86 -548h-170l87 548h-190l23 142h531v-142z" />
    <glyph glyph-name="U" unicode="U" horiz-adv-x="659" 
d="M675 690l-67 -422q-23 -147 -99.5 -214t-204.5 -67q-121 0 -185.5 56t-64.5 166q0 35 8 91l62 390h169l-63 -400q-7 -47 -7 -73q0 -43 23.5 -67.5t68.5 -24.5q101 0 123 138l67 427h170z" />
    <glyph glyph-name="V" unicode="V" horiz-adv-x="648" 
d="M708 690l-347 -693h-159l-121 670l178 30l66 -480l215 473h168z" />
    <glyph glyph-name="W" unicode="W" horiz-adv-x="971" 
d="M1025 690l-297 -690h-160l-57 434l-197 -434h-154l-76 667l188 30l27 -432l187 425h165l51 -425l161 425h162z" />
    <glyph glyph-name="X" unicode="X" horiz-adv-x="621" 
d="M402 -7l-94 235l-155 -228h-185l265 361l-138 307l177 29l78 -201l131 194h185l-239 -329l153 -339z" />
    <glyph glyph-name="Y" unicode="Y" horiz-adv-x="631" 
d="M703 690l-305 -437l-41 -253h-170l40 250l-160 419l177 28l97 -282l178 275h184z" />
    <glyph glyph-name="Z" unicode="Z" horiz-adv-x="576" 
d="M609 690l-19 -123l-366 -432h287v-135h-517l20 123l365 432h-262v135h492z" />
    <glyph glyph-name="bracketleft" unicode="[" horiz-adv-x="406" 
d="M445 690l-14 -93h-162l-96 -608h153v-93h-312l126 794h305z" />
    <glyph glyph-name="backslash" unicode="\" horiz-adv-x="509" 
d="M516 -98l-123 -29l-343 797l123 29z" />
    <glyph glyph-name="bracketright" unicode="]" horiz-adv-x="406" 
d="M406 690l-125 -794h-306l15 93h161l96 608h-153v93h312z" />
    <glyph glyph-name="asciicircum" unicode="^" horiz-adv-x="423" 
d="M421 547h-92l-58 58l-79 -58h-89l117 147h127z" />
    <glyph glyph-name="underscore" unicode="_" horiz-adv-x="423" 
d="M379 -34l-11 -70h-424l11 70h424z" />
    <glyph glyph-name="grave" unicode="`" horiz-adv-x="423" 
d="M369 547h-93l-128 121l183 30z" />
    <glyph glyph-name="a" unicode="a" horiz-adv-x="515" 
d="M305 173l32 201q-18 7 -35 7q-51 0 -90 -53.5t-39 -134.5q0 -73 47 -73q34 0 85 53zM299 76q-75 -86 -145 -86q-60 0 -94.5 45t-34.5 124q0 159 85.5 248t207.5 89q86 0 178 -35l-54 -338v-123h-138z" />
    <glyph glyph-name="b" unicode="b" horiz-adv-x="515" 
d="M17 29l107 670l150 23l-47 -291q69 69 131 69q60 0 96.5 -47t36.5 -129q0 -154 -82 -242t-200 -88q-89 0 -192 35zM176 116q20 -7 41 -7q53 0 89 50t36 138q0 73 -51 73q-33 0 -82 -49z" />
    <glyph glyph-name="c" unicode="c" horiz-adv-x="423" 
d="M426 464l-38 -121q-44 29 -87 29q-55 0 -90.5 -46.5t-35.5 -111.5q0 -51 24.5 -76t67.5 -25q39 0 95 27v-120q-56 -29 -127 -29q-99 0 -153.5 55t-55.5 154q-1 127 73.5 213.5t191.5 86.5q74 0 135 -36z" />
    <glyph glyph-name="d" unicode="d" horiz-adv-x="519" 
d="M339 373q-16 7 -40 7q-53 0 -89.5 -49.5t-36.5 -137.5q0 -73 51 -73q34 0 82 48zM541 722l-96 -600v-122h-138l-6 73q-76 -83 -143 -83q-61 0 -97 46.5t-36 129.5q0 153 79.5 240.5t192.5 87.5q29 0 61 -8l32 213z" />
    <glyph glyph-name="e" unicode="e" horiz-adv-x="478" 
d="M264 402q-31 0 -55 -29t-37 -76h148q11 105 -56 105zM416 37q-92 -47 -182 -47q-94 0 -151.5 53t-57.5 152q0 131 73 218t181 87q82 0 128 -53t46 -142q0 -50 -12 -95h-279q0 -114 100 -114q71 0 154 44v-103z" />
    <glyph glyph-name="f" unicode="f" horiz-adv-x="330" 
d="M385 596q-25 6 -48 6q-28 0 -44 -14t-22 -47l-9 -51h83v-121h-101l-83 -532l-150 -23l87 555h-68l19 121h68l12 71q13 75 54.5 115.5t124.5 40.5q39 0 77 -6v-115z" />
    <glyph glyph-name="g" unicode="g" horiz-adv-x="517" 
d="M339 373q-17 7 -42 7q-52 0 -88 -48.5t-36 -129.5q0 -71 52 -71q35 0 82 50zM498 461l-66 -423q-20 -121 -83.5 -170.5t-163.5 -49.5q-114 0 -204 44l37 113q80 -41 155 -41q92 0 110 98l9 44q-69 -69 -130 -69q-63 0 -100 44.5t-37 126.5q0 147 82.5 232.5t198.5 85.5
q89 0 192 -35z" />
    <glyph glyph-name="h" unicode="h" horiz-adv-x="519" 
d="M489 391q0 -18 -4 -50l-55 -341h-147l48 303q4 18 4 34q0 14 -8.5 23t-22.5 9q-31 0 -96 -62l-49 -307h-147l112 699l150 23l-51 -313q47 45 84 68t82 23q48 0 74 -29.5t26 -79.5z" />
    <glyph glyph-name="i" unicode="i" horiz-adv-x="258" 
d="M278 636q0 -37 -24.5 -59.5t-61.5 -22.5t-62 22.5t-25 59.5t25 59.5t62 22.5t61.5 -22.5t24.5 -59.5zM242 490l-79 -490h-147l79 490h147z" />
    <glyph glyph-name="j" unicode="j" horiz-adv-x="258" 
d="M278 636q0 -37 -24.5 -59.5t-61.5 -22.5t-62 22.5t-25 59.5t25 59.5t62 22.5t61.5 -22.5t24.5 -59.5zM241 490l-78 -499q-16 -94 -58 -133.5t-123 -39.5q-46 0 -66 6v124q14 -5 40 -5q28 0 42.5 16t19.5 51l76 480h147z" />
    <glyph glyph-name="k" unicode="k" horiz-adv-x="491" 
d="M159 0h-147l111 696l151 26l-70 -428l150 196h164l-185 -232l117 -240l-148 -25l-109 236z" />
    <glyph glyph-name="l" unicode="l" horiz-adv-x="258" 
d="M278 722l-115 -722h-147l111 699z" />
    <glyph glyph-name="m" unicode="m" horiz-adv-x="783" 
d="M209 306l-48 -306h-147l58 367v123h139l5 -90q102 100 173 100q46 0 70.5 -27.5t25.5 -69.5q97 97 170 97q47 0 72.5 -29.5t25.5 -79.5q0 -23 -5 -50l-54 -341h-147l49 303q3 30 3 34q0 32 -28 32q-33 0 -95 -63l-49 -306h-147l48 303q4 20 4 34q0 32 -29 32
q-32 0 -94 -63z" />
    <glyph glyph-name="n" unicode="n" horiz-adv-x="520" 
d="M491 391q0 -10 -5 -50l-55 -341h-146l48 303q3 27 3 34q0 14 -8.5 23t-22.5 9q-31 0 -96 -62l-48 -307h-147l58 367v123h138l6 -90q49 48 89.5 74t85.5 26q48 0 74 -29.5t26 -79.5z" />
    <glyph glyph-name="o" unicode="o" horiz-adv-x="507" 
d="M479 283q0 -125 -69 -209t-181 -84q-96 0 -149 59.5t-53 156.5q0 126 69.5 210t181.5 84q94 0 147.5 -59.5t53.5 -157.5zM334 283q0 100 -63 100q-44 0 -71 -54t-27 -122q0 -100 62 -100q45 0 72 53.5t27 122.5z" />
    <glyph glyph-name="p" unicode="p" horiz-adv-x="516" 
d="M177 116q21 -7 41 -7q53 0 89 50t36 138q0 73 -50 73q-34 0 -83 -49zM-16 -186l88 553v123h138l5 -73q40 41 73 62t71 21q60 0 96.5 -47t36.5 -129q0 -154 -79.5 -241t-192.5 -87q-26 0 -61 7l-24 -166z" />
    <glyph glyph-name="q" unicode="q" horiz-adv-x="518" 
d="M498 461l-97 -624l-150 -23l37 245q-69 -69 -130 -69t-97 46.5t-36 129.5q0 153 82 241.5t199 88.5q89 0 192 -35zM339 373q-16 7 -41 7q-53 0 -89 -49.5t-36 -137.5q0 -73 51 -73q34 0 82 48z" />
    <glyph glyph-name="r" unicode="r" horiz-adv-x="371" 
d="M379 348q-104 -9 -176 -79l-42 -269h-147l58 367v123h137l7 -109q73 118 163 119v-152z" />
    <glyph glyph-name="s" unicode="s" horiz-adv-x="421" 
d="M404 455l-31 -110q-85 47 -145 47q-44 0 -44 -32q0 -14 9.5 -23t38.5 -22q86 -40 119.5 -73t33.5 -91q0 -70 -49.5 -115.5t-138.5 -45.5q-104 0 -203 57l34 111q92 -60 171 -60q25 0 39 10t14 27q0 15 -11.5 25t-45.5 26q-80 37 -112 69t-32 88q0 70 48.5 113.5
t130.5 43.5q89 0 174 -45z" />
    <glyph glyph-name="t" unicode="t" horiz-adv-x="358" 
d="M351 369h-110l-28 -176q-3 -18 -3 -34q0 -42 44 -42q16 0 43 5v-120q-44 -11 -97 -11q-141 0 -141 122q0 29 5 61l31 195h-61l19 121h61l22 149l151 23l-27 -172h91v-121z" />
    <glyph glyph-name="u" unicode="u" horiz-adv-x="520" 
d="M30 98q0 20 4 50l55 342h147l-48 -304q-4 -16 -4 -33q0 -32 31 -32t96 62l49 307h147l-59 -368v-122h-138l-6 89q-49 -48 -89 -73.5t-85 -25.5q-48 0 -74 29t-26 79z" />
    <glyph glyph-name="v" unicode="v" horiz-adv-x="474" 
d="M503 490l-238 -492h-137l-83 478l153 21l35 -308l127 301h143z" />
    <glyph glyph-name="w" unicode="w" horiz-adv-x="707" 
d="M731 490l-210 -490h-139l-25 296l-117 -296h-136l-55 478l149 19l16 -302l114 295h135l21 -295l108 295h139z" />
    <glyph glyph-name="x" unicode="x" horiz-adv-x="479" 
d="M285 -7l-60 156l-97 -149h-155l182 251l-97 227l144 19l53 -144l88 137h154l-173 -240l105 -238z" />
    <glyph glyph-name="y" unicode="y" horiz-adv-x="483" 
d="M511 490l-245 -504q-46 -96 -93.5 -132t-130.5 -36q-31 0 -55 6v120q30 -7 57 -7q51 0 80 46l10 19l-87 474l153 21l39 -309l129 302h143z" />
    <glyph glyph-name="z" unicode="z" horiz-adv-x="456" 
d="M456 490l-18 -114l-244 -259h198v-117h-404l18 113l245 259h-175v118h380z" />
    <glyph glyph-name="braceleft" unicode="{" horiz-adv-x="478" 
d="M511 690l-14 -93h-84q-74 0 -75 -80v-68q-1 -68 -33 -104.5t-97 -51.5v-2q49 -11 69.5 -34.5t19.5 -65.5q-1 -28 -18 -84t-17 -73q-1 -22 14 -33.5t43 -11.5h74v-93h-155q-62 0 -94.5 27t-31.5 78q0 29 18.5 91.5t18.5 86.5q0 36 -21 52.5t-68 16.5h-22v91h38
q60 0 88 28.5t29 95.5v65q1 75 44 118.5t126 43.5h148z" />
    <glyph glyph-name="bar" unicode="|" horiz-adv-x="305" 
d="M149 -173l-127 -18l145 926l128 20z" />
    <glyph glyph-name="braceright" unicode="}" horiz-adv-x="473" 
d="M-24 -104l15 93h84q74 0 74 80v68q1 69 33 105t97 51v2q-48 11 -68.5 34.5t-20.5 65.5q1 28 18.5 84t17.5 74q0 44 -57 44h-74v93h155q62 0 94.5 -27t31.5 -78q-1 -29 -19 -91t-18 -87q-1 -35 20 -52t68 -17h23v-91h-39q-60 0 -88 -28.5t-29 -95.5v-65q0 -75 -43 -118.5
t-126 -43.5h-149z" />
    <glyph glyph-name="asciitilde" unicode="~" horiz-adv-x="380" 
d="M362 355q-18 -77 -42.5 -108.5t-62.5 -31.5q-23 0 -63 20q-42 21 -57 21q-11 0 -19 -9t-18 -35l-68 15q18 77 43 108.5t63 31.5q27 0 63 -19q42 -22 57 -22q20 0 37 45z" />
    <glyph glyph-name="uni00A0" unicode="&#xa0;" horiz-adv-x="99" 
 />
    <glyph glyph-name="exclamdown" unicode="&#xa1;" horiz-adv-x="293" 
d="M301 690l-28 -170h-161l27 170h162zM227 456l-25 -456h-185l115 434z" />
    <glyph glyph-name="cent" unicode="&#xa2;" horiz-adv-x="462" 
d="M186 301q0 -64 44 -86l75 251q-54 -5 -86.5 -51t-32.5 -114zM405 123q-64 -35 -147 -35l-30 -98l-68 18l27 88q-65 17 -103.5 67t-38.5 128q0 127 76 211.5t198 84.5h17l30 98l69 -17l-28 -92q34 -11 69 -32l-39 -115q-37 25 -72 33l-78 -257q63 1 118 32v-114z" />
    <glyph glyph-name="sterling" unicode="&#xa3;" horiz-adv-x="553" 
d="M483 130v-130h-471l18 116l67 156h-56l20 124h89l56 131q35 83 85.5 122.5t133.5 39.5q75 0 131 -18l-33 -130q-39 14 -79 14q-63 0 -97 -76l-35 -83h128v-124h-180l-60 -142h283z" />
    <glyph glyph-name="yen" unicode="&#xa5;" horiz-adv-x="633" 
d="M524 82h-158l-13 -82h-158l13 82h-151v75h164l10 65h-159l12 76h134l-135 360l163 25l94 -290l171 283h176l-264 -378h127v-76h-162l-10 -65h157z" />
    <glyph glyph-name="section" unicode="&#xa7;" horiz-adv-x="557" 
d="M541 370q0 -54 -48 -111l-96 25q19 28 19 49q0 19 -14.5 29.5t-53.5 21.5l-64 18q-73 20 -106.5 50t-33.5 84q0 65 50 106.5t134 41.5q90 0 171 -37l-32 -100q-76 38 -147 38q-47 0 -47 -30q0 -16 16 -24.5t62 -21.5l42 -11q83 -23 115.5 -51t32.5 -77zM42 305
q0 54 47 112l96 -25q-19 -31 -19 -50t14.5 -29.5t53.5 -21.5l64 -17q73 -20 107 -51t34 -84q0 -64 -50 -105.5t-135 -41.5q-89 0 -170 36l32 100q76 -37 147 -37q46 0 46 30q0 15 -16.5 24t-61.5 21l-42 12q-82 22 -114.5 50.5t-32.5 76.5z" />
    <glyph glyph-name="dieresis" unicode="&#xa8;" horiz-adv-x="423" 
d="M227 548h-120l20 131h122zM411 548h-121l21 131h121z" />
    <glyph glyph-name="copyright" unicode="&#xa9;" horiz-adv-x="799" 
d="M764 346q0 -160 -96.5 -259.5t-249.5 -99.5q-154 0 -249.5 98.5t-95.5 258.5t96.5 259.5t249.5 99.5q154 0 249.5 -98.5t95.5 -258.5zM720 345q0 151 -85 236.5t-216 85.5q-133 0 -217.5 -85.5t-84.5 -236.5t85 -236.5t217 -85.5t216.5 85.5t84.5 236.5zM564 177
q-57 -32 -125 -32q-94 0 -149.5 55.5t-55.5 147.5q0 91 56.5 147t146.5 56q65 0 120 -26l-15 -98q-50 32 -98 32q-43 0 -68 -30.5t-25 -79.5q0 -51 27 -81t73 -30q47 0 99 30z" />
    <glyph glyph-name="ordfeminine" unicode="&#xaa;" horiz-adv-x="372" 
d="M253 447l10 61q-92 -13 -92 -66q0 -24 23 -24q25 0 59 29zM122 582l1 73q62 26 137 26q132 0 113 -114l-24 -148v-64h-97l-1 41q-53 -48 -108 -48q-36 0 -55.5 20t-19.5 54q0 114 203 134l1 6q1 25 -9.5 35t-39.5 10q-41 0 -101 -25zM327 222h-288l11 73h277v-73z" />
    <glyph glyph-name="guillemotleft" unicode="&#xab;" horiz-adv-x="530" 
d="M320 490l-146 -249l64 -226l-98 -24l-122 254l188 245h114zM542 490l-146 -249l63 -226l-98 -24l-122 254l188 245h115z" />
    <glyph glyph-name="registered" unicode="&#xae;" horiz-adv-x="563" 
d="M545 470q0 -103 -63.5 -167.5t-163.5 -64.5q-101 0 -163.5 64t-62.5 168q0 103 63.5 168t163.5 65t163 -64.5t63 -168.5zM513 470q0 96 -55.5 151t-138.5 55q-85 0 -140 -55t-55 -151q0 -95 55.5 -150t138.5 -55q85 0 140 55t55 150zM442 359l-75 -12l-59 92h-13v-89h-70
v256h98q48 0 74.5 -20.5t26.5 -59.5q0 -52 -47 -71zM355 521q0 35 -40 35h-20v-71h20q40 0 40 36z" />
    <glyph glyph-name="macron" unicode="&#xaf;" horiz-adv-x="423" 
d="M410 557h-301l17 105h301z" />
    <glyph glyph-name="degree" unicode="&#xb0;" horiz-adv-x="446" 
d="M441 505q0 -77 -50 -126.5t-127 -49.5t-127 49.5t-50 126.5t50 127t127 50t127 -50t50 -127zM351 505q0 40 -24.5 67t-62.5 27t-62.5 -27t-24.5 -67q0 -41 24 -67t63 -26t63 26t24 67z" />
    <glyph glyph-name="plusminus" unicode="&#xb1;" horiz-adv-x="540" 
d="M347 358l-23 -140h-120l23 140h-135l18 114h135l22 140h120l-22 -140h134l-18 -114h-134zM461 57h-444l18 116h444z" />
    <glyph glyph-name="two.sup" unicode="&#xb2;" horiz-adv-x="360" 
d="M351 405h-274l14 86l146 127q35 30 35 52q0 28 -33 28q-36 0 -100 -35v91q65 35 127 35q53 0 84 -27.5t31 -69.5q0 -37 -19 -64.5t-69 -68.5l-75 -64h133v-90z" />
    <glyph glyph-name="three.sup" unicode="&#xb3;" horiz-adv-x="360" 
d="M357 517q0 -55 -43 -87t-107 -32t-134 35l26 79q55 -30 100 -30q23 0 37.5 11t14.5 30q0 37 -61 37h-26v71h26q40 0 61.5 12t21.5 32q0 28 -37 28q-42 0 -97 -30v84q62 32 128 32q53 0 84 -23.5t31 -65.5q0 -76 -89 -102q64 -22 64 -81z" />
    <glyph glyph-name="acute" unicode="&#xb4;" horiz-adv-x="423" 
d="M402 668l-156 -121h-94l81 151z" />
    <glyph glyph-name="mu" unicode="&#xb5;" horiz-adv-x="563" 
d="M130 -163l-147 -23l107 676h147l-48 -304q-3 -24 -3 -31q0 -34 31 -34q32 0 95 62l49 307h147l-52 -326q-4 -22 -4 -32q0 -24 27 -24q17 0 35 6v-105q-43 -16 -95 -16q-91 0 -109 77q0 2 -1 3q-65 -84 -121 -83q-35 1 -56 29q12 -79 3 -142z" />
    <glyph glyph-name="paragraph" unicode="&#xb6;" horiz-adv-x="521" 
d="M414 0h-86l97 607h-59l-27 -164l-68 -220q-97 5 -151.5 53.5t-54.5 140.5q0 118 77.5 188.5t212.5 70.5h166z" />
    <glyph glyph-name="periodcentered" unicode="&#xb7;" horiz-adv-x="257" 
d="M202 200h-162l29 182h161z" />
    <glyph glyph-name="cedilla" unicode="&#xb8;" horiz-adv-x="423" 
d="M263 -81l-146 -106h-92l73 137z" />
    <glyph glyph-name="one.sup" unicode="&#xb9;" horiz-adv-x="360" 
d="M343 405h-253l13 86h76l30 185l-81 -32v91l129 53h77l-49 -297h58v-86z" />
    <glyph glyph-name="ordmasculine" unicode="&#xba;" horiz-adv-x="373" 
d="M208 349q-60 0 -97.5 36.5t-37.5 100.5q0 82 49.5 138t129.5 56q61 0 98.5 -36.5t37.5 -100.5q0 -82 -50 -138t-130 -56zM243 598q-30 0 -50 -33t-20 -75q0 -59 45 -59q30 0 50 33t20 75q0 59 -45 59zM334 222h-298l12 73h286v-73z" />
    <glyph glyph-name="guillemotright" unicode="&#xbb;" horiz-adv-x="530" 
d="M-13 0l146 249l-63 226l97 23l122 -254l-187 -244h-115zM208 0l146 249l-63 226l97 23l123 -254l-188 -244h-115z" />
    <glyph glyph-name="onequarter" unicode="&#xbc;" horiz-adv-x="810" 
d="M328 305h-253l13 86h76l30 185l-81 -32v91l129 53h77l-49 -297h58v-86zM471 319l-249 -333l-64 18l270 347l251 333l64 -18zM757 70h-45l-11 -72h-100l11 72h-151l10 72l167 237h124l-38 -235h45zM633 143l14 73l19 84h-4l-46 -74l-29 -40l-37 -45l1 -2l56 4h26z" />
    <glyph glyph-name="onehalf" unicode="&#xbd;" horiz-adv-x="810" 
d="M328 305h-253l13 86h76l30 185l-81 -32v91l129 53h77l-49 -297h58v-86zM449 319l-249 -333l-64 18l270 347l251 333l64 -18zM734 0h-274l14 86l146 127q35 30 35 52q0 28 -33 28q-36 0 -100 -35v91q65 35 127 35q53 0 84 -27.5t31 -69.5q0 -37 -19 -64.5t-69 -68.5
l-75 -64h133v-90z" />
    <glyph glyph-name="threequarters" unicode="&#xbe;" horiz-adv-x="810" 
d="M463 319l-249 -333l-64 18l270 347l251 333l64 -18zM342 417q0 -55 -43 -87t-107 -32t-134 35l26 79q55 -30 100 -30q23 0 37.5 11t14.5 30q0 37 -61 37h-26v71h26q40 0 61.5 12t21.5 32q0 28 -37 28q-42 0 -97 -30v84q62 32 128 32q53 0 84 -23.5t31 -65.5
q0 -76 -89 -102q64 -22 64 -81zM757 70h-45l-11 -72h-100l11 72h-151l10 72l167 237h124l-38 -235h45zM633 143l14 73l19 84h-4l-46 -74l-29 -40l-37 -45l1 -2l56 4h26z" />
    <glyph glyph-name="questiondown" unicode="&#xbf;" horiz-adv-x="483" 
d="M442 690l-27 -170h-162l27 170h162zM208 -13q-94 0 -144.5 46.5t-50.5 126.5q0 95 60 154t188 97l8 30l90 20l-2 -25l-13 -132l-17 -6q-85 -31 -117 -54.5t-32 -58.5q0 -56 72 -56q75 0 186 70v-146q-106 -66 -228 -66z" />
    <glyph glyph-name="Agrave" unicode="&#xc0;" horiz-adv-x="663" 
d="M466 752h-93l-128 121l183 30zM444 -7l-22 150h-216l-66 -143h-166l347 693h173l121 -670zM372 514l-108 -238h141z" />
    <glyph glyph-name="Aacute" unicode="&#xc1;" horiz-adv-x="663" 
d="M610 873l-156 -121h-94l81 151zM444 -7l-22 150h-216l-66 -143h-166l347 693h173l121 -670zM372 514l-108 -238h141z" />
    <glyph glyph-name="Acircumflex" unicode="&#xc2;" horiz-adv-x="663" 
d="M573 749h-92l-58 58l-79 -58h-89l117 147h127zM444 -7l-22 150h-216l-66 -143h-166l347 693h173l121 -670zM372 514l-108 -238h141z" />
    <glyph glyph-name="Atilde" unicode="&#xc3;" horiz-adv-x="663" 
d="M594 891q-18 -76 -42.5 -107.5t-62.5 -31.5q-23 0 -63 20q-42 21 -57 21q-21 0 -37 -44l-68 15q18 77 43 108.5t63 31.5q28 0 63 -20q41 -21 57 -21q11 0 19 9.5t18 35.5zM444 -7l-22 150h-216l-66 -143h-166l347 693h173l121 -670zM372 514l-108 -238h141z" />
    <glyph glyph-name="Adieresis" unicode="&#xc4;" horiz-adv-x="663" 
d="M382 753h-120l20 131h122zM566 753h-121l21 131h121zM444 -7l-22 150h-216l-66 -143h-166l347 693h173l121 -670zM372 514l-108 -238h141z" />
    <glyph glyph-name="Aring" unicode="&#xc5;" horiz-adv-x="663" 
d="M444 -7l-22 150h-216l-66 -143h-166l331 663q-29 31 -29 76q0 48 35 80t99 32q65 0 99.5 -32t34.5 -80q0 -57 -43 -88l114 -628zM410 683q25 0 39 15t14 41q0 25 -14 40t-39 15q-24 0 -38.5 -15t-14.5 -40t14.5 -40.5t38.5 -15.5zM372 514l-108 -238h141z" />
    <glyph glyph-name="AE" unicode="&#xc6;" horiz-adv-x="867" 
d="M432 276l46 297l-183 -297h137zM388 0l23 143h-195l-90 -143h-167l445 690h492l-21 -138h-232l-20 -127h171v-137h-193l-24 -150h240l-22 -138h-407z" />
    <glyph glyph-name="Ccedilla" unicode="&#xc7;" horiz-adv-x="573" 
d="M592 647l-45 -144q-66 55 -135 55q-86 0 -140.5 -77t-54.5 -182q0 -84 38 -127t104 -43q70 0 146 43v-143q-75 -40 -176 -40q-130 0 -207 75.5t-77 217.5q0 185 104.5 302.5t258.5 117.5q104 0 184 -55zM366 -90l-146 -106h-92l73 137z" />
    <glyph glyph-name="Egrave" unicode="&#xc8;" 
d="M395 742h-93l-128 121l183 30zM541 690l-21 -138h-243l-20 -127h182v-137h-204l-24 -150h251l-22 -138h-418l109 690h410z" />
    <glyph glyph-name="Eacute" unicode="&#xc9;" 
d="M540 863l-156 -121h-94l81 151zM541 690l-21 -138h-243l-20 -127h182v-137h-204l-24 -150h251l-22 -138h-418l109 690h410z" />
    <glyph glyph-name="Ecircumflex" unicode="&#xca;" 
d="M503 742h-92l-58 58l-79 -58h-89l117 147h127zM541 690l-21 -138h-243l-20 -127h182v-137h-204l-24 -150h251l-22 -138h-418l109 690h410z" />
    <glyph glyph-name="Edieresis" unicode="&#xcb;" 
d="M312 743h-120l20 131h122zM496 743h-121l21 131h121zM541 690l-21 -138h-243l-20 -127h182v-137h-204l-24 -150h251l-22 -138h-418l109 690h410z" />
    <glyph glyph-name="Igrave" unicode="&#xcc;" horiz-adv-x="298" 
d="M278 742h-93l-128 121l183 30zM304 690l-109 -690h-170l109 690h170z" />
    <glyph glyph-name="Iacute" unicode="&#xcd;" horiz-adv-x="298" 
d="M423 863l-156 -121h-94l81 151zM304 690l-109 -690h-170l109 690h170z" />
    <glyph glyph-name="Icircumflex" unicode="&#xce;" horiz-adv-x="298" 
d="M386 742h-92l-58 58l-79 -58h-89l117 147h127zM304 690l-109 -690h-170l109 690h170z" />
    <glyph glyph-name="Idieresis" unicode="&#xcf;" horiz-adv-x="298" 
d="M195 743h-120l20 131h122zM379 743h-121l21 131h121zM304 690l-109 -690h-170l109 690h170z" />
    <glyph glyph-name="Eth" unicode="&#xd0;" horiz-adv-x="694" 
d="M237 130h27q102 0 167 65q72 72 72 197q0 168 -164 168h-33l-22 -137h108l-23 -138h-107zM234 0h-183l45 283h-68v143h90l42 264h179q164 0 250 -73.5t86 -215.5q0 -178 -109 -285q-116 -116 -332 -116z" />
    <glyph glyph-name="Ntilde" unicode="&#xd1;" horiz-adv-x="667" 
d="M592 878q-18 -76 -42.5 -107.5t-62.5 -31.5q-23 0 -63 20q-42 21 -57 21q-21 0 -37 -44l-68 15q18 77 43 108.5t63 31.5q28 0 63 -20q41 -21 57 -21q11 0 19 9.5t18 35.5zM676 690l-109 -690h-135l-188 417l-67 -417h-155l109 690h160l170 -381l60 381h155z" />
    <glyph glyph-name="Ograve" unicode="&#xd2;" horiz-adv-x="690" 
d="M473 752h-93l-128 121l183 30zM327 -13q-131 0 -205 80t-74 223q0 96 31 181t89 142q88 90 222 90q131 0 205 -80t74 -223q0 -96 -31 -181t-88 -142q-90 -90 -223 -90zM330 116q47 0 86 39q35 35 58 106t23 155q0 158 -109 158q-48 0 -87 -39q-34 -33 -57 -105t-23 -156
q0 -158 109 -158z" />
    <glyph glyph-name="Oacute" unicode="&#xd3;" horiz-adv-x="690" 
d="M618 873l-156 -121h-94l81 151zM327 -13q-131 0 -205 80t-74 223q0 96 31 181t89 142q88 90 222 90q131 0 205 -80t74 -223q0 -96 -31 -181t-88 -142q-90 -90 -223 -90zM330 116q47 0 86 39q35 35 58 106t23 155q0 158 -109 158q-48 0 -87 -39q-34 -33 -57 -105t-23 -156
q0 -158 109 -158z" />
    <glyph glyph-name="Ocircumflex" unicode="&#xd4;" horiz-adv-x="690" 
d="M580 752h-92l-58 58l-79 -58h-89l117 147h127zM327 -13q-131 0 -205 80t-74 223q0 96 31 181t89 142q88 90 222 90q131 0 205 -80t74 -223q0 -96 -31 -181t-88 -142q-90 -90 -223 -90zM330 116q47 0 86 39q35 35 58 106t23 155q0 158 -109 158q-48 0 -87 -39
q-34 -33 -57 -105t-23 -156q0 -158 109 -158z" />
    <glyph glyph-name="Otilde" unicode="&#xd5;" horiz-adv-x="690" 
d="M601 891q-18 -76 -42.5 -107.5t-62.5 -31.5q-23 0 -63 20q-42 21 -57 21q-21 0 -37 -44l-68 15q18 77 43 108.5t63 31.5q28 0 63 -20q41 -21 57 -21q11 0 19 9.5t18 35.5zM327 -13q-131 0 -205 80t-74 223q0 96 31 181t89 142q88 90 222 90q131 0 205 -80t74 -223
q0 -96 -31 -181t-88 -142q-90 -90 -223 -90zM330 116q47 0 86 39q35 35 58 106t23 155q0 158 -109 158q-48 0 -87 -39q-34 -33 -57 -105t-23 -156q0 -158 109 -158z" />
    <glyph glyph-name="Odieresis" unicode="&#xd6;" horiz-adv-x="690" 
d="M389 753h-120l20 131h122zM573 753h-121l21 131h121zM327 -13q-131 0 -205 80t-74 223q0 96 31 181t89 142q88 90 222 90q131 0 205 -80t74 -223q0 -96 -31 -181t-88 -142q-90 -90 -223 -90zM330 116q47 0 86 39q35 35 58 106t23 155q0 158 -109 158q-48 0 -87 -39
q-34 -33 -57 -105t-23 -156q0 -158 109 -158z" />
    <glyph glyph-name="multiply" unicode="&#xd7;" horiz-adv-x="572" 
d="M408 113l-118 142l-162 -141l-75 88l164 139l-119 140l96 82l117 -141l162 141l75 -88l-164 -139l120 -140z" />
    <glyph glyph-name="Oslash" unicode="&#xd8;" horiz-adv-x="690" 
d="M327 -13q-116 0 -188 63l-58 -59l-110 25l110 112q-33 68 -33 162q0 96 31 181t89 142q88 90 222 90q116 0 188 -63l58 59l110 -25l-110 -112q33 -68 33 -162q0 -96 -31 -181t-88 -142q-90 -90 -223 -90zM217 274q0 -21 1 -30l260 283q-28 51 -90 51q-49 0 -89 -40
q-35 -35 -58.5 -107t-23.5 -157zM330 112q49 0 89 40q35 35 58.5 107t23.5 157q0 21 -1 31l-260 -284q28 -51 90 -51z" />
    <glyph glyph-name="Ugrave" unicode="&#xd9;" horiz-adv-x="659" 
d="M457 739h-93l-128 121l183 30zM675 690l-67 -422q-23 -147 -99.5 -214t-204.5 -67q-121 0 -185.5 56t-64.5 166q0 35 8 91l62 390h169l-63 -400q-7 -47 -7 -73q0 -43 23.5 -67.5t68.5 -24.5q101 0 123 138l67 427h170z" />
    <glyph glyph-name="Uacute" unicode="&#xda;" horiz-adv-x="659" 
d="M602 860l-156 -121h-94l81 151zM675 690l-67 -422q-23 -147 -99.5 -214t-204.5 -67q-121 0 -185.5 56t-64.5 166q0 35 8 91l62 390h169l-63 -400q-7 -47 -7 -73q0 -43 23.5 -67.5t68.5 -24.5q101 0 123 138l67 427h170z" />
    <glyph glyph-name="Ucircumflex" unicode="&#xdb;" horiz-adv-x="659" 
d="M565 739h-92l-58 58l-79 -58h-89l117 147h127zM675 690l-67 -422q-23 -147 -99.5 -214t-204.5 -67q-121 0 -185.5 56t-64.5 166q0 35 8 91l62 390h169l-63 -400q-7 -47 -7 -73q0 -43 23.5 -67.5t68.5 -24.5q101 0 123 138l67 427h170z" />
    <glyph glyph-name="Udieresis" unicode="&#xdc;" horiz-adv-x="659" 
d="M374 740h-120l20 131h122zM558 740h-121l21 131h121zM675 690l-67 -422q-23 -147 -99.5 -214t-204.5 -67q-121 0 -185.5 56t-64.5 166q0 35 8 91l62 390h169l-63 -400q-7 -47 -7 -73q0 -43 23.5 -67.5t68.5 -24.5q101 0 123 138l67 427h170z" />
    <glyph glyph-name="Yacute" unicode="&#xdd;" horiz-adv-x="631" 
d="M584 860l-156 -121h-94l81 151zM703 690l-305 -437l-41 -253h-170l40 250l-160 419l177 28l97 -282l178 275h184z" />
    <glyph glyph-name="Thorn" unicode="&#xde;" horiz-adv-x="565" 
d="M558 376q0 -114 -81.5 -183.5t-223.5 -69.5h-44l-20 -123h-167l109 690h167l-17 -108h24q253 0 253 -206zM393 370q0 88 -103 88h-30l-32 -210h32q63 0 98 32t35 90z" />
    <glyph glyph-name="germandbls" unicode="&#xdf;" horiz-adv-x="591" 
d="M561 169q0 -83 -50.5 -129.5t-134.5 -46.5q-73 0 -143 35l34 106q53 -29 96 -29q26 0 41.5 14.5t15.5 40.5q0 29 -28 51.5t-95 44.5v99q43 60 62.5 103t19.5 88q0 58 -45 58q-54 0 -71 -108l-102 -659l-150 -23l87 555h-65l19 121h65l3 15q18 102 75 157t153 55
q88 0 134 -42.5t46 -114.5q0 -59 -27.5 -109.5t-82.5 -111.5q70 -31 106.5 -69.5t36.5 -100.5z" />
    <glyph glyph-name="agrave" unicode="&#xe0;" horiz-adv-x="515" 
d="M373 547h-93l-128 121l183 30zM305 173l32 201q-18 7 -35 7q-51 0 -90 -53.5t-39 -134.5q0 -73 47 -73q34 0 85 53zM299 76q-75 -86 -145 -86q-60 0 -94.5 45t-34.5 124q0 159 85.5 248t207.5 89q86 0 178 -35l-54 -338v-123h-138z" />
    <glyph glyph-name="aacute" unicode="&#xe1;" horiz-adv-x="515" 
d="M518 668l-156 -121h-94l81 151zM305 173l32 201q-18 7 -35 7q-51 0 -90 -53.5t-39 -134.5q0 -73 47 -73q34 0 85 53zM299 76q-75 -86 -145 -86q-60 0 -94.5 45t-34.5 124q0 159 85.5 248t207.5 89q86 0 178 -35l-54 -338v-123h-138z" />
    <glyph glyph-name="acircumflex" unicode="&#xe2;" horiz-adv-x="515" 
d="M480 547h-92l-58 58l-79 -58h-89l117 147h127zM305 173l32 201q-18 7 -35 7q-51 0 -90 -53.5t-39 -134.5q0 -73 47 -73q34 0 85 53zM299 76q-75 -86 -145 -86q-60 0 -94.5 45t-34.5 124q0 159 85.5 248t207.5 89q86 0 178 -35l-54 -338v-123h-138z" />
    <glyph glyph-name="atilde" unicode="&#xe3;" horiz-adv-x="515" 
d="M501 686q-18 -76 -42.5 -107.5t-62.5 -31.5q-23 0 -63 20q-42 21 -57 21q-21 0 -37 -44l-68 15q18 77 43 108.5t63 31.5q28 0 63 -20q41 -21 57 -21q11 0 19 9.5t18 35.5zM305 173l32 201q-18 7 -35 7q-51 0 -90 -53.5t-39 -134.5q0 -73 47 -73q34 0 85 53zM299 76
q-75 -86 -145 -86q-60 0 -94.5 45t-34.5 124q0 159 85.5 248t207.5 89q86 0 178 -35l-54 -338v-123h-138z" />
    <glyph glyph-name="adieresis" unicode="&#xe4;" horiz-adv-x="515" 
d="M289 548h-120l20 131h122zM473 548h-121l21 131h121zM305 173l32 201q-18 7 -35 7q-51 0 -90 -53.5t-39 -134.5q0 -73 47 -73q34 0 85 53zM299 76q-75 -86 -145 -86q-60 0 -94.5 45t-34.5 124q0 159 85.5 248t207.5 89q86 0 178 -35l-54 -338v-123h-138z" />
    <glyph glyph-name="aring" unicode="&#xe5;" horiz-adv-x="515" 
d="M339 546q-65 0 -99.5 31.5t-34.5 81.5q0 48 34.5 80t99.5 32q64 0 99 -32t35 -80q0 -50 -35 -81.5t-99 -31.5zM339 603q24 0 38.5 15.5t14.5 40.5t-14.5 40.5t-38.5 15.5t-38.5 -15.5t-14.5 -40.5t14.5 -40.5t38.5 -15.5zM305 173l32 201q-18 7 -35 7q-51 0 -90 -53.5
t-39 -134.5q0 -73 47 -73q34 0 85 53zM299 76q-75 -86 -145 -86q-60 0 -94.5 45t-34.5 124q0 159 85.5 248t207.5 89q86 0 178 -35l-54 -338v-123h-138z" />
    <glyph glyph-name="ae" unicode="&#xe6;" horiz-adv-x="749" 
d="M723 312q0 -57 -12 -102h-278v-10q4 -104 99 -104q71 0 154 44v-103q-92 -47 -181 -47q-117 0 -171 75q-102 -75 -193 -75q-57 0 -92.5 32t-35.5 92q0 172 294 187l3 16q7 38 -8.5 54t-56.5 16q-61 0 -151 -37v112q101 38 187 38q100 0 132 -55q61 55 140 55
q81 0 125.5 -52t44.5 -136zM591 297q11 105 -56 105q-31 0 -56 -28.5t-37 -76.5h149zM301 138q-6 23 -6 62q0 19 1 28q-136 -14 -136 -89q0 -43 44 -43q39 0 97 42z" />
    <glyph glyph-name="ccedilla" unicode="&#xe7;" horiz-adv-x="423" 
d="M426 464l-38 -121q-44 29 -87 29q-55 0 -90.5 -46.5t-35.5 -111.5q0 -51 24.5 -76t67.5 -25q39 0 95 27v-120q-56 -29 -127 -29q-99 0 -153.5 55t-55.5 154q-1 127 73.5 213.5t191.5 86.5q74 0 135 -36zM273 -81l-146 -106h-92l73 137z" />
    <glyph glyph-name="egrave" unicode="&#xe8;" horiz-adv-x="478" 
d="M341 547h-93l-128 121l183 30zM264 402q-31 0 -55 -29t-37 -76h148q11 105 -56 105zM416 37q-92 -47 -182 -47q-94 0 -151.5 53t-57.5 152q0 131 73 218t181 87q82 0 128 -53t46 -142q0 -50 -12 -95h-279q0 -114 100 -114q71 0 154 44v-103z" />
    <glyph glyph-name="eacute" unicode="&#xe9;" horiz-adv-x="478" 
d="M486 668l-156 -121h-94l81 151zM264 402q-31 0 -55 -29t-37 -76h148q11 105 -56 105zM416 37q-92 -47 -182 -47q-94 0 -151.5 53t-57.5 152q0 131 73 218t181 87q82 0 128 -53t46 -142q0 -50 -12 -95h-279q0 -114 100 -114q71 0 154 44v-103z" />
    <glyph glyph-name="ecircumflex" unicode="&#xea;" horiz-adv-x="478" 
d="M449 547h-92l-58 58l-79 -58h-89l117 147h127zM264 402q-31 0 -55 -29t-37 -76h148q11 105 -56 105zM416 37q-92 -47 -182 -47q-94 0 -151.5 53t-57.5 152q0 131 73 218t181 87q82 0 128 -53t46 -142q0 -50 -12 -95h-279q0 -114 100 -114q71 0 154 44v-103z" />
    <glyph glyph-name="edieresis" unicode="&#xeb;" horiz-adv-x="478" 
d="M258 548h-120l20 131h122zM442 548h-121l21 131h121zM264 402q-31 0 -55 -29t-37 -76h148q11 105 -56 105zM416 37q-92 -47 -182 -47q-94 0 -151.5 53t-57.5 152q0 131 73 218t181 87q82 0 128 -53t46 -142q0 -50 -12 -95h-279q0 -114 100 -114q71 0 154 44v-103z" />
    <glyph glyph-name="igrave" unicode="&#xec;" horiz-adv-x="258" 
d="M228 547h-93l-128 121l183 30zM242 490l-79 -490h-147l79 490h147z" />
    <glyph glyph-name="iacute" unicode="&#xed;" horiz-adv-x="258" 
d="M373 668l-156 -121h-94l81 151zM242 490l-79 -490h-147l79 490h147z" />
    <glyph glyph-name="icircumflex" unicode="&#xee;" horiz-adv-x="258" 
d="M336 547h-92l-58 58l-79 -58h-89l117 147h127zM242 490l-79 -490h-147l79 490h147z" />
    <glyph glyph-name="idieresis" unicode="&#xef;" horiz-adv-x="258" 
d="M145 548h-120l20 131h122zM329 548h-121l21 131h121zM242 490l-79 -490h-147l79 490h147z" />
    <glyph glyph-name="eth" unicode="&#xf0;" horiz-adv-x="516" 
d="M219 -11q-85 0 -141 51t-56 152q0 112 60 190t145 78q75 0 136 -67v7q0 86 -58 138l-31 -35h-84l61 71q-31 17 -75 31l33 117q75 -21 126 -50l40 50l80 -18l-63 -72q106 -89 106 -248q0 -99 -33 -186t-86 -140q-71 -69 -160 -69zM229 104q43 0 74.5 49.5t45.5 139.5
q-45 50 -95 50q-40 0 -65 -42.5t-25 -107.5q0 -89 65 -89z" />
    <glyph glyph-name="ntilde" unicode="&#xf1;" horiz-adv-x="520" 
d="M485 686q-18 -76 -42.5 -107.5t-62.5 -31.5q-23 0 -63 20q-42 21 -57 21q-21 0 -37 -44l-68 15q18 77 43 108.5t63 31.5q28 0 63 -20q41 -21 57 -21q11 0 19 9.5t18 35.5zM491 391q0 -10 -5 -50l-55 -341h-146l48 303q3 27 3 34q0 14 -8.5 23t-22.5 9q-31 0 -96 -62
l-48 -307h-147l58 367v123h138l6 -90q49 48 89.5 74t85.5 26q48 0 74 -29.5t26 -79.5z" />
    <glyph glyph-name="ograve" unicode="&#xf2;" horiz-adv-x="507" 
d="M351 547h-93l-128 121l183 30zM479 283q0 -125 -69 -209t-181 -84q-96 0 -149 59.5t-53 156.5q0 126 69.5 210t181.5 84q94 0 147.5 -59.5t53.5 -157.5zM334 283q0 100 -63 100q-44 0 -71 -54t-27 -122q0 -100 62 -100q45 0 72 53.5t27 122.5z" />
    <glyph glyph-name="oacute" unicode="&#xf3;" horiz-adv-x="507" 
d="M496 668l-156 -121h-94l81 151zM479 283q0 -125 -69 -209t-181 -84q-96 0 -149 59.5t-53 156.5q0 126 69.5 210t181.5 84q94 0 147.5 -59.5t53.5 -157.5zM334 283q0 100 -63 100q-44 0 -71 -54t-27 -122q0 -100 62 -100q45 0 72 53.5t27 122.5z" />
    <glyph glyph-name="ocircumflex" unicode="&#xf4;" horiz-adv-x="507" 
d="M459 547h-92l-58 58l-79 -58h-89l117 147h127zM479 283q0 -125 -69 -209t-181 -84q-96 0 -149 59.5t-53 156.5q0 126 69.5 210t181.5 84q94 0 147.5 -59.5t53.5 -157.5zM334 283q0 100 -63 100q-44 0 -71 -54t-27 -122q0 -100 62 -100q45 0 72 53.5t27 122.5z" />
    <glyph glyph-name="otilde" unicode="&#xf5;" horiz-adv-x="507" 
d="M479 686q-18 -76 -42.5 -107.5t-62.5 -31.5q-23 0 -63 20q-42 21 -57 21q-21 0 -37 -44l-68 15q18 77 43 108.5t63 31.5q28 0 63 -20q41 -21 57 -21q11 0 19 9.5t18 35.5zM479 283q0 -125 -69 -209t-181 -84q-96 0 -149 59.5t-53 156.5q0 126 69.5 210t181.5 84
q94 0 147.5 -59.5t53.5 -157.5zM334 283q0 100 -63 100q-44 0 -71 -54t-27 -122q0 -100 62 -100q45 0 72 53.5t27 122.5z" />
    <glyph glyph-name="odieresis" unicode="&#xf6;" horiz-adv-x="507" 
d="M268 548h-120l20 131h122zM452 548h-121l21 131h121zM479 283q0 -125 -69 -209t-181 -84q-96 0 -149 59.5t-53 156.5q0 126 69.5 210t181.5 84q94 0 147.5 -59.5t53.5 -157.5zM334 283q0 100 -63 100q-44 0 -71 -54t-27 -122q0 -100 62 -100q45 0 72 53.5t27 122.5z" />
    <glyph glyph-name="divide" unicode="&#xf7;" horiz-adv-x="572" 
d="M389 472h-134l20 130h135zM523 280h-464l19 116h464zM326 74h-134l20 130h134z" />
    <glyph glyph-name="oslash" unicode="&#xf8;" horiz-adv-x="507" 
d="M229 -10q-78 0 -131 45l-39 -43l-81 20l77 77q-28 51 -28 117q0 126 69.5 210t181.5 84q75 0 130 -45l40 43l79 -20l-76 -76q28 -53 28 -119q0 -125 -69 -209t-181 -84zM166 206q0 -13 1 -18l157 174q-18 28 -53 28q-47 0 -76 -56.5t-29 -127.5zM235 100q48 0 77 56
t29 128q0 14 -1 19l-157 -175q18 -28 52 -28z" />
    <glyph glyph-name="ugrave" unicode="&#xf9;" horiz-adv-x="520" 
d="M357 547h-93l-128 121l183 30zM30 98q0 20 4 50l55 342h147l-48 -304q-4 -16 -4 -33q0 -32 31 -32t96 62l49 307h147l-59 -368v-122h-138l-6 89q-49 -48 -89 -73.5t-85 -25.5q-48 0 -74 29t-26 79z" />
    <glyph glyph-name="uacute" unicode="&#xfa;" horiz-adv-x="520" 
d="M501 668l-156 -121h-94l81 151zM30 98q0 20 4 50l55 342h147l-48 -304q-4 -16 -4 -33q0 -32 31 -32t96 62l49 307h147l-59 -368v-122h-138l-6 89q-49 -48 -89 -73.5t-85 -25.5q-48 0 -74 29t-26 79z" />
    <glyph glyph-name="ucircumflex" unicode="&#xfb;" horiz-adv-x="520" 
d="M465 547h-92l-58 58l-79 -58h-89l117 147h127zM30 98q0 20 4 50l55 342h147l-48 -304q-4 -16 -4 -33q0 -32 31 -32t96 62l49 307h147l-59 -368v-122h-138l-6 89q-49 -48 -89 -73.5t-85 -25.5q-48 0 -74 29t-26 79z" />
    <glyph glyph-name="udieresis" unicode="&#xfc;" horiz-adv-x="520" 
d="M273 548h-120l20 131h122zM457 548h-121l21 131h121zM30 98q0 20 4 50l55 342h147l-48 -304q-4 -16 -4 -33q0 -32 31 -32t96 62l49 307h147l-59 -368v-122h-138l-6 89q-49 -48 -89 -73.5t-85 -25.5q-48 0 -74 29t-26 79z" />
    <glyph glyph-name="yacute" unicode="&#xfd;" horiz-adv-x="483" 
d="M489 668l-156 -121h-94l81 151zM511 490l-245 -504q-46 -96 -93.5 -132t-130.5 -36q-31 0 -55 6v120q30 -7 57 -7q51 0 80 46l10 19l-87 474l153 21l39 -309l129 302h143z" />
    <glyph glyph-name="thorn" unicode="&#xfe;" horiz-adv-x="516" 
d="M176 116q20 -7 41 -7q53 0 90 50t37 137q0 74 -52 74q-34 0 -83 -50zM492 324q0 -154 -79.5 -241t-193.5 -87q-28 0 -61 7l-24 -166l-151 -23l140 885l151 23l-47 -292q34 34 64 52t68 18q61 0 97 -47t36 -129z" />
    <glyph glyph-name="ydieresis" unicode="&#xff;" horiz-adv-x="483" 
d="M261 548h-120l20 131h122zM445 548h-121l21 131h121zM511 490l-245 -504q-46 -96 -93.5 -132t-130.5 -36q-31 0 -55 6v120q30 -7 57 -7q51 0 80 46l10 19l-87 474l153 21l39 -309l129 302h143z" />
    <glyph glyph-name="Amacron" unicode="&#x100;" horiz-adv-x="663" 
d="M567 762h-301l17 105h301zM444 -7l-22 150h-216l-66 -143h-166l347 693h173l121 -670zM372 514l-108 -238h141z" />
    <glyph glyph-name="amacron" unicode="&#x101;" horiz-adv-x="515" 
d="M474 557h-301l17 105h301zM305 173l32 201q-18 7 -35 7q-51 0 -90 -53.5t-39 -134.5q0 -73 47 -73q34 0 85 53zM299 76q-75 -86 -145 -86q-60 0 -94.5 45t-34.5 124q0 159 85.5 248t207.5 89q86 0 178 -35l-54 -338v-123h-138z" />
    <glyph glyph-name="Abreve" unicode="&#x102;" horiz-adv-x="663" 
d="M580 887q-34 -136 -161 -136q-65 0 -98 35.5t-32 100.5l79 14q9 -57 59 -57q47 0 76 57zM444 -7l-22 150h-216l-66 -143h-166l347 693h173l121 -670zM372 514l-108 -238h141z" />
    <glyph glyph-name="abreve" unicode="&#x103;" horiz-adv-x="515" 
d="M488 682q-34 -136 -161 -136q-65 0 -98 35.5t-32 100.5l79 14q9 -57 59 -57q47 0 76 57zM305 173l32 201q-18 7 -35 7q-51 0 -90 -53.5t-39 -134.5q0 -73 47 -73q34 0 85 53zM299 76q-75 -86 -145 -86q-60 0 -94.5 45t-34.5 124q0 159 85.5 248t207.5 89q86 0 178 -35
l-54 -338v-123h-138z" />
    <glyph glyph-name="Aogonek" unicode="&#x104;" horiz-adv-x="663" 
d="M464 -203q-45 0 -68 20t-23 52q0 51 71 125l-22 149h-216l-66 -143h-166l347 693h173l121 -670l-61 -11l-24 -29q-41 -52 -41 -73q0 -25 33 -25q15 0 49 6l-12 -75q-45 -19 -95 -19zM372 514l-108 -238h141z" />
    <glyph glyph-name="aogonek" unicode="&#x105;" horiz-adv-x="515" 
d="M305 173l32 201q-18 7 -35 7q-51 0 -90 -53.5t-39 -134.5q0 -73 47 -73q34 0 85 53zM412 -184q-45 -19 -95 -19q-45 0 -68 20t-23 52q0 54 78 132l-5 75q-75 -86 -145 -86q-60 0 -94.5 45t-34.5 124q0 159 85.5 248t207.5 89q86 0 178 -35l-54 -338v-123h-45l-14 -17
q-41 -52 -41 -73q0 -25 33 -25q15 0 49 6z" />
    <glyph glyph-name="Cacute" unicode="&#x106;" horiz-adv-x="573" 
d="M619 873l-156 -121h-94l81 151zM592 647l-45 -144q-66 55 -135 55q-86 0 -140.5 -77t-54.5 -182q0 -84 38 -127t104 -43q70 0 146 43v-143q-75 -40 -176 -40q-130 0 -207 75.5t-77 217.5q0 185 104.5 302.5t258.5 117.5q104 0 184 -55z" />
    <glyph glyph-name="cacute" unicode="&#x107;" horiz-adv-x="423" 
d="M491 668l-156 -121h-94l81 151zM426 464l-38 -121q-44 29 -87 29q-55 0 -90.5 -46.5t-35.5 -111.5q0 -51 24.5 -76t67.5 -25q39 0 95 27v-120q-56 -29 -127 -29q-99 0 -153.5 55t-55.5 154q-1 127 73.5 213.5t191.5 86.5q74 0 135 -36z" />
    <glyph glyph-name="Cdotaccent" unicode="&#x10a;" horiz-adv-x="573" 
d="M485 753h-125l21 131h125zM592 647l-45 -144q-66 55 -135 55q-86 0 -140.5 -77t-54.5 -182q0 -84 38 -127t104 -43q70 0 146 43v-143q-75 -40 -176 -40q-130 0 -207 75.5t-77 217.5q0 185 104.5 302.5t258.5 117.5q104 0 184 -55z" />
    <glyph glyph-name="cdotaccent" unicode="&#x10b;" horiz-adv-x="423" 
d="M358 548h-125l21 131h125zM426 464l-38 -121q-44 29 -87 29q-55 0 -90.5 -46.5t-35.5 -111.5q0 -51 24.5 -76t67.5 -25q39 0 95 27v-120q-56 -29 -127 -29q-99 0 -153.5 55t-55.5 154q-1 127 73.5 213.5t191.5 86.5q74 0 135 -36z" />
    <glyph glyph-name="Ccaron" unicode="&#x10c;" horiz-adv-x="573" 
d="M285 899h92l57 -58l80 58h89l-117 -147h-128zM592 647l-45 -144q-66 55 -135 55q-86 0 -140.5 -77t-54.5 -182q0 -84 38 -127t104 -43q70 0 146 43v-143q-75 -40 -176 -40q-130 0 -207 75.5t-77 217.5q0 185 104.5 302.5t258.5 117.5q104 0 184 -55z" />
    <glyph glyph-name="ccaron" unicode="&#x10d;" horiz-adv-x="423" 
d="M158 694h92l57 -58l80 58h89l-117 -147h-128zM426 464l-38 -121q-44 29 -87 29q-55 0 -90.5 -46.5t-35.5 -111.5q0 -51 24.5 -76t67.5 -25q39 0 95 27v-120q-56 -29 -127 -29q-99 0 -153.5 55t-55.5 154q-1 127 73.5 213.5t191.5 86.5q74 0 135 -36z" />
    <glyph glyph-name="Dcaron" unicode="&#x10e;" horiz-adv-x="665" 
d="M249 889h92l57 -58l80 58h89l-117 -147h-128zM646 401q0 -177 -108 -285q-117 -116 -332 -116h-184l109 690h180q164 0 249.5 -73t85.5 -216zM475 392q0 168 -165 168h-31l-69 -430h25q103 0 168 65q72 74 72 197z" />
    <glyph glyph-name="dcaron" unicode="&#x10f;" horiz-adv-x="519" 
d="M697 722q6 -17 6 -35q0 -98 -93 -175l-69 15q43 65 43 122q0 30 -8 57zM339 373q-16 7 -40 7q-53 0 -89.5 -49.5t-36.5 -137.5q0 -73 51 -73q34 0 82 48zM541 722l-96 -600v-122h-138l-6 73q-76 -83 -143 -83q-61 0 -97 46.5t-36 129.5q0 153 79.5 240.5t192.5 87.5
q29 0 61 -8l32 213z" />
    <glyph glyph-name="Dcroat" unicode="&#x110;" horiz-adv-x="694" 
d="M237 130h27q102 0 167 65q72 72 72 197q0 168 -164 168h-33l-22 -137h108l-23 -138h-107zM234 0h-183l45 283h-68v143h90l42 264h179q164 0 250 -73.5t86 -215.5q0 -178 -109 -285q-116 -116 -332 -116z" />
    <glyph glyph-name="dcroat" unicode="&#x111;" horiz-adv-x="519" 
d="M338 373q-16 7 -40 7q-53 0 -89.5 -49.5t-36.5 -137.5q0 -73 51 -73q34 0 82 48zM300 73q-76 -83 -143 -83q-61 0 -97 46.5t-36 129.5q0 153 79.5 240.5t192.5 87.5q29 0 61 -8l9 63h-95v93h109l9 57l151 23l-13 -80h66l-15 -93h-66l-68 -427v-122h-138z" />
    <glyph glyph-name="Emacron" unicode="&#x112;" 
d="M497 752h-301l17 105h301zM541 690l-21 -138h-243l-20 -127h182v-137h-204l-24 -150h251l-22 -138h-418l109 690h410z" />
    <glyph glyph-name="emacron" unicode="&#x113;" horiz-adv-x="478" 
d="M442 557h-301l17 105h301zM264 402q-31 0 -55 -29t-37 -76h148q11 105 -56 105zM416 37q-92 -47 -182 -47q-94 0 -151.5 53t-57.5 152q0 131 73 218t181 87q82 0 128 -53t46 -142q0 -50 -12 -95h-279q0 -114 100 -114q71 0 154 44v-103z" />
    <glyph glyph-name="Ebreve" unicode="&#x114;" 
d="M510 877q-34 -136 -161 -136q-65 0 -98 35.5t-32 100.5l79 14q9 -57 59 -57q47 0 76 57zM541 690l-21 -138h-243l-20 -127h182v-137h-204l-24 -150h251l-22 -138h-418l109 690h410z" />
    <glyph glyph-name="ebreve" unicode="&#x115;" horiz-adv-x="478" 
d="M456 682q-34 -136 -161 -136q-65 0 -98 35.5t-32 100.5l79 14q9 -57 59 -57q47 0 76 57zM264 402q-31 0 -55 -29t-37 -76h148q11 105 -56 105zM416 37q-92 -47 -182 -47q-94 0 -151.5 53t-57.5 152q0 131 73 218t181 87q82 0 128 -53t46 -142q0 -50 -12 -95h-279
q0 -114 100 -114q71 0 154 44v-103z" />
    <glyph glyph-name="Edotaccent" unicode="&#x116;" 
d="M407 743h-125l21 131h125zM541 690l-21 -138h-243l-20 -127h182v-137h-204l-24 -150h251l-22 -138h-418l109 690h410z" />
    <glyph glyph-name="edotaccent" unicode="&#x117;" horiz-adv-x="478" 
d="M352 548h-125l21 131h125zM264 402q-31 0 -55 -29t-37 -76h148q11 105 -56 105zM416 37q-92 -47 -182 -47q-94 0 -151.5 53t-57.5 152q0 131 73 218t181 87q82 0 128 -53t46 -142q0 -50 -12 -95h-279q0 -114 100 -114q71 0 154 44v-103z" />
    <glyph glyph-name="Eogonek" unicode="&#x118;" 
d="M419 -184q-45 -19 -95 -19q-45 0 -68 20t-23 52q0 54 77 131h-288l109 690h410l-21 -138h-243l-20 -127h182v-137h-204l-24 -150h251l-22 -138h-36l-14 -17q-41 -52 -41 -73q0 -25 33 -25q15 0 49 6z" />
    <glyph glyph-name="eogonek" unicode="&#x119;" horiz-adv-x="478" 
d="M285 -203q-45 0 -68 19t-23 51q0 28 16 54.5t59 70.5q-11 -2 -34 -2q-94 0 -152 52t-58 152q0 133 73.5 219.5t180.5 86.5q82 0 128 -52.5t46 -142.5q0 -50 -12 -95h-278q-1 -4 -1 -12q6 -102 102 -102q70 0 153 44v-92l-56 -58q-51 -52 -51 -80q0 -25 33 -25q14 0 50 6
l-12 -75q-45 -19 -96 -19zM171 297h149q11 105 -56 105q-32 0 -56.5 -28.5t-36.5 -76.5z" />
    <glyph glyph-name="Ecaron" unicode="&#x11a;" 
d="M207 889h92l57 -58l80 58h89l-117 -147h-128zM541 690l-21 -138h-243l-20 -127h182v-137h-204l-24 -150h251l-22 -138h-418l109 690h410z" />
    <glyph glyph-name="ecaron" unicode="&#x11b;" horiz-adv-x="478" 
d="M153 694h92l57 -58l80 58h89l-117 -147h-128zM264 402q-31 0 -55 -29t-37 -76h148q11 105 -56 105zM416 37q-92 -47 -182 -47q-94 0 -151.5 53t-57.5 152q0 131 73 218t181 87q82 0 128 -53t46 -142q0 -50 -12 -95h-279q0 -114 100 -114q71 0 154 44v-103z" />
    <glyph glyph-name="Gbreve" unicode="&#x11e;" horiz-adv-x="652" 
d="M599 887q-34 -136 -161 -136q-65 0 -98 35.5t-32 100.5l79 14q9 -57 59 -57q48 0 76 57zM627 396l-57 -344q-108 -65 -238 -65q-132 0 -209.5 78t-77.5 213q0 183 107.5 304t269.5 121q114 0 210 -51l-45 -144q-78 54 -161 54q-93 0 -150.5 -78.5t-57.5 -197.5
q0 -82 36.5 -123t98.5 -41q46 0 87 18l19 130h-107v126h275z" />
    <glyph glyph-name="gbreve" unicode="&#x11f;" horiz-adv-x="517" 
d="M492 682q-34 -136 -161 -136q-65 0 -98 35.5t-32 100.5l79 14q9 -57 59 -57q47 0 76 57zM339 373q-17 7 -42 7q-52 0 -88 -48.5t-36 -129.5q0 -71 52 -71q35 0 82 50zM498 461l-66 -423q-20 -121 -83.5 -170.5t-163.5 -49.5q-114 0 -204 44l37 113q80 -41 155 -41
q92 0 110 98l9 44q-69 -69 -130 -69q-63 0 -100 44.5t-37 126.5q0 147 82.5 232.5t198.5 85.5q89 0 192 -35z" />
    <glyph glyph-name="Gdotaccent" unicode="&#x120;" horiz-adv-x="652" 
d="M496 753h-125l21 131h125zM627 396l-57 -344q-108 -65 -238 -65q-132 0 -209.5 78t-77.5 213q0 183 107.5 304t269.5 121q114 0 210 -51l-45 -144q-78 54 -161 54q-93 0 -150.5 -78.5t-57.5 -197.5q0 -82 36.5 -123t98.5 -41q46 0 87 18l19 130h-107v126h275z" />
    <glyph glyph-name="gdotaccent" unicode="&#x121;" horiz-adv-x="517" 
d="M388 548h-125l21 131h125zM339 373q-17 7 -42 7q-52 0 -88 -48.5t-36 -129.5q0 -71 52 -71q35 0 82 50zM498 461l-66 -423q-20 -121 -83.5 -170.5t-163.5 -49.5q-114 0 -204 44l37 113q80 -41 155 -41q92 0 110 98l9 44q-69 -69 -130 -69q-63 0 -100 44.5t-37 126.5
q0 147 82.5 232.5t198.5 85.5q89 0 192 -35z" />
    <glyph glyph-name="Gcommaaccent" unicode="&#x122;" horiz-adv-x="652" 
d="M627 396l-57 -344q-108 -65 -238 -65q-132 0 -209.5 78t-77.5 213q0 183 107.5 304t269.5 121q114 0 210 -51l-45 -144q-78 54 -161 54q-93 0 -150.5 -78.5t-57.5 -197.5q0 -82 36.5 -123t98.5 -41q46 0 87 18l19 130h-107v126h275zM218 -82l126 23q31 -34 31 -71
q0 -78 -110 -146l-91 19q70 67 70 114q0 30 -26 61z" />
    <glyph glyph-name="gcommaaccent" unicode="&#x123;" horiz-adv-x="517" 
d="M411 563l-125 -23q-32 32 -32 70q0 77 111 146l90 -19q-69 -65 -69 -114q0 -28 25 -60zM339 373q-17 7 -42 7q-52 0 -88 -48.5t-36 -129.5q0 -71 52 -71q35 0 82 50zM498 461l-66 -423q-20 -121 -83.5 -170.5t-163.5 -49.5q-114 0 -204 44l37 113q80 -41 155 -41
q92 0 110 98l9 44q-69 -69 -130 -69q-63 0 -100 44.5t-37 126.5q0 147 82.5 232.5t198.5 85.5q89 0 192 -35z" />
    <glyph glyph-name="Hbar" unicode="&#x126;" horiz-adv-x="721" 
d="M281 418h213l15 95h-213zM261 278l-43 -278h-170l80 509h-71v103h88l12 78h167l-12 -78h212l12 78h167l-12 -78h80l-16 -103h-81l-80 -509h-169l44 278h-208z" />
    <glyph glyph-name="hbar" unicode="&#x127;" horiz-adv-x="520" 
d="M210 307l-49 -307h-147l88 549h-56v93h71l9 57l150 23l-13 -80h111l-15 -93h-111l-23 -140q47 45 84 68t82 23q48 0 74 -29.5t26 -79.5q0 -18 -4 -50l-55 -341h-147l48 303q4 18 4 34q0 14 -8.5 23t-22.5 9q-31 0 -96 -62z" />
    <glyph glyph-name="Imacron" unicode="&#x12a;" horiz-adv-x="298" 
d="M379 752h-301l17 105h301zM304 690l-109 -690h-170l109 690h170z" />
    <glyph glyph-name="imacron" unicode="&#x12b;" horiz-adv-x="258" 
d="M329 557h-301l17 105h301zM242 490l-79 -490h-147l79 490h147z" />
    <glyph glyph-name="Ibreve" unicode="&#x12c;" horiz-adv-x="298" 
d="M393 877q-34 -136 -161 -136q-65 0 -98 35.5t-32 100.5l79 14q9 -57 59 -57q48 0 76 57zM304 690l-109 -690h-170l109 690h170z" />
    <glyph glyph-name="ibreve" unicode="&#x12d;" horiz-adv-x="258" 
d="M343 682q-34 -136 -161 -136q-65 0 -98 35.5t-32 100.5l79 14q9 -57 59 -57q48 0 76 57zM242 490l-79 -490h-147l79 490h147z" />
    <glyph glyph-name="Iogonek" unicode="&#x12e;" horiz-adv-x="301" 
d="M177 -184q-45 -19 -95 -19q-45 0 -68 20t-23 52q0 54 77 131h-42l109 690h170l-109 -690h-34l-14 -17q-41 -52 -41 -73q0 -25 33 -25q15 0 49 6z" />
    <glyph glyph-name="iogonek" unicode="&#x12f;" horiz-adv-x="258" 
d="M278 636q0 -37 -24.5 -59.5t-61.5 -22.5t-62 22.5t-25 59.5t25 59.5t62 22.5t61.5 -22.5t24.5 -59.5zM152 -184q-45 -19 -95 -19q-45 0 -68 20t-23 52q0 54 77 131h-27l79 490h147l-79 -490h-26l-14 -17q-41 -52 -41 -73q0 -25 33 -25q15 0 49 6z" />
    <glyph glyph-name="Idotaccent" unicode="&#x130;" horiz-adv-x="298" 
d="M289 743h-125l21 131h125zM304 690l-109 -690h-170l109 690h170z" />
    <glyph glyph-name="dotlessi" unicode="&#x131;" horiz-adv-x="258" 
d="M242 490l-79 -490h-147l79 490h147z" />
    <glyph glyph-name="Kcommaaccent" unicode="&#x136;" horiz-adv-x="619" 
d="M677 690l-272 -333l175 -335l-177 -29l-162 327l-49 -320h-170l109 690h170l-48 -295l229 295h195zM188 -64l126 23q31 -34 31 -71q0 -78 -110 -146l-91 19q70 67 70 114q0 30 -26 61z" />
    <glyph glyph-name="kcommaaccent" unicode="&#x137;" horiz-adv-x="491" 
d="M159 0h-147l111 696l151 26l-70 -428l150 196h164l-185 -232l117 -240l-148 -25l-109 236zM120 -73l126 23q31 -34 31 -71q0 -78 -110 -146l-91 19q70 67 70 114q0 30 -26 61z" />
    <glyph glyph-name="Lacute" unicode="&#x139;" horiz-adv-x="478" 
d="M433 861l-156 -121h-94l81 151zM422 0h-400l109 690h170l-86 -543h207v-147z" />
    <glyph glyph-name="lacute" unicode="&#x13a;" horiz-adv-x="258" 
d="M408 871l-156 -121h-94l81 151zM279 722l-115 -722h-147l111 699z" />
    <glyph glyph-name="Lcommaaccent" unicode="&#x13b;" horiz-adv-x="478" 
d="M422 0h-400l109 690h170l-86 -543h207v-147zM121 -73l126 23q31 -34 31 -71q0 -78 -110 -146l-91 19q70 67 70 114q0 30 -26 61z" />
    <glyph glyph-name="lcommaaccent" unicode="&#x13c;" horiz-adv-x="258" 
d="M278 722l-115 -722h-147l111 699zM-5 -73l126 23q31 -34 31 -71q0 -78 -110 -146l-91 19q70 67 70 114q0 30 -26 61z" />
    <glyph glyph-name="Lcaron" unicode="&#x13d;" horiz-adv-x="478" 
d="M465 692q6 -16 6 -35q0 -98 -93 -175l-69 15q43 65 43 122q0 30 -8 57zM422 0h-400l109 690h170l-86 -543h207v-147z" />
    <glyph glyph-name="lcaron" unicode="&#x13e;" horiz-adv-x="264" 
d="M436 724q6 -17 6 -35q0 -98 -93 -175l-69 15q43 65 43 122q0 30 -8 57zM278 722l-115 -722h-147l111 699z" />
    <glyph glyph-name="Ldot" unicode="&#x13f;" horiz-adv-x="481" 
d="M425 0h-400l109 690h170l-86 -543h207v-147zM459 301h-127l20 131h127z" />
    <glyph glyph-name="ldot" unicode="&#x140;" horiz-adv-x="334" 
d="M279 722l-115 -722h-147l111 699zM356 284h-108l24 151h108z" />
    <glyph glyph-name="Lslash" unicode="&#x141;" horiz-adv-x="506" 
d="M450 0h-399l36 226l-66 -33v132l88 44l51 321h170l-37 -229l133 67l-23 -145l-133 -65l-27 -171h207v-147z" />
    <glyph glyph-name="lslash" unicode="&#x142;" horiz-adv-x="331" 
d="M198 0h-147l38 238l-66 -33v133l88 43l51 318l150 23l-42 -263l80 39l-23 -144l-79 -38z" />
    <glyph glyph-name="Nacute" unicode="&#x143;" horiz-adv-x="667" 
d="M608 860l-156 -121h-94l81 151zM676 690l-109 -690h-135l-188 417l-67 -417h-155l109 690h160l170 -381l60 381h155z" />
    <glyph glyph-name="nacute" unicode="&#x144;" horiz-adv-x="520" 
d="M502 668l-156 -121h-94l81 151zM491 391q0 -10 -5 -50l-55 -341h-146l48 303q3 27 3 34q0 14 -8.5 23t-22.5 9q-31 0 -96 -62l-48 -307h-147l58 367v123h138l6 -90q49 48 89.5 74t85.5 26q48 0 74 -29.5t26 -79.5z" />
    <glyph glyph-name="Ncommaaccent" unicode="&#x145;" horiz-adv-x="667" 
d="M676 690l-109 -690h-135l-188 417l-67 -417h-155l109 690h160l170 -381l60 381h155zM202 -64l126 23q31 -34 31 -71q0 -78 -110 -146l-91 19q70 67 70 114q0 30 -26 61z" />
    <glyph glyph-name="ncommaaccent" unicode="&#x146;" horiz-adv-x="520" 
d="M491 391q0 -10 -5 -50l-55 -341h-146l48 303q3 27 3 34q0 14 -8.5 23t-22.5 9q-31 0 -96 -62l-48 -307h-147l58 367v123h138l6 -90q49 48 89.5 74t85.5 26q48 0 74 -29.5t26 -79.5zM124 -73l126 23q31 -34 31 -71q0 -78 -110 -146l-91 19q70 67 70 114q0 30 -26 61z" />
    <glyph glyph-name="Ncaron" unicode="&#x147;" horiz-adv-x="667" 
d="M274 886h92l57 -58l80 58h89l-117 -147h-128zM676 690l-109 -690h-135l-188 417l-67 -417h-155l109 690h160l170 -381l60 381h155z" />
    <glyph glyph-name="ncaron" unicode="&#x148;" horiz-adv-x="520" 
d="M168 694h92l57 -58l80 58h89l-117 -147h-128zM491 391q0 -10 -5 -50l-55 -341h-146l48 303q3 27 3 34q0 14 -8.5 23t-22.5 9q-31 0 -96 -62l-48 -307h-147l58 367v123h138l6 -90q49 48 89.5 74t85.5 26q48 0 74 -29.5t26 -79.5z" />
    <glyph glyph-name="Omacron" unicode="&#x14c;" horiz-adv-x="690" 
d="M574 762h-301l17 105h301zM327 -13q-131 0 -205 80t-74 223q0 96 31 181t89 142q88 90 222 90q131 0 205 -80t74 -223q0 -96 -31 -181t-88 -142q-90 -90 -223 -90zM330 116q47 0 86 39q35 35 58 106t23 155q0 158 -109 158q-48 0 -87 -39q-34 -33 -57 -105t-23 -156
q0 -158 109 -158z" />
    <glyph glyph-name="omacron" unicode="&#x14d;" horiz-adv-x="507" 
d="M452 557h-301l17 105h301zM479 283q0 -125 -69 -209t-181 -84q-96 0 -149 59.5t-53 156.5q0 126 69.5 210t181.5 84q94 0 147.5 -59.5t53.5 -157.5zM334 283q0 100 -63 100q-44 0 -71 -54t-27 -122q0 -100 62 -100q45 0 72 53.5t27 122.5z" />
    <glyph glyph-name="Obreve" unicode="&#x14e;" horiz-adv-x="690" 
d="M587 887q-34 -136 -161 -136q-65 0 -98 35.5t-32 100.5l79 14q9 -57 59 -57q48 0 76 57zM327 -13q-131 0 -205 80t-74 223q0 96 31 181t89 142q88 90 222 90q131 0 205 -80t74 -223q0 -96 -31 -181t-88 -142q-90 -90 -223 -90zM330 116q47 0 86 39q35 35 58 106t23 155
q0 158 -109 158q-48 0 -87 -39q-34 -33 -57 -105t-23 -156q0 -158 109 -158z" />
    <glyph glyph-name="obreve" unicode="&#x14f;" horiz-adv-x="507" 
d="M466 682q-34 -136 -161 -136q-65 0 -98 35.5t-32 100.5l79 14q9 -57 59 -57q47 0 76 57zM479 283q0 -125 -69 -209t-181 -84q-96 0 -149 59.5t-53 156.5q0 126 69.5 210t181.5 84q94 0 147.5 -59.5t53.5 -157.5zM334 283q0 100 -63 100q-44 0 -71 -54t-27 -122
q0 -100 62 -100q45 0 72 53.5t27 122.5z" />
    <glyph glyph-name="Ohungarumlaut" unicode="&#x150;" horiz-adv-x="690" 
d="M522 873l-152 -120h-95l87 150zM693 873l-151 -120h-95l94 150zM327 -13q-131 0 -205 80t-74 223q0 96 31 181t89 142q88 90 222 90q131 0 205 -80t74 -223q0 -96 -31 -181t-88 -142q-90 -90 -223 -90zM330 116q47 0 86 39q35 35 58 106t23 155q0 158 -109 158
q-48 0 -87 -39q-34 -33 -57 -105t-23 -156q0 -158 109 -158z" />
    <glyph glyph-name="ohungarumlaut" unicode="&#x151;" horiz-adv-x="507" 
d="M400 668l-152 -120h-95l87 150zM571 668l-151 -120h-95l94 150zM479 283q0 -125 -69 -209t-181 -84q-96 0 -149 59.5t-53 156.5q0 126 69.5 210t181.5 84q94 0 147.5 -59.5t53.5 -157.5zM334 283q0 100 -63 100q-44 0 -71 -54t-27 -122q0 -100 62 -100q45 0 72 53.5
t27 122.5z" />
    <glyph glyph-name="OE" unicode="&#x152;" horiz-adv-x="852" 
d="M379 0q-163 0 -249.5 73.5t-86.5 215.5q0 178 109 285q115 116 331 116h398l-20 -138h-233l-20 -127h172v-137h-194l-24 -150h241l-22 -138h-402zM379 130h15l69 430h-9q-101 0 -168 -65q-72 -72 -72 -197q0 -168 165 -168z" />
    <glyph glyph-name="oe" unicode="&#x153;" horiz-adv-x="784" 
d="M759 305q0 -50 -12 -95h-278v-10q4 -104 99 -104q71 0 154 44v-103q-92 -47 -186 -47q-98 0 -149 76q-63 -76 -163 -76q-91 0 -144 59t-53 155q0 125 69 210.5t177 85.5q101 0 150 -80q67 80 165 80q82 0 126.5 -52.5t44.5 -142.5zM571 402q-32 0 -56.5 -28.5
t-36.5 -76.5h149q11 105 -56 105zM334 287q0 96 -64 96q-43 0 -70 -53.5t-27 -126.5q0 -96 64 -96q43 0 70 53.5t27 126.5z" />
    <glyph glyph-name="Racute" unicode="&#x154;" horiz-adv-x="594" 
d="M558 863l-156 -121h-94l81 151zM581 495q0 -81 -39.5 -135.5t-108.5 -80.5l115 -257l-176 -29l-104 248h-41l-38 -241h-167l109 690h198q121 0 186.5 -49t65.5 -146zM417 481q0 85 -103 85h-38l-31 -206h36q65 0 100.5 31.5t35.5 89.5z" />
    <glyph glyph-name="racute" unicode="&#x155;" horiz-adv-x="371" 
d="M420 668l-156 -121h-94l81 151zM379 348q-104 -9 -176 -79l-42 -269h-147l58 367v123h137l7 -109q73 118 163 119v-152z" />
    <glyph glyph-name="Rcommaaccent" unicode="&#x156;" horiz-adv-x="594" 
d="M581 495q0 -81 -39.5 -135.5t-108.5 -80.5l115 -257l-176 -29l-104 248h-41l-38 -241h-167l109 690h198q121 0 186.5 -49t65.5 -146zM417 481q0 85 -103 85h-38l-31 -206h36q65 0 100.5 31.5t35.5 89.5zM174 -64l126 23q31 -34 31 -71q0 -78 -110 -146l-91 19
q70 67 70 114q0 30 -26 61z" />
    <glyph glyph-name="rcommaaccent" unicode="&#x157;" horiz-adv-x="371" 
d="M379 348q-104 -9 -176 -79l-42 -269h-147l58 367v123h137l7 -109q73 118 163 119v-152zM2 -73l126 23q31 -34 31 -71q0 -78 -110 -146l-91 19q70 67 70 114q0 30 -26 61z" />
    <glyph glyph-name="Rcaron" unicode="&#x158;" horiz-adv-x="594" 
d="M224 889h92l57 -58l80 58h89l-117 -147h-128zM581 495q0 -81 -39.5 -135.5t-108.5 -80.5l115 -257l-176 -29l-104 248h-41l-38 -241h-167l109 690h198q121 0 186.5 -49t65.5 -146zM417 481q0 85 -103 85h-38l-31 -206h36q65 0 100.5 31.5t35.5 89.5z" />
    <glyph glyph-name="rcaron" unicode="&#x159;" horiz-adv-x="371" 
d="M87 694h92l57 -58l80 58h89l-117 -147h-128zM379 348q-104 -9 -176 -79l-42 -269h-147l58 367v123h137l7 -109q73 118 163 119v-152z" />
    <glyph glyph-name="Sacute" unicode="&#x15a;" horiz-adv-x="536" 
d="M548 873l-156 -121h-94l81 151zM536 642l-46 -135q-99 65 -170 65q-36 0 -54.5 -17.5t-18.5 -44.5q0 -23 15.5 -39.5t59.5 -40.5q100 -54 138.5 -101t38.5 -110q0 -109 -69.5 -169.5t-181.5 -60.5q-128 0 -247 68l47 135q111 -74 200 -74q39 0 63.5 20.5t24.5 52.5
q0 25 -14 41t-54 38q-107 57 -145.5 101.5t-38.5 114.5q0 93 65 154t174 61q114 0 213 -59z" />
    <glyph glyph-name="sacute" unicode="&#x15b;" horiz-adv-x="421" 
d="M456 668l-156 -121h-94l81 151zM404 455l-31 -110q-85 47 -145 47q-44 0 -44 -32q0 -14 9.5 -23t38.5 -22q86 -40 119.5 -73t33.5 -91q0 -70 -49.5 -115.5t-138.5 -45.5q-104 0 -203 57l34 111q92 -60 171 -60q25 0 39 10t14 27q0 15 -11.5 25t-45.5 26q-80 37 -112 69
t-32 88q0 70 48.5 113.5t130.5 43.5q89 0 174 -45z" />
    <glyph glyph-name="Scedilla" unicode="&#x15e;" horiz-adv-x="536" 
d="M536 642l-46 -135q-99 65 -170 65q-36 0 -54.5 -17.5t-18.5 -44.5q0 -23 15.5 -39.5t59.5 -40.5q100 -54 138.5 -101t38.5 -110q0 -109 -69.5 -169.5t-181.5 -60.5q-128 0 -247 68l47 135q111 -74 200 -74q39 0 63.5 20.5t24.5 52.5q0 25 -14 41t-54 38
q-107 57 -145.5 101.5t-38.5 114.5q0 93 65 154t174 61q114 0 213 -59zM296 -90l-146 -106h-92l73 137z" />
    <glyph glyph-name="scedilla" unicode="&#x15f;" horiz-adv-x="421" 
d="M404 455l-31 -110q-85 47 -145 47q-44 0 -44 -32q0 -14 9.5 -23t38.5 -22q86 -40 119.5 -73t33.5 -91q0 -70 -49.5 -115.5t-138.5 -45.5q-104 0 -203 57l34 111q92 -60 171 -60q25 0 39 10t14 27q0 15 -11.5 25t-45.5 26q-80 37 -112 69t-32 88q0 70 48.5 113.5
t130.5 43.5q89 0 174 -45zM238 -81l-146 -106h-92l73 137z" />
    <glyph glyph-name="Scaron" unicode="&#x160;" horiz-adv-x="536" 
d="M214 899h92l57 -58l80 58h89l-117 -147h-128zM536 642l-46 -135q-99 65 -170 65q-36 0 -54.5 -17.5t-18.5 -44.5q0 -23 15.5 -39.5t59.5 -40.5q100 -54 138.5 -101t38.5 -110q0 -109 -69.5 -169.5t-181.5 -60.5q-128 0 -247 68l47 135q111 -74 200 -74q39 0 63.5 20.5
t24.5 52.5q0 25 -14 41t-54 38q-107 57 -145.5 101.5t-38.5 114.5q0 93 65 154t174 61q114 0 213 -59z" />
    <glyph glyph-name="scaron" unicode="&#x161;" horiz-adv-x="421" 
d="M123 694h92l57 -58l80 58h89l-117 -147h-128zM404 455l-31 -110q-85 47 -145 47q-44 0 -44 -32q0 -14 9.5 -23t38.5 -22q86 -40 119.5 -73t33.5 -91q0 -70 -49.5 -115.5t-138.5 -45.5q-104 0 -203 57l34 111q92 -60 171 -60q25 0 39 10t14 27q0 15 -11.5 25t-45.5 26
q-80 37 -112 69t-32 88q0 70 48.5 113.5t130.5 43.5q89 0 174 -45z" />
    <glyph glyph-name="Tcommaaccent" unicode="&#x162;" horiz-adv-x="585" 
d="M620 548h-195l-86 -548h-170l87 548h-190l23 142h531v-142zM160 -73l126 23q31 -34 31 -71q0 -78 -110 -146l-91 19q70 67 70 114q0 30 -26 61z" />
    <glyph glyph-name="tcommaaccent" unicode="&#x163;" horiz-adv-x="358" 
d="M351 369h-110l-28 -176q-3 -18 -3 -34q0 -42 44 -42q16 0 43 5v-120q-44 -11 -97 -11q-141 0 -141 122q0 29 5 61l31 195h-61l19 121h61l22 149l151 23l-27 -172h91v-121zM71 -73l126 23q31 -34 31 -71q0 -78 -110 -146l-91 19q70 67 70 114q0 30 -26 61z" />
    <glyph glyph-name="Tcaron" unicode="&#x164;" horiz-adv-x="585" 
d="M234 889h92l57 -58l80 58h89l-117 -147h-128zM620 548h-195l-86 -548h-170l87 548h-190l23 142h531v-142z" />
    <glyph glyph-name="tcaron" unicode="&#x165;" horiz-adv-x="362" 
d="M459 741q6 -16 6 -35q0 -98 -93 -175l-69 15q43 64 43 122q0 30 -8 57zM351 369h-110l-28 -176q-3 -18 -3 -34q0 -42 44 -42q16 0 43 5v-120q-44 -11 -97 -11q-141 0 -141 122q0 29 5 61l31 195h-61l19 121h61l22 149l151 23l-27 -172h91v-121z" />
    <glyph glyph-name="Umacron" unicode="&#x16a;" horiz-adv-x="659" 
d="M558 749h-301l17 105h301zM675 690l-67 -422q-23 -147 -99.5 -214t-204.5 -67q-121 0 -185.5 56t-64.5 166q0 35 8 91l62 390h169l-63 -400q-7 -47 -7 -73q0 -43 23.5 -67.5t68.5 -24.5q101 0 123 138l67 427h170z" />
    <glyph glyph-name="umacron" unicode="&#x16b;" horiz-adv-x="520" 
d="M457 557h-301l17 105h301zM30 98q0 20 4 50l55 342h147l-48 -304q-4 -16 -4 -33q0 -32 31 -32t96 62l49 307h147l-59 -368v-122h-138l-6 89q-49 -48 -89 -73.5t-85 -25.5q-48 0 -74 29t-26 79z" />
    <glyph glyph-name="Ubreve" unicode="&#x16c;" horiz-adv-x="659" 
d="M573 869q-34 -136 -161 -136q-65 0 -98 35.5t-32 100.5l79 14q9 -57 59 -57q48 0 76 57zM675 690l-67 -422q-23 -147 -99.5 -214t-204.5 -67q-121 0 -185.5 56t-64.5 166q0 35 8 91l62 390h169l-63 -400q-7 -47 -7 -73q0 -43 23.5 -67.5t68.5 -24.5q101 0 123 138l67 427
h170z" />
    <glyph glyph-name="ubreve" unicode="&#x16d;" horiz-adv-x="520" 
d="M473 677q-34 -136 -161 -136q-65 0 -98 35.5t-32 100.5l79 14q9 -57 59 -57q48 0 76 57zM30 98q0 20 4 50l55 342h147l-48 -304q-4 -16 -4 -33q0 -32 31 -32t96 62l49 307h147l-59 -368v-122h-138l-6 89q-49 -48 -89 -73.5t-85 -25.5q-48 0 -74 29t-26 79z" />
    <glyph glyph-name="Uring" unicode="&#x16e;" horiz-adv-x="659" 
d="M422 728q-65 0 -99.5 31.5t-34.5 81.5q0 48 34.5 80t99.5 32q64 0 99 -32t35 -80q0 -50 -35 -81.5t-99 -31.5zM422 785q24 0 38.5 15.5t14.5 40.5t-14.5 40.5t-38.5 15.5t-38.5 -15.5t-14.5 -40.5t14.5 -40.5t38.5 -15.5zM675 690l-67 -422q-23 -147 -99.5 -214
t-204.5 -67q-121 0 -185.5 56t-64.5 166q0 35 8 91l62 390h169l-63 -400q-7 -47 -7 -73q0 -43 23.5 -67.5t68.5 -24.5q101 0 123 138l67 427h170z" />
    <glyph glyph-name="uring" unicode="&#x16f;" horiz-adv-x="520" 
d="M321 536q-65 0 -99.5 31.5t-34.5 81.5q0 48 34.5 80t99.5 32q64 0 99 -32t35 -80q0 -50 -35 -81.5t-99 -31.5zM321 593q24 0 38.5 15.5t14.5 40.5t-14.5 40.5t-38.5 15.5t-38.5 -15.5t-14.5 -40.5t14.5 -40.5t38.5 -15.5zM30 98q0 20 4 50l55 342h147l-48 -304
q-4 -16 -4 -33q0 -32 31 -32t96 62l49 307h147l-59 -368v-122h-138l-6 89q-49 -48 -89 -73.5t-85 -25.5q-48 0 -74 29t-26 79z" />
    <glyph glyph-name="Uhungarumlaut" unicode="&#x170;" horiz-adv-x="659" 
d="M506 860l-152 -120h-95l87 150zM677 860l-151 -120h-95l94 150zM675 690l-67 -422q-23 -147 -99.5 -214t-204.5 -67q-121 0 -185.5 56t-64.5 166q0 35 8 91l62 390h169l-63 -400q-7 -47 -7 -73q0 -43 23.5 -67.5t68.5 -24.5q101 0 123 138l67 427h170z" />
    <glyph glyph-name="uhungarumlaut" unicode="&#x171;" horiz-adv-x="520" 
d="M406 668l-152 -120h-95l87 150zM577 668l-151 -120h-95l94 150zM30 98q0 20 4 50l55 342h147l-48 -304q-4 -16 -4 -33q0 -32 31 -32t96 62l49 307h147l-59 -368v-122h-138l-6 89q-49 -48 -89 -73.5t-85 -25.5q-48 0 -74 29t-26 79z" />
    <glyph glyph-name="Uogonek" unicode="&#x172;" horiz-adv-x="664" 
d="M267 -203q-45 0 -68 20t-23 52q0 51 68 122q-187 28 -187 218q0 35 8 91l62 390h169l-63 -400q-7 -47 -7 -73q0 -43 23.5 -67.5t68.5 -24.5q101 0 123 138l67 427h170l-67 -422q-42 -266 -274 -280l-4 -5q-41 -52 -41 -73q0 -25 33 -25q15 0 49 6l-12 -75
q-45 -19 -95 -19z" />
    <glyph glyph-name="uogonek" unicode="&#x173;" horiz-adv-x="520" 
d="M418 -184q-45 -19 -95 -19q-45 0 -68 20t-23 52q0 54 78 132l-6 88q-49 -48 -89 -73.5t-85 -25.5q-48 0 -74 29t-26 79q0 20 4 50l55 342h147l-48 -304q-4 -16 -4 -33q0 -32 31 -32t96 62l49 307h147l-59 -368v-122h-45l-14 -17q-41 -52 -41 -73q0 -25 33 -25q15 0 49 6z
" />
    <glyph glyph-name="Wcircumflex" unicode="&#x174;" horiz-adv-x="971" 
d="M735 742h-92l-58 58l-79 -58h-89l117 147h127zM1025 690l-297 -690h-160l-57 434l-197 -434h-154l-76 667l188 30l27 -432l187 425h165l51 -425l161 425h162z" />
    <glyph glyph-name="wcircumflex" unicode="&#x175;" horiz-adv-x="707" 
d="M565 547h-92l-58 58l-79 -58h-89l117 147h127zM731 490l-210 -490h-139l-25 296l-117 -296h-136l-55 478l149 19l16 -302l114 295h135l21 -295l108 295h139z" />
    <glyph glyph-name="Ycircumflex" unicode="&#x176;" horiz-adv-x="631" 
d="M548 739h-92l-58 58l-79 -58h-89l117 147h127zM703 690l-305 -437l-41 -253h-170l40 250l-160 419l177 28l97 -282l178 275h184z" />
    <glyph glyph-name="ycircumflex" unicode="&#x177;" horiz-adv-x="483" 
d="M452 547h-92l-58 58l-79 -58h-89l117 147h127zM511 490l-245 -504q-46 -96 -93.5 -132t-130.5 -36q-31 0 -55 6v120q30 -7 57 -7q51 0 80 46l10 19l-87 474l153 21l39 -309l129 302h143z" />
    <glyph glyph-name="Ydieresis" unicode="&#x178;" horiz-adv-x="631" 
d="M357 740h-120l20 131h122zM541 740h-121l21 131h121zM703 690l-305 -437l-41 -253h-170l40 250l-160 419l177 28l97 -282l178 275h184z" />
    <glyph glyph-name="Zacute" unicode="&#x179;" horiz-adv-x="576" 
d="M565 863l-156 -121h-94l81 151zM609 690l-19 -123l-366 -432h287v-135h-517l20 123l365 432h-262v135h492z" />
    <glyph glyph-name="zacute" unicode="&#x17a;" horiz-adv-x="456" 
d="M472 668l-156 -121h-94l81 151zM456 490l-18 -114l-244 -259h198v-117h-404l18 113l245 259h-175v118h380z" />
    <glyph glyph-name="Zdotaccent" unicode="&#x17b;" horiz-adv-x="576" 
d="M432 743h-125l21 131h125zM609 690l-19 -123l-366 -432h287v-135h-517l20 123l365 432h-262v135h492z" />
    <glyph glyph-name="zdotaccent" unicode="&#x17c;" horiz-adv-x="456" 
d="M338 548h-125l21 131h125zM456 490l-18 -114l-244 -259h198v-117h-404l18 113l245 259h-175v118h380z" />
    <glyph glyph-name="Zcaron" unicode="&#x17d;" horiz-adv-x="576" 
d="M232 889h92l57 -58l80 58h89l-117 -147h-128zM609 690l-19 -123l-366 -432h287v-135h-517l20 123l365 432h-262v135h492z" />
    <glyph glyph-name="zcaron" unicode="&#x17e;" horiz-adv-x="456" 
d="M139 694h92l57 -58l80 58h89l-117 -147h-128zM456 490l-18 -114l-244 -259h198v-117h-404l18 113l245 259h-175v118h380z" />
    <glyph glyph-name="uni018F" unicode="&#x18f;" horiz-adv-x="658" 
d="M293 -13q-119 0 -180.5 76.5t-61.5 202.5q0 72 15 145h403q-2 73 -36.5 112.5t-102.5 39.5q-51 0 -97.5 -14t-111.5 -45v138q114 61 234 61q134 0 208 -79t74 -223q0 -176 -98 -295t-246 -119zM305 115q53 0 96.5 48.5t59.5 134.5h-246q-3 -28 -3 -53q0 -130 93 -130z
" />
    <glyph glyph-name="florin" unicode="&#x192;" horiz-adv-x="385" 
d="M364 342h-99l-54 -342h-147l55 342h-69l19 123h69l9 54q13 84 56.5 124.5t127.5 40.5q45 0 73 -5v-114q-28 4 -47 4q-57 0 -67 -65l-6 -39h80v-123z" />
    <glyph glyph-name="Aringacute" unicode="&#x1fa;" horiz-adv-x="663" 
d="M630 990l-156 -121h-94l81 151zM444 -7l-22 150h-216l-66 -143h-166l331 663q-29 31 -29 76q0 48 35 80t99 32q65 0 99.5 -32t34.5 -80q0 -57 -43 -88l114 -628zM410 683q25 0 39 15t14 41q0 25 -14 40t-39 15q-24 0 -38.5 -15t-14.5 -40t14.5 -40.5t38.5 -15.5zM372 514
l-108 -238h141z" />
    <glyph glyph-name="aringacute" unicode="&#x1fb;" horiz-adv-x="515" 
d="M545 923l-156 -121h-94l81 151zM339 546q-65 0 -99.5 31.5t-34.5 81.5q0 48 34.5 80t99.5 32q64 0 99 -32t35 -80q0 -50 -35 -81.5t-99 -31.5zM339 603q24 0 38.5 15.5t14.5 40.5t-14.5 40.5t-38.5 15.5t-38.5 -15.5t-14.5 -40.5t14.5 -40.5t38.5 -15.5zM305 173l32 201
q-18 7 -35 7q-51 0 -90 -53.5t-39 -134.5q0 -73 47 -73q34 0 85 53zM299 76q-75 -86 -145 -86q-60 0 -94.5 45t-34.5 124q0 159 85.5 248t207.5 89q86 0 178 -35l-54 -338v-123h-138z" />
    <glyph glyph-name="AEacute" unicode="&#x1fc;" horiz-adv-x="867" 
d="M785 863l-156 -121h-94l81 151zM432 276l46 297l-183 -297h137zM388 0l23 143h-195l-90 -143h-167l445 690h492l-21 -138h-232l-20 -127h171v-137h-193l-24 -150h240l-22 -138h-407z" />
    <glyph glyph-name="aeacute" unicode="&#x1fd;" horiz-adv-x="749" 
d="M617 668l-156 -121h-94l81 151zM723 312q0 -57 -12 -102h-278v-10q4 -104 99 -104q71 0 154 44v-103q-92 -47 -181 -47q-117 0 -171 75q-102 -75 -193 -75q-57 0 -92.5 32t-35.5 92q0 172 294 187l3 16q7 38 -8.5 54t-56.5 16q-61 0 -151 -37v112q101 38 187 38
q100 0 132 -55q61 55 140 55q81 0 125.5 -52t44.5 -136zM591 297q11 105 -56 105q-31 0 -56 -28.5t-37 -76.5h149zM301 138q-6 23 -6 62q0 19 1 28q-136 -14 -136 -89q0 -43 44 -43q39 0 97 42z" />
    <glyph glyph-name="Oslashacute" unicode="&#x1fe;" horiz-adv-x="690" 
d="M618 873l-156 -121h-94l81 151zM327 -13q-116 0 -188 63l-58 -59l-110 25l110 112q-33 68 -33 162q0 96 31 181t89 142q88 90 222 90q116 0 188 -63l58 59l110 -25l-110 -112q33 -68 33 -162q0 -96 -31 -181t-88 -142q-90 -90 -223 -90zM217 274q0 -21 1 -30l260 283
q-28 51 -90 51q-49 0 -89 -40q-35 -35 -58.5 -107t-23.5 -157zM330 112q49 0 89 40q35 35 58.5 107t23.5 157q0 21 -1 31l-260 -284q28 -51 90 -51z" />
    <glyph glyph-name="oslashacute" unicode="&#x1ff;" horiz-adv-x="507" 
d="M495 668l-156 -121h-94l81 151zM229 -10q-78 0 -131 45l-39 -43l-81 20l77 77q-28 51 -28 117q0 126 69.5 210t181.5 84q75 0 130 -45l40 43l79 -20l-76 -76q28 -53 28 -119q0 -125 -69 -209t-181 -84zM166 206q0 -13 1 -18l157 174q-18 28 -53 28q-47 0 -76 -56.5
t-29 -127.5zM235 100q48 0 77 56t29 128q0 14 -1 19l-157 -175q18 -28 52 -28z" />
    <glyph glyph-name="Scommaaccent" unicode="&#x218;" horiz-adv-x="536" 
d="M536 642l-46 -135q-99 65 -170 65q-36 0 -54.5 -17.5t-18.5 -44.5q0 -23 15.5 -39.5t59.5 -40.5q100 -54 138.5 -101t38.5 -110q0 -109 -69.5 -169.5t-181.5 -60.5q-128 0 -247 68l47 135q111 -74 200 -74q39 0 63.5 20.5t24.5 52.5q0 25 -14 41t-54 38
q-107 57 -145.5 101.5t-38.5 114.5q0 93 65 154t174 61q114 0 213 -59zM136 -82l126 23q31 -34 31 -71q0 -78 -110 -146l-91 19q70 67 70 114q0 30 -26 61z" />
    <glyph glyph-name="scommaaccent" unicode="&#x219;" horiz-adv-x="421" 
d="M404 455l-31 -110q-85 47 -145 47q-44 0 -44 -32q0 -14 9.5 -23t38.5 -22q86 -40 119.5 -73t33.5 -91q0 -70 -49.5 -115.5t-138.5 -45.5q-104 0 -203 57l34 111q92 -60 171 -60q25 0 39 10t14 27q0 15 -11.5 25t-45.5 26q-80 37 -112 69t-32 88q0 70 48.5 113.5
t130.5 43.5q89 0 174 -45zM79 -73l126 23q31 -34 31 -71q0 -78 -110 -146l-91 19q70 67 70 114q0 30 -26 61z" />
    <glyph glyph-name="schwa" unicode="&#x259;" horiz-adv-x="478" 
d="M199 -10q-82 0 -128 53t-46 142q0 50 12 95h279q0 114 -100 114q-71 0 -154 -44v103q92 47 182 47q94 0 151.5 -53t57.5 -152q0 -131 -73 -218t-181 -87zM214 88q31 0 55 29t37 76h-148q-11 -105 56 -105z" />
    <glyph glyph-name="circumflex" unicode="&#x2c6;" horiz-adv-x="423" 
d="M421 547h-92l-58 58l-79 -58h-89l117 147h127z" />
    <glyph glyph-name="caron" unicode="&#x2c7;" horiz-adv-x="423" 
d="M120 694h92l57 -58l80 58h89l-117 -147h-128z" />
    <glyph glyph-name="breve" unicode="&#x2d8;" horiz-adv-x="423" 
d="M426 682q-34 -136 -161 -136q-65 0 -98 35.5t-32 100.5l79 14q9 -57 59 -57q47 0 76 57z" />
    <glyph glyph-name="dotaccent" unicode="&#x2d9;" horiz-adv-x="423" 
d="M321 548h-125l21 131h125z" />
    <glyph glyph-name="ring" unicode="&#x2da;" horiz-adv-x="423" 
d="M291 546q-65 0 -99.5 31.5t-34.5 81.5q0 48 34.5 80t99.5 32q64 0 99 -32t35 -80q0 -50 -35 -81.5t-99 -31.5zM291 603q24 0 38.5 15.5t14.5 40.5t-14.5 40.5t-38.5 15.5t-38.5 -15.5t-14.5 -40.5t14.5 -40.5t38.5 -15.5z" />
    <glyph glyph-name="ogonek" unicode="&#x2db;" horiz-adv-x="454" 
d="M247 42l70 -19l-33 -40q-41 -52 -41 -73q0 -25 33 -25q15 0 49 6l-12 -75q-45 -19 -95 -19q-45 0 -68 20t-23 52q0 55 85 139z" />
    <glyph glyph-name="tilde" unicode="&#x2dc;" horiz-adv-x="423" 
d="M435 686q-18 -76 -42.5 -107.5t-62.5 -31.5q-23 0 -63 20q-42 21 -57 21q-21 0 -37 -44l-68 15q18 77 43 108.5t63 31.5q28 0 63 -20q41 -21 57 -21q11 0 19 9.5t18 35.5z" />
    <glyph glyph-name="hungarumlaut" unicode="&#x2dd;" horiz-adv-x="423" 
d="M308 668l-152 -120h-95l87 150zM479 668l-151 -120h-95l94 150z" />
    <glyph glyph-name="commaaccent" unicode="&#x326;" horiz-adv-x="454" 
d="M132 -73l126 23q31 -34 31 -71q0 -78 -110 -146l-91 19q70 67 70 114q0 30 -26 61z" />
    <glyph glyph-name="uni0384" unicode="&#x384;" horiz-adv-x="454" 
d="M400 680l-127 -133h-94l49 150z" />
    <glyph glyph-name="uni0385" unicode="&#x385;" horiz-adv-x="535" 
d="M436 723l-104 -176h-90l50 192zM209 548h-127l20 131h127zM538 548h-127l21 131h127z" />
    <glyph glyph-name="uni0386" unicode="&#x386;" horiz-adv-x="663" 
d="M444 -7l-22 150h-216l-66 -143h-166l347 693h173l121 -670zM189 690l-95 -188h-97l34 188h158zM372 514l-108 -238h141z" />
    <glyph glyph-name="uni0387" unicode="&#x387;" horiz-adv-x="265" 
d="M252 490l-26 -170h-161l26 170h161z" />
    <glyph glyph-name="uni0388" unicode="&#x388;" horiz-adv-x="515" 
d="M97 690l-95 -188h-97l34 188h158zM544 690l-21 -138h-243l-20 -127h182v-137h-204l-24 -150h251l-22 -138h-418l109 690h410z" />
    <glyph glyph-name="uni0389" unicode="&#x389;" horiz-adv-x="675" 
d="M97 690l-95 -188h-97l34 188h158zM685 690l-109 -690h-170l45 280h-214l-44 -280h-170l109 690h170l-42 -261h215l40 261h170z" />
    <glyph glyph-name="uni038A" unicode="&#x38a;" horiz-adv-x="301" 
d="M98 690l-95 -188h-97l34 188h158zM305 690l-109 -690h-170l109 690h170z" />
    <glyph glyph-name="uni038C" unicode="&#x38c;" horiz-adv-x="690" 
d="M327 -13q-131 0 -205 80t-74 223q0 96 31 181t89 142q88 90 222 90q131 0 205 -80t74 -223q0 -96 -31 -181t-88 -142q-90 -90 -223 -90zM117 693l-95 -188h-97l34 188h158zM330 116q47 0 86 39q35 35 58 106t23 155q0 158 -109 158q-48 0 -87 -39q-34 -33 -57 -105
t-23 -156q0 -158 109 -158z" />
    <glyph glyph-name="uni038E" unicode="&#x38e;" horiz-adv-x="631" 
d="M703 690l-305 -437l-41 -253h-170l40 250l-160 419l177 28l97 -282l178 275h184zM53 690l-95 -188h-97l34 188h158z" />
    <glyph glyph-name="uni038F" unicode="&#x38f;" horiz-adv-x="689" 
d="M89 690l-95 -188h-97l34 188h158zM291 119l-38 -119h-254l20 132l106 -3q-83 99 -83 226q0 144 97 245.5t250 101.5q137 0 212.5 -76t75.5 -197q0 -91 -40 -161t-122 -139l104 3l-21 -132h-255v119l38 38q65 65 96.5 125.5t31.5 137.5q0 69 -34.5 110t-95.5 41
q-78 0 -125.5 -66.5t-47.5 -167.5q0 -92 58 -181z" />
    <glyph glyph-name="uni0390" unicode="&#x390;" horiz-adv-x="289" 
d="M310 723l-104 -176h-90l50 192zM83 548h-127l20 131h127zM412 548h-127l21 131h127zM240 9q-43 -16 -91 -16q-119 0 -119 111q0 31 7 73l52 313h147l-54 -326q-3 -17 -3 -32q0 -24 27 -24q16 0 34 6v-105z" />
    <glyph glyph-name="uni0391" unicode="&#x391;" horiz-adv-x="663" 
d="M444 -7l-22 150h-216l-66 -143h-166l347 693h173l121 -670zM372 514l-108 -238h141z" />
    <glyph glyph-name="uni0392" unicode="&#x392;" horiz-adv-x="578" 
d="M563 529q0 -116 -120 -165q99 -44 99 -144q0 -105 -77 -162.5t-209 -57.5h-234l109 690h211q107 0 164 -42.5t57 -118.5zM406 502q0 70 -87 70h-45l-25 -161h46q48 0 79.5 24t31.5 67zM380 218q0 84 -108 84h-40l-30 -185h53q56 0 90.5 26.5t34.5 74.5z" />
    <glyph glyph-name="uni0393" unicode="&#x393;" horiz-adv-x="489" 
d="M131 690h385v-148h-239l-85 -542h-170z" />
    <glyph glyph-name="uni0394" unicode="&#x394;" horiz-adv-x="673" 
d="M588 0h-578v122l306 571h184l122 -566zM375 519l-197 -387h270z" />
    <glyph glyph-name="uni0395" unicode="&#x395;" 
d="M541 690l-21 -138h-243l-20 -127h182v-137h-204l-24 -150h251l-22 -138h-418l109 690h410z" />
    <glyph glyph-name="uni0396" unicode="&#x396;" horiz-adv-x="576" 
d="M609 690l-19 -123l-366 -432h287v-135h-517l20 123l365 432h-262v135h492z" />
    <glyph glyph-name="uni0397" unicode="&#x397;" horiz-adv-x="675" 
d="M684 690l-109 -690h-170l45 280h-214l-44 -280h-170l109 690h170l-42 -261h215l40 261h170z" />
    <glyph glyph-name="uni0398" unicode="&#x398;" horiz-adv-x="690" 
d="M327 -13q-131 0 -205 80t-74 223q0 96 31 181t89 142q88 90 222 90q131 0 205 -80t74 -223q0 -96 -31 -181t-88 -142q-90 -90 -223 -90zM328 110q55 0 95 42q36 35 59.5 106.5t23.5 157.5q0 164 -116 164q-52 0 -96 -42q-35 -36 -58.5 -106.5t-23.5 -157.5
q0 -164 116 -164zM441 280h-185l21 130h185z" />
    <glyph glyph-name="uni0399" unicode="&#x399;" horiz-adv-x="298" 
d="M304 690l-109 -690h-170l109 690h170z" />
    <glyph glyph-name="uni039A" unicode="&#x39a;" horiz-adv-x="619" 
d="M677 690l-272 -333l175 -335l-177 -29l-162 327l-49 -320h-170l109 690h170l-48 -295l229 295h195z" />
    <glyph glyph-name="uni039B" unicode="&#x39b;" horiz-adv-x="656" 
d="M484 693l124 -670l-178 -30l-70 480l-218 -473h-168l350 693h160z" />
    <glyph glyph-name="uni039C" unicode="&#x39c;" horiz-adv-x="866" 
d="M841 690l-59 -690h-172l42 453l-195 -456h-154l-49 456l-102 -453h-146l160 690h215l52 -465l200 465h208z" />
    <glyph glyph-name="uni039D" unicode="&#x39d;" horiz-adv-x="667" 
d="M676 690l-109 -690h-135l-188 417l-67 -417h-155l109 690h160l170 -381l60 381h155z" />
    <glyph glyph-name="uni039E" unicode="&#x39e;" horiz-adv-x="557" 
d="M563 551h-471l22 139h471zM492 286h-405l22 140h383v-140zM486 0h-491l22 139h491z" />
    <glyph glyph-name="uni039F" unicode="&#x39f;" horiz-adv-x="690" 
d="M327 -13q-131 0 -205 80t-74 223q0 96 31 181t89 142q88 90 222 90q131 0 205 -80t74 -223q0 -96 -31 -181t-88 -142q-90 -90 -223 -90zM330 116q47 0 86 39q35 35 58 106t23 155q0 158 -109 158q-48 0 -87 -39q-34 -33 -57 -105t-23 -156q0 -158 109 -158z" />
    <glyph glyph-name="uni03A0" unicode="&#x3a0;" horiz-adv-x="672" 
d="M681 690l-109 -690h-169l86 548h-210l-87 -548h-170l109 690h550z" />
    <glyph glyph-name="uni03A1" unicode="&#x3a1;" horiz-adv-x="562" 
d="M576 484q0 -115 -81.5 -184t-223.5 -69h-44l-36 -231h-169l109 690h192q253 0 253 -206zM411 478q0 88 -103 88h-30l-32 -210h32q63 0 98 32t35 90z" />
    <glyph glyph-name="uni03A3" unicode="&#x3a3;" horiz-adv-x="568" 
d="M244 360l-150 206l19 124h490l-22 -135h-288l147 -204l-212 -216h277v-135h-510l19 123z" />
    <glyph glyph-name="uni03A4" unicode="&#x3a4;" horiz-adv-x="585" 
d="M620 548h-195l-86 -548h-170l87 548h-190l23 142h531v-142z" />
    <glyph glyph-name="uni03A5" unicode="&#x3a5;" horiz-adv-x="631" 
d="M703 690l-305 -437l-41 -253h-170l40 250l-160 419l177 28l97 -282l178 275h184z" />
    <glyph glyph-name="uni03A6" unicode="&#x3a6;" horiz-adv-x="862" 
d="M474 -11h-167l12 77q-137 15 -208.5 82t-71.5 171q0 131 100.5 216t267.5 93l11 73h168l-12 -76q137 -15 208.5 -81.5t71.5 -170.5q0 -132 -100.5 -217t-267.5 -93zM204 324q0 -120 138 -137l50 317q-88 -9 -138 -60t-50 -120zM690 367q0 120 -139 137l-51 -317
q89 9 139.5 59.5t50.5 120.5z" />
    <glyph glyph-name="uni03A7" unicode="&#x3a7;" horiz-adv-x="621" 
d="M402 -7l-94 235l-155 -228h-185l265 361l-138 307l177 29l78 -201l131 194h185l-239 -329l153 -339z" />
    <glyph glyph-name="uni03A8" unicode="&#x3a8;" horiz-adv-x="814" 
d="M453 0h-169l27 176q-115 7 -175.5 60t-60.5 140q0 31 7 72l37 242h165l-39 -246q-5 -33 -5 -50q0 -37 26.5 -57.5t70.5 -20.5l59 374h161l-59 -374q113 5 130 113l42 261h164l-43 -279q-36 -227 -311 -236z" />
    <glyph glyph-name="uni03A9" unicode="&#x3a9;" horiz-adv-x="712" 
d="M310 119l-38 -119h-254l20 132l106 -3q-83 99 -83 226q0 144 97 245.5t250 101.5q137 0 212.5 -76t75.5 -197q0 -91 -40 -161t-122 -139l104 3l-21 -132h-255v119l38 38q65 65 96.5 125.5t31.5 137.5q0 69 -34.5 110t-95.5 41q-78 0 -125.5 -66.5t-47.5 -167.5
q0 -92 58 -181z" />
    <glyph glyph-name="uni03AA" unicode="&#x3aa;" horiz-adv-x="298" 
d="M195 743h-120l20 131h122zM379 743h-121l21 131h121zM304 690l-109 -690h-170l109 690h170z" />
    <glyph glyph-name="uni03AB" unicode="&#x3ab;" horiz-adv-x="631" 
d="M357 740h-120l20 131h122zM541 740h-121l21 131h121zM703 690l-305 -437l-41 -253h-170l40 250l-160 419l177 28l97 -282l178 275h184z" />
    <glyph glyph-name="uni03AC" unicode="&#x3ac;" horiz-adv-x="607" 
d="M496 684l-127 -133h-94l49 150zM216 110q25 0 47 25.5t57 95.5l10 17l-1 3q-15 79 -27.5 103.5t-37.5 24.5q-36 0 -65.5 -55.5t-29.5 -132.5q0 -81 47 -81zM468 -7q-48 0 -73.5 25.5t-36.5 82.5q-39 -60 -79 -85.5t-94 -25.5q-79 0 -120 51.5t-41 144.5q0 133 68.5 223
t176.5 90q57 0 92.5 -28t53.5 -89l56 108h147l-142 -261l14 -77q7 -40 41 -40q17 0 41 7l-34 -114q-32 -12 -70 -12z" />
    <glyph glyph-name="uni03AD" unicode="&#x3ad;" horiz-adv-x="469" 
d="M456 680l-127 -133h-94l49 150zM407 31q-100 -41 -206 -41q-89 0 -137 36t-48 97q0 92 105 131q-60 25 -60 96q0 67 55.5 108t154.5 41q100 0 193 -40l-36 -110q-87 37 -155 37q-37 0 -56 -12.5t-19 -33.5q0 -41 67 -41h93v-100h-112q-42 0 -63.5 -14.5t-21.5 -37.5
q0 -42 64 -42q77 0 182 44v-118z" />
    <glyph glyph-name="uni03AE" unicode="&#x3ae;" horiz-adv-x="520" 
d="M472 680l-127 -133h-94l49 150zM491 391q0 -18 -4 -46l-81 -508l-150 -23l77 489q3 27 3 32q0 34 -31 34t-96 -62l-48 -307h-147l58 367v123h138l6 -90q49 48 89.5 74t85.5 26q48 0 74 -29.5t26 -79.5z" />
    <glyph glyph-name="uni03AF" unicode="&#x3af;" horiz-adv-x="289" 
d="M347 680l-127 -133h-94l49 150zM240 9q-43 -16 -91 -16q-119 0 -119 111q0 31 7 73l52 313h147l-54 -326q-3 -17 -3 -32q0 -24 27 -24q16 0 34 6v-105z" />
    <glyph glyph-name="uni03B0" unicode="&#x3b0;" 
d="M435 723l-104 -176h-90l50 192zM208 548h-127l20 131h127zM537 548h-127l21 131h127zM456 184q-32 -194 -228 -194q-90 0 -141 44t-51 119q0 28 8 78l40 259h147l-44 -282q-3 -24 -3 -39q0 -26 13.5 -41.5t39.5 -15.5q61 0 74 87l45 291h147z" />
    <glyph glyph-name="uni03B1" unicode="&#x3b1;" horiz-adv-x="607" 
d="M216 110q25 0 47 25.5t57 95.5l10 17l-1 3q-15 79 -27.5 103.5t-37.5 24.5q-36 0 -65.5 -55.5t-29.5 -132.5q0 -81 47 -81zM468 -7q-48 0 -73.5 25.5t-36.5 82.5q-39 -60 -79 -85.5t-94 -25.5q-79 0 -120 51.5t-41 144.5q0 133 68.5 223t176.5 90q57 0 92.5 -28t53.5 -89
l56 108h147l-142 -261l14 -77q7 -40 41 -40q17 0 41 7l-34 -114q-32 -12 -70 -12z" />
    <glyph glyph-name="uni03B2" unicode="&#x3b2;" horiz-adv-x="557" 
d="M290 111q38 0 61.5 23t23.5 61q0 36 -22 60.5t-70 46.5v90q58 20 90 55.5t32 78.5q0 31 -18 51t-50 20q-85 0 -106 -135l-48 -306q55 -45 107 -45zM133 -163l-149 -23l104 664q18 116 82.5 177.5t170.5 61.5q94 0 150 -53t56 -133q0 -133 -140 -187q113 -51 113 -162
q0 -84 -59 -138t-150 -54q-80 0 -147 44z" />
    <glyph glyph-name="uni03B3" unicode="&#x3b3;" horiz-adv-x="489" 
d="M517 490l-49 -97q-122 -245 -158 -328.5t-50 -166.5l-9 -58l-151 -26l10 70q13 101 3.5 192.5t-53.5 313.5l-17 86l152 21l12 -74q26 -175 23 -286q32 108 114 288l30 65h143z" />
    <glyph glyph-name="uni03B4" unicode="&#x3b4;" horiz-adv-x="510" 
d="M480 245q0 -112 -67 -183.5t-175 -71.5q-102 0 -158 58.5t-56 149.5q0 173 175 248q-56 53 -56 118q0 70 48 111.5t132 41.5q96 0 185 -46l-21 -123q-93 53 -153 53q-52 0 -52 -37q0 -16 11.5 -31t53.5 -49q73 -59 103 -112.5t30 -126.5zM242 105q41 0 68 38t27 98
q0 75 -58 129q-110 -54 -110 -167q0 -46 19.5 -72t53.5 -26z" />
    <glyph glyph-name="uni03B5" unicode="&#x3b5;" horiz-adv-x="469" 
d="M407 31q-100 -41 -206 -41q-89 0 -137 36t-48 97q0 92 105 131q-60 25 -60 96q0 67 55.5 108t154.5 41q100 0 193 -40l-36 -110q-87 37 -155 37q-37 0 -56 -12.5t-19 -33.5q0 -41 67 -41h93v-100h-112q-42 0 -63.5 -14.5t-21.5 -37.5q0 -42 64 -42q77 0 182 44v-118z" />
    <glyph glyph-name="uni03B6" unicode="&#x3b6;" horiz-adv-x="454" 
d="M18 167q0 58 31.5 110t111.5 137l170 184h-215l34 116h344v-101l-232 -269q-54 -63 -74 -93.5t-19 -55.5q0 -28 21 -43t83 -35q78 -26 102.5 -45.5t24.5 -56.5q0 -39 -25.5 -85t-84.5 -116l-127 16q50 73 65.5 99t15.5 41q0 11 -8.5 17t-32.5 13q-104 31 -144.5 67.5
t-40.5 99.5z" />
    <glyph glyph-name="uni03B7" unicode="&#x3b7;" horiz-adv-x="520" 
d="M491 391q0 -18 -4 -46l-81 -508l-150 -23l77 489q3 27 3 32q0 34 -31 34t-96 -62l-48 -307h-147l58 367v123h138l6 -90q49 48 89.5 74t85.5 26q48 0 74 -29.5t26 -79.5z" />
    <glyph glyph-name="uni03B8" unicode="&#x3b8;" horiz-adv-x="588" 
d="M269 -10q-110 0 -164.5 77.5t-54.5 222.5q0 104 32 200.5t88 152.5q76 74 177 74q110 0 164.5 -77.5t54.5 -222.5q0 -104 -32 -200.5t-88 -152.5q-76 -74 -177 -74zM269 568q-46 -50 -66 -152h224v21q0 166 -87 166q-39 0 -71 -35zM276 104q39 0 71 35q46 51 67 157h-225
v-27q0 -165 87 -165z" />
    <glyph glyph-name="uni03B9" unicode="&#x3b9;" horiz-adv-x="289" 
d="M240 9q-43 -16 -91 -16q-119 0 -119 111q0 31 7 73l52 313h147l-54 -326q-3 -17 -3 -32q0 -24 27 -24q16 0 34 6v-105z" />
    <glyph glyph-name="uni03BA" unicode="&#x3ba;" horiz-adv-x="497" 
d="M302 -7l-109 233l-34 -226h-147l78 490h147l-34 -209l69 87q58 75 103 102t121 26v-133q-38 -1 -63.5 -17.5t-60.5 -57.5l-38 -43l116 -228z" />
    <glyph glyph-name="uni03BB" unicode="&#x3bb;" horiz-adv-x="501" 
d="M302 -8l-37 310l-135 -302h-146l244 489l2 4l-5 30q-7 38 -23 54.5t-46 16.5q-15 0 -43 -6l18 119q32 9 65 9q78 0 114 -39.5t53 -139.5l89 -524z" />
    <glyph glyph-name="uni03BC" unicode="&#x3bc;" horiz-adv-x="563" 
d="M130 -163l-147 -23l107 676h147l-48 -304q-3 -24 -3 -31q0 -34 31 -34q32 0 95 62l49 307h147l-52 -326q-4 -22 -4 -32q0 -24 27 -24q17 0 35 6v-105q-43 -16 -95 -16q-91 0 -109 77q0 2 -1 3q-65 -84 -121 -83q-35 1 -56 29q12 -79 3 -142z" />
    <glyph glyph-name="uni03BD" unicode="&#x3bd;" horiz-adv-x="499" 
d="M337 490h150q1 -145 -48.5 -252t-164.5 -240h-147l-82 478l153 21l42 -342q54 72 75.5 149t21.5 186z" />
    <glyph glyph-name="uni03BE" unicode="&#x3be;" horiz-adv-x="472" 
d="M410 13q0 -36 -26 -82t-84 -117l-128 16q50 72 65.5 98.5t15.5 40.5t-9.5 19.5t-40.5 16.5q-105 36 -144 71t-39 102q0 68 45 115t127 71q-78 30 -78 103q0 82 102 131h-115l35 116h367v-115h-34q-101 0 -154.5 -32t-53.5 -81q0 -72 107 -72h54v-115h-79
q-83 0 -129.5 -27.5t-46.5 -68.5q0 -28 21.5 -44.5t89.5 -38.5q79 -25 105.5 -46t26.5 -61z" />
    <glyph glyph-name="uni03BF" unicode="&#x3bf;" horiz-adv-x="507" 
d="M479 283q0 -125 -69 -209t-181 -84q-96 0 -149 59.5t-53 156.5q0 126 69.5 210t181.5 84q94 0 147.5 -59.5t53.5 -157.5zM334 283q0 100 -63 100q-44 0 -71 -54t-27 -122q0 -100 62 -100q45 0 72 53.5t27 122.5z" />
    <glyph glyph-name="uni03C0" unicode="&#x3c0;" horiz-adv-x="599" 
d="M533 8q-44 -14 -90 -14q-116 0 -116 104q0 21 5 61l34 215h-105l-58 -374h-147l58 371h-66v119h559l-19 -119h-76l-32 -207q-3 -18 -3 -30q0 -26 26 -26q10 0 30 4v-104z" />
    <glyph glyph-name="uni03C1" unicode="&#x3c1;" 
d="M191 252l-20 -129q22 -11 46 -11q53 0 87.5 50t34.5 123q0 87 -59 87q-69 0 -89 -120zM-23 -186l71 447q18 111 78 175t158 64q99 0 150 -59t51 -155q0 -124 -69.5 -206.5t-181.5 -82.5q-41 0 -81 15l-26 -175z" />
    <glyph glyph-name="uni03C2" unicode="&#x3c2;" horiz-adv-x="435" 
d="M171 13q-78 37 -111 79t-33 120q0 118 66.5 203t185.5 85q82 0 154 -45l-42 -124q-54 41 -101 41q-50 0 -82.5 -43.5t-32.5 -102.5q0 -40 19 -63t70 -48q56 -28 77 -49t21 -53q0 -37 -26 -82.5t-85 -116.5l-127 16q49 71 65.5 100.5t16.5 46.5q0 22 -35 36z" />
    <glyph glyph-name="uni03C3" unicode="&#x3c3;" horiz-adv-x="522" 
d="M236 107q43 0 69 45t26 112q0 66 -22 116h-1q-62 0 -98.5 -50t-36.5 -127q0 -47 17.5 -71.5t45.5 -24.5zM474 236q0 -98 -68 -172t-175 -74q-95 0 -149.5 59.5t-54.5 155.5q0 127 76 206t202 79h208v-119h-75q36 -55 36 -135z" />
    <glyph glyph-name="uni03C4" unicode="&#x3c4;" horiz-adv-x="469" 
d="M458 371h-146l-29 -185q-4 -28 -4 -40q0 -37 37 -37q28 0 73 15v-110q-58 -21 -123 -21q-66 0 -101.5 31.5t-35.5 89.5q0 22 7 68l30 189h-132l19 119h405v-119z" />
    <glyph glyph-name="uni03C5" unicode="&#x3c5;" 
d="M456 184q-32 -194 -228 -194q-90 0 -141 44t-51 119q0 28 8 78l40 259h147l-44 -282q-3 -24 -3 -39q0 -26 13.5 -41.5t39.5 -15.5q61 0 74 87l45 291h147z" />
    <glyph glyph-name="uni03C6" unicode="&#x3c6;" horiz-adv-x="690" 
d="M203 -186l29 181q-97 9 -150.5 66t-53.5 153q0 149 132 285l138 -26q-68 -71 -99 -130.5t-31 -120.5q0 -103 85 -114l31 200q14 89 66 140.5t137 51.5t134 -51t49 -141q0 -135 -83.5 -221t-212.5 -93l-24 -158zM421 300l-32 -192q65 5 105 60.5t40 147.5q0 36 -13 54.5
t-35 18.5q-52 0 -65 -89z" />
    <glyph glyph-name="uni03C7" unicode="&#x3c7;" horiz-adv-x="504" 
d="M287 -183l-69 235l-141 -228h-145l228 344l-109 310l154 19l60 -202l118 195h146l-206 -313l119 -341z" />
    <glyph glyph-name="uni03C8" unicode="&#x3c8;" horiz-adv-x="732" 
d="M224 -186l29 181q-107 5 -160 52.5t-53 129.5q0 23 7 76l38 237h145l-39 -247q-5 -37 -5 -50q0 -38 20.5 -57t66.5 -21l93 585l146 22l-96 -608q54 2 83 30t38 85l41 261h144l-42 -271q-18 -111 -86 -167t-196 -58l-25 -158z" />
    <glyph glyph-name="uni03C9" unicode="&#x3c9;" horiz-adv-x="770" 
d="M518 -10q-106 0 -149 98q-68 -98 -172 -98q-77 0 -121.5 50.5t-44.5 141.5q0 150 144 318l136 -33q-132 -170 -132 -278q0 -35 13.5 -53t36.5 -18q70 0 92 137l24 145h138l-23 -141q-5 -35 -5 -62q0 -79 56 -79q35 0 57 36.5t22 103.5q0 89 -51 209l139 33
q54 -127 54 -231q0 -131 -59 -205t-155 -74z" />
    <glyph glyph-name="uni03CA" unicode="&#x3ca;" horiz-adv-x="289" 
d="M149 548h-120l20 131h122zM333 548h-121l21 131h121zM240 9q-43 -16 -91 -16q-119 0 -119 111q0 31 7 73l52 313h147l-54 -326q-3 -17 -3 -32q0 -24 27 -24q16 0 34 6v-105z" />
    <glyph glyph-name="uni03CB" unicode="&#x3cb;" 
d="M275 548h-120l20 131h122zM459 548h-121l21 131h121zM456 184q-32 -194 -228 -194q-90 0 -141 44t-51 119q0 28 8 78l40 259h147l-44 -282q-3 -24 -3 -39q0 -26 13.5 -41.5t39.5 -15.5q61 0 74 87l45 291h147z" />
    <glyph glyph-name="uni03CC" unicode="&#x3cc;" horiz-adv-x="507" 
d="M466 680l-127 -133h-94l49 150zM479 283q0 -125 -69 -209t-181 -84q-96 0 -149 59.5t-53 156.5q0 126 69.5 210t181.5 84q94 0 147.5 -59.5t53.5 -157.5zM334 283q0 100 -63 100q-44 0 -71 -54t-27 -122q0 -100 62 -100q45 0 72 53.5t27 122.5z" />
    <glyph glyph-name="uni03CD" unicode="&#x3cd;" 
d="M473 680l-127 -133h-94l49 150zM456 184q-32 -194 -228 -194q-90 0 -141 44t-51 119q0 28 8 78l40 259h147l-44 -282q-3 -24 -3 -39q0 -26 13.5 -41.5t39.5 -15.5q61 0 74 87l45 291h147z" />
    <glyph glyph-name="uni03CE" unicode="&#x3ce;" horiz-adv-x="770" 
d="M601 680l-127 -133h-94l49 150zM518 -10q-106 0 -149 98q-68 -98 -172 -98q-77 0 -121.5 50.5t-44.5 141.5q0 150 144 318l136 -33q-132 -170 -132 -278q0 -35 13.5 -53t36.5 -18q70 0 92 137l24 145h138l-23 -141q-5 -35 -5 -62q0 -79 56 -79q35 0 57 36.5t22 103.5
q0 89 -51 209l139 33q54 -127 54 -231q0 -131 -59 -205t-155 -74z" />
    <glyph glyph-name="uni0400" unicode="&#x400;" 
d="M395 742h-93l-128 121l183 30zM541 690l-21 -138h-243l-20 -127h182v-137h-204l-24 -150h251l-22 -138h-418l109 690h410z" />
    <glyph glyph-name="uni0401" unicode="&#x401;" 
d="M312 743h-120l20 131h122zM496 743h-121l21 131h121zM541 690l-21 -138h-243l-20 -127h182v-137h-204l-24 -150h251l-22 -138h-418l109 690h410z" />
    <glyph glyph-name="uni0402" unicode="&#x402;" horiz-adv-x="752" 
d="M442 -7v126q117 13 117 95q0 74 -93 74q-37 0 -85 -10l-43 -278h-170l86 548h-188l23 142h531v-142h-196l-21 -133q51 10 103 10q100 0 158 -52t58 -144q0 -110 -73.5 -172t-206.5 -64z" />
    <glyph glyph-name="uni0403" unicode="&#x403;" horiz-adv-x="489" 
d="M522 863l-156 -121h-94l81 151zM131 690h385v-148h-239l-85 -542h-170z" />
    <glyph glyph-name="uni0404" unicode="&#x404;" horiz-adv-x="587" 
d="M518 31q-84 -42 -181 -42q-137 0 -213 79.5t-76 226.5q0 178 101 292.5t263 114.5q113 0 192 -55l-44 -142q-70 56 -144 56q-68 0 -115.5 -39.5t-69.5 -105.5l234 2v-134l-250 3q1 -79 39.5 -118t104.5 -39q76 0 159 46v-145z" />
    <glyph glyph-name="uni0405" unicode="&#x405;" horiz-adv-x="536" 
d="M536 642l-46 -135q-99 65 -170 65q-36 0 -54.5 -17.5t-18.5 -44.5q0 -23 15.5 -39.5t59.5 -40.5q100 -54 138.5 -101t38.5 -110q0 -109 -69.5 -169.5t-181.5 -60.5q-128 0 -247 68l47 135q111 -74 200 -74q39 0 63.5 20.5t24.5 52.5q0 25 -14 41t-54 38
q-107 57 -145.5 101.5t-38.5 114.5q0 93 65 154t174 61q114 0 213 -59z" />
    <glyph glyph-name="uni0406" unicode="&#x406;" horiz-adv-x="298" 
d="M304 690l-109 -690h-170l109 690h170z" />
    <glyph glyph-name="uni0407" unicode="&#x407;" horiz-adv-x="298" 
d="M195 743h-120l20 131h122zM379 743h-121l21 131h121zM304 690l-109 -690h-170l109 690h170z" />
    <glyph glyph-name="uni0408" unicode="&#x408;" horiz-adv-x="421" 
d="M434 690l-75 -477q-19 -118 -81.5 -168.5t-173.5 -50.5q-57 0 -103 8v145q42 -10 84 -10q45 0 72.5 23t36.5 82l71 448h169z" />
    <glyph glyph-name="uni0409" unicode="&#x409;" horiz-adv-x="982" 
d="M-2 -13v145q78 14 116 65.5t75 182.5l87 310h439l-37 -228h24q124 0 189 -52t65 -152q0 -121 -84.5 -189.5t-230.5 -68.5h-204l87 551h-121l-62 -220q-51 -181 -123.5 -256t-219.5 -88zM790 247q0 91 -104 91h-29l-33 -214h31q61 0 98 33t37 90z" />
    <glyph glyph-name="uni040A" unicode="&#x40a;" horiz-adv-x="940" 
d="M749 247q0 91 -104 91h-29l-33 -214h31q61 0 98 33t37 90zM192 0h-170l109 690h170l-42 -261h205l41 261h168l-36 -228h24q124 0 189 -52t65 -152q0 -121 -84.5 -189.5t-230.5 -68.5h-204l44 280h-204z" />
    <glyph glyph-name="uni040B" unicode="&#x40b;" horiz-adv-x="765" 
d="M448 279q-34 0 -67 -6l-43 -273h-170l86 548h-188l23 142h531v-142h-196l-21 -129q44 6 87 6q106 0 164.5 -46t58.5 -140q0 -28 -7 -82l-25 -157h-168l25 159q5 40 5 52q0 68 -95 68z" />
    <glyph glyph-name="uni040C" unicode="&#x40c;" horiz-adv-x="619" 
d="M594 860l-156 -121h-94l81 151zM677 690l-272 -333l175 -335l-177 -29l-162 327l-49 -320h-170l109 690h170l-48 -295l229 295h195z" />
    <glyph glyph-name="uni040D" unicode="&#x40d;" horiz-adv-x="680" 
d="M469 739h-93l-128 121l183 30zM22 0l109 690h158l-63 -399l292 399h171l-109 -690h-158l66 420l-310 -420h-156z" />
    <glyph glyph-name="uni040E" unicode="&#x40e;" horiz-adv-x="637" 
d="M579 874q-34 -136 -161 -136q-65 0 -98 35.5t-32 100.5l79 14q9 -57 59 -57q48 0 76 57zM56 -10v143q129 1 185 75l-153 465l174 24l91 -324l169 317h185l-287 -480q-71 -121 -156 -170t-208 -50z" />
    <glyph glyph-name="uni040F" unicode="&#x40f;" horiz-adv-x="672" 
d="M352 -143l-164 -19l28 162h-194l109 690h170l-87 -548h211l87 548h169l-109 -690h-196z" />
    <glyph glyph-name="uni0410" unicode="&#x410;" horiz-adv-x="663" 
d="M444 -7l-22 150h-216l-66 -143h-166l347 693h173l121 -670zM372 514l-108 -238h141z" />
    <glyph glyph-name="uni0411" unicode="&#x411;" horiz-adv-x="563" 
d="M131 690h406v-143h-268l-18 -119h37q122 0 182.5 -48.5t60.5 -137.5q0 -112 -77 -177t-218 -65h-214zM369 226q0 76 -98 76h-40l-29 -180h40q58 0 92.5 27.5t34.5 76.5z" />
    <glyph glyph-name="uni0412" unicode="&#x412;" horiz-adv-x="578" 
d="M563 529q0 -116 -120 -165q99 -44 99 -144q0 -105 -77 -162.5t-209 -57.5h-234l109 690h211q107 0 164 -42.5t57 -118.5zM406 502q0 70 -87 70h-45l-25 -161h46q48 0 79.5 24t31.5 67zM380 218q0 84 -108 84h-40l-30 -185h53q56 0 90.5 26.5t34.5 74.5z" />
    <glyph glyph-name="uni0413" unicode="&#x413;" horiz-adv-x="489" 
d="M131 690h385v-148h-239l-85 -542h-170z" />
    <glyph glyph-name="uni0414" unicode="&#x414;" horiz-adv-x="742" 
d="M-46 -155l46 287q106 99 161.5 185.5t92.5 221.5l42 151h421l-85 -541h80l-47 -292l-164 -19l26 162h-388l-24 -155h-161zM463 142l65 413h-111l-18 -69q-31 -114 -75.5 -193.5t-117.5 -150.5h257z" />
    <glyph glyph-name="uni0415" unicode="&#x415;" 
d="M541 690l-21 -138h-243l-20 -127h182v-137h-204l-24 -150h251l-22 -138h-418l109 690h410z" />
    <glyph glyph-name="uni0416" unicode="&#x416;" horiz-adv-x="938" 
d="M730 -7l-166 335l-48 -328h-170l57 328l-242 -328h-191l285 370l-163 299l168 28l154 -300l41 293h170l-51 -298l229 298h192l-271 -334l174 -335z" />
    <glyph glyph-name="uni0417" unicode="&#x417;" horiz-adv-x="558" 
d="M240 -12q-132 0 -239 60l43 133q101 -55 190 -55q54 0 86 24.5t32 63.5q0 74 -121 74h-78v130h98q67 0 102 22.5t35 60.5q0 64 -86 64t-197 -60v142q102 55 225 55q107 0 165 -45t58 -125q0 -133 -149 -182q108 -37 108 -145q0 -101 -77 -159t-195 -58z" />
    <glyph glyph-name="uni0418" unicode="&#x418;" horiz-adv-x="680" 
d="M22 0l109 690h158l-63 -399l292 399h171l-109 -690h-158l66 420l-310 -420h-156z" />
    <glyph glyph-name="uni0419" unicode="&#x419;" horiz-adv-x="680" 
d="M584 874q-34 -136 -161 -136q-65 0 -98 35.5t-32 100.5l79 14q9 -57 59 -57q47 0 76 57zM22 0l109 690h158l-63 -399l292 399h171l-109 -690h-158l66 420l-310 -420h-156z" />
    <glyph glyph-name="uni041A" unicode="&#x41a;" horiz-adv-x="619" 
d="M677 690l-272 -333l175 -335l-177 -29l-162 327l-49 -320h-170l109 690h170l-48 -295l229 295h195z" />
    <glyph glyph-name="uni041B" unicode="&#x41b;" horiz-adv-x="707" 
d="M716 690l-109 -690h-170l88 551h-122l-62 -220q-51 -183 -123 -258.5t-220 -85.5v145q78 14 116 65.5t75 182.5l87 310h440z" />
    <glyph glyph-name="uni041C" unicode="&#x41c;" horiz-adv-x="866" 
d="M841 690l-59 -690h-172l42 453l-195 -456h-154l-49 456l-102 -453h-146l160 690h215l52 -465l200 465h208z" />
    <glyph glyph-name="uni041D" unicode="&#x41d;" horiz-adv-x="675" 
d="M684 690l-109 -690h-170l45 280h-214l-44 -280h-170l109 690h170l-42 -261h215l40 261h170z" />
    <glyph glyph-name="uni041E" unicode="&#x41e;" horiz-adv-x="690" 
d="M327 -13q-131 0 -205 80t-74 223q0 96 31 181t89 142q88 90 222 90q131 0 205 -80t74 -223q0 -96 -31 -181t-88 -142q-90 -90 -223 -90zM330 116q47 0 86 39q35 35 58 106t23 155q0 158 -109 158q-48 0 -87 -39q-34 -33 -57 -105t-23 -156q0 -158 109 -158z" />
    <glyph glyph-name="uni041F" unicode="&#x41f;" horiz-adv-x="672" 
d="M681 690l-109 -690h-169l86 548h-210l-87 -548h-170l109 690h550z" />
    <glyph glyph-name="uni0420" unicode="&#x420;" horiz-adv-x="562" 
d="M576 484q0 -115 -81.5 -184t-223.5 -69h-44l-36 -231h-169l109 690h192q253 0 253 -206zM411 478q0 88 -103 88h-30l-32 -210h32q63 0 98 32t35 90z" />
    <glyph glyph-name="uni0421" unicode="&#x421;" horiz-adv-x="573" 
d="M592 647l-45 -144q-66 55 -135 55q-86 0 -140.5 -77t-54.5 -182q0 -84 38 -127t104 -43q70 0 146 43v-143q-75 -40 -176 -40q-130 0 -207 75.5t-77 217.5q0 185 104.5 302.5t258.5 117.5q104 0 184 -55z" />
    <glyph glyph-name="uni0422" unicode="&#x422;" horiz-adv-x="585" 
d="M620 548h-195l-86 -548h-170l87 548h-190l23 142h531v-142z" />
    <glyph glyph-name="uni0423" unicode="&#x423;" horiz-adv-x="637" 
d="M56 -10v143q129 1 185 75l-153 465l174 24l91 -324l169 317h185l-287 -480q-71 -121 -156 -170t-208 -50z" />
    <glyph glyph-name="uni0424" unicode="&#x424;" horiz-adv-x="862" 
d="M474 -11h-167l12 77q-137 15 -208.5 82t-71.5 171q0 131 100.5 216t267.5 93l11 73h168l-12 -76q137 -15 208.5 -81.5t71.5 -170.5q0 -132 -100.5 -217t-267.5 -93zM204 324q0 -120 138 -137l50 317q-88 -9 -138 -60t-50 -120zM690 367q0 120 -139 137l-51 -317
q89 9 139.5 59.5t50.5 120.5z" />
    <glyph glyph-name="uni0425" unicode="&#x425;" horiz-adv-x="621" 
d="M402 -7l-94 235l-155 -228h-185l265 361l-138 307l177 29l78 -201l131 194h185l-239 -329l153 -339z" />
    <glyph glyph-name="uni0426" unicode="&#x426;" horiz-adv-x="703" 
d="M463 -162l26 162h-467l109 690h170l-87 -548h208l87 548h170l-85 -541h79l-46 -292z" />
    <glyph glyph-name="uni0427" unicode="&#x427;" horiz-adv-x="619" 
d="M520 0h-170l36 220q-45 -6 -88 -6q-106 0 -164.5 45.5t-58.5 139.5q0 27 7 83l33 208h169l-34 -211q-5 -38 -5 -52q0 -68 95 -68q34 0 67 6l52 325h170z" />
    <glyph glyph-name="uni0428" unicode="&#x428;" horiz-adv-x="965" 
d="M213 141h168l87 549h169l-87 -549h168l87 549h169l-109 -690h-843l109 690h169z" />
    <glyph glyph-name="uni0429" unicode="&#x429;" horiz-adv-x="999" 
d="M758 -162l26 162h-762l109 690h169l-87 -549h168l87 549h169l-87 -549h168l87 549h169l-85 -541h79l-46 -292z" />
    <glyph glyph-name="uni042A" unicode="&#x42a;" horiz-adv-x="693" 
d="M352 0h-204l87 548h-171l23 142h339l-37 -228h24q124 0 189 -52t65 -152q0 -121 -84.5 -189.5t-230.5 -68.5zM501 247q0 91 -104 91h-29l-33 -214h31q61 0 98 33t37 90z" />
    <glyph glyph-name="uni042B" unicode="&#x42b;" horiz-adv-x="845" 
d="M300 690l-37 -228h24q254 0 254 -208q0 -117 -84 -185.5t-228 -68.5h-207l109 690h169zM851 690l-109 -690h-170l109 690h170zM375 249q0 89 -103 89h-30l-33 -214h31q61 0 98 33.5t37 91.5z" />
    <glyph glyph-name="uni042C" unicode="&#x42c;" horiz-adv-x="567" 
d="M300 690l-37 -228h24q124 0 189 -52t65 -152q0 -121 -84.5 -189.5t-230.5 -68.5h-204l109 690h169zM375 247q0 91 -104 91h-29l-33 -214h31q61 0 98 33t37 90z" />
    <glyph glyph-name="uni042D" unicode="&#x42d;" horiz-adv-x="587" 
d="M204 -12q-114 0 -201 59l45 141q76 -58 152 -58q70 0 118 42.5t68 113.5l-234 -2v134l246 -2q-4 72 -42.5 108t-103.5 36q-71 0 -149 -42v145q78 38 175 38q136 0 212.5 -79.5t76.5 -226.5q0 -189 -113 -305q-99 -102 -250 -102z" />
    <glyph glyph-name="uni042E" unicode="&#x42e;" horiz-adv-x="957" 
d="M595 -13q-121 0 -192 77.5t-74 214.5h-93l-44 -279h-170l109 690h170l-42 -262h88q30 116 100 186q89 89 221 89q125 0 196 -80t71 -222q0 -96 -31 -182.5t-87 -142.5q-89 -89 -222 -89zM660 574q-44 0 -80 -36q-34 -34 -57.5 -107.5t-23.5 -158.5q0 -156 103 -156
q44 0 80 36q34 34 58 107.5t24 158.5q0 156 -104 156z" />
    <glyph glyph-name="uni042F" unicode="&#x42f;" horiz-adv-x="604" 
d="M251 447q0 -87 106 -87h39l31 201h-39q-63 0 -100 -30t-37 -84zM376 237h-41l-183 -244l-174 30l205 255q-96 51 -96 166t82.5 180.5t227.5 65.5h216l-109 -690h-167z" />
    <glyph glyph-name="uni0430" unicode="&#x430;" horiz-adv-x="515" 
d="M305 173l32 201q-18 7 -35 7q-51 0 -90 -53.5t-39 -134.5q0 -73 47 -73q34 0 85 53zM299 76q-75 -86 -145 -86q-60 0 -94.5 45t-34.5 124q0 159 85.5 248t207.5 89q86 0 178 -35l-54 -338v-123h-138z" />
    <glyph glyph-name="uni0431" unicode="&#x431;" horiz-adv-x="521" 
d="M232 -10q-189 0 -189 246q0 119 31.5 225.5t81.5 156.5q35 35 78 52t122 30l129 22l18 -126l-142 -24q-69 -11 -99 -41q-28 -28 -46 -89q70 47 143 47q67 0 101 -46t33 -129q-1 -142 -73 -233t-188 -91zM244 107q43 0 71.5 55.5t29.5 128.5q0 79 -50 79q-40 0 -101 -40
q-6 -51 -6 -109q0 -114 56 -114z" />
    <glyph glyph-name="uni0432" unicode="&#x432;" horiz-adv-x="498" 
d="M218 -10q-96 0 -204 31l72 452q106 27 199 27q89 -1 139 -35.5t51 -93.5q0 -44 -26 -77t-69 -49q77 -28 77 -101q0 -68 -64.5 -111t-174.5 -43zM256 289q39 0 62.5 16.5t23.5 46.5q0 49 -69 49q-31 0 -65 -8l-16 -104h64zM221 89q44 0 71 17.5t27 49.5q0 51 -75 51h-65
l-18 -111q30 -7 60 -7z" />
    <glyph glyph-name="uni0433" unicode="&#x433;" horiz-adv-x="432" 
d="M84 452q88 48 182 48q76 0 115 -35t39 -95q0 -68 -41 -107.5t-129 -69.5q-63 -21 -81 -34t-18 -32q0 -30 43 -30q67 0 176 60v-114q-98 -53 -199 -53q-80 0 -121.5 33.5t-41.5 97.5q0 62 40 101t130 72q62 24 81 37.5t19 32.5q0 27 -38 27q-54 0 -156 -51v112z" />
    <glyph glyph-name="uni0434" unicode="&#x434;" horiz-adv-x="519" 
d="M213 -10q-89 0 -137 55.5t-48 145.5q0 127 68.5 213.5t176.5 86.5q48 0 87 -16v8q0 62 -22 91.5t-76 29.5q-35 0 -74 -14l27 116q38 11 81 11q110 0 158 -58.5t48 -186.5q0 -129 -32.5 -241.5t-93.5 -173.5q-67 -67 -163 -67zM226 106q27 0 48 23q56 56 79 237
q-29 14 -63 14q-38 0 -66 -31t-40.5 -74t-12.5 -88q0 -81 55 -81z" />
    <glyph glyph-name="uni0435" unicode="&#x435;" horiz-adv-x="478" 
d="M264 402q-31 0 -55 -29t-37 -76h148q11 105 -56 105zM416 37q-92 -47 -182 -47q-94 0 -151.5 53t-57.5 152q0 131 73 218t181 87q82 0 128 -53t46 -142q0 -50 -12 -95h-279q0 -114 100 -114q71 0 154 44v-103z" />
    <glyph glyph-name="uni0436" unicode="&#x436;" horiz-adv-x="733" 
d="M547 -7l-115 231l-32 -224h-147l40 224l-166 -224h-159l201 262l-117 213l145 22l106 -213l30 206h146l-36 -202l158 202h159l-194 -241l127 -234z" />
    <glyph glyph-name="uni0437" unicode="&#x437;" horiz-adv-x="466" 
d="M200 -10q-105 0 -202 50l36 110q90 -46 162 -46q38 0 59 14t21 38q0 43 -67 43h-84v100h84q87 0 87 49q0 38 -58 38q-66 0 -164 -36v114q91 35 189 35q90 0 136 -33.5t45 -91.5q0 -90 -100 -127q75 -27 75 -102q0 -71 -57.5 -113t-161.5 -42z" />
    <glyph glyph-name="uni0438" unicode="&#x438;" horiz-adv-x="520" 
d="M30 98q0 20 4 50l55 342h147l-48 -304q-4 -16 -4 -33q0 -32 31 -32t96 62l49 307h147l-59 -368v-122h-138l-6 89q-49 -48 -89 -73.5t-85 -25.5q-48 0 -74 29t-26 79z" />
    <glyph glyph-name="uni0439" unicode="&#x439;" horiz-adv-x="520" 
d="M473 677q-34 -136 -161 -136q-65 0 -98 35.5t-32 100.5l79 14q9 -57 59 -57q48 0 76 57zM30 98q0 20 4 50l55 342h147l-48 -304q-4 -16 -4 -33q0 -32 31 -32t96 62l49 307h147l-59 -368v-122h-138l-6 89q-49 -48 -89 -73.5t-85 -25.5q-48 0 -74 29t-26 79z" />
    <glyph glyph-name="uni043A" unicode="&#x43a;" horiz-adv-x="491" 
d="M304 -7l-111 233l-34 -226h-147l78 490h147l-35 -211l153 211h164l-187 -242l119 -230z" />
    <glyph glyph-name="uni043B" unicode="&#x43b;" horiz-adv-x="573" 
d="M-4 -10v119q48 4 70 24.5t43 72.5l48 116q38 91 90 133.5t147 42.5q82 0 164 -30l-75 -468h-147l60 375q-18 3 -21 3q-26 0 -43.5 -17t-35.5 -60l-57 -139q-39 -98 -90 -134.5t-153 -37.5z" />
    <glyph glyph-name="uni043C" unicode="&#x43c;" horiz-adv-x="731" 
d="M654 0h-144l39 360l-155 -361h-150l-44 361l-73 -360h-127l109 490h206l37 -321l139 321h208z" />
    <glyph glyph-name="uni043D" unicode="&#x43d;" horiz-adv-x="527" 
d="M290 0l30 191h-131l-30 -191h-147l78 490h147l-28 -180h131l28 180h147l-78 -490h-147z" />
    <glyph glyph-name="uni043E" unicode="&#x43e;" horiz-adv-x="507" 
d="M479 283q0 -125 -69 -209t-181 -84q-96 0 -149 59.5t-53 156.5q0 126 69.5 210t181.5 84q94 0 147.5 -59.5t53.5 -157.5zM334 283q0 100 -63 100q-44 0 -71 -54t-27 -122q0 -100 62 -100q45 0 72 53.5t27 122.5z" />
    <glyph glyph-name="uni043F" unicode="&#x43f;" horiz-adv-x="520" 
d="M491 391q0 -10 -5 -50l-55 -341h-146l48 303q3 27 3 34q0 14 -8.5 23t-22.5 9q-31 0 -96 -62l-48 -307h-147l58 367v123h138l6 -90q49 48 89.5 74t85.5 26q48 0 74 -29.5t26 -79.5z" />
    <glyph glyph-name="uni0440" unicode="&#x440;" horiz-adv-x="516" 
d="M177 116q21 -7 41 -7q53 0 89 50t36 138q0 73 -50 73q-34 0 -83 -49zM-16 -186l88 553v123h138l5 -73q40 41 73 62t71 21q60 0 96.5 -47t36.5 -129q0 -154 -79.5 -241t-192.5 -87q-26 0 -61 7l-24 -166z" />
    <glyph glyph-name="uni0441" unicode="&#x441;" horiz-adv-x="423" 
d="M426 464l-38 -121q-44 29 -87 29q-55 0 -90.5 -46.5t-35.5 -111.5q0 -51 24.5 -76t67.5 -25q39 0 95 27v-120q-56 -29 -127 -29q-99 0 -153.5 55t-55.5 154q-1 127 73.5 213.5t191.5 86.5q74 0 135 -36z" />
    <glyph glyph-name="uni0442" unicode="&#x442;" horiz-adv-x="783" 
d="M209 306l-48 -306h-147l58 367v123h139l5 -90q102 100 173 100q46 0 70.5 -27.5t25.5 -69.5q97 97 170 97q47 0 72.5 -29.5t25.5 -79.5q0 -23 -5 -50l-54 -341h-147l49 303q3 30 3 34q0 32 -28 32q-33 0 -95 -63l-49 -306h-147l48 303q4 20 4 34q0 32 -29 32
q-32 0 -94 -63z" />
    <glyph glyph-name="uni0443" unicode="&#x443;" horiz-adv-x="483" 
d="M511 490l-245 -504q-46 -96 -93.5 -132t-130.5 -36q-31 0 -55 6v120q30 -7 57 -7q51 0 80 46l10 19l-87 474l153 21l39 -309l129 302h143z" />
    <glyph glyph-name="uni0444" unicode="&#x444;" horiz-adv-x="730" 
d="M221 114q25 0 60 31l35 220q-18 14 -41 14q-41 0 -72 -50.5t-31 -128.5q0 -86 49 -86zM455 111q41 0 72 50.5t31 128.5q0 41 -13 63.5t-35 22.5q-23 0 -57 -28l-35 -226q16 -11 37 -11zM219 -182q-31 0 -54 5v108q18 -4 31 -4q47 0 56 54l10 59q-56 -49 -107 -49
q-56 0 -92.5 49.5t-36.5 144.5q0 131 64 221t151 90q50 0 87 -36l16 99q13 77 54.5 117.5t125.5 40.5q40 0 77 -7v-114q-27 6 -48 6q-58 0 -67 -63l-13 -85q54 45 103 45q56 0 92 -50t36 -144q0 -131 -64 -221.5t-151 -90.5q-48 0 -83 34l-6 -42q-13 -90 -55 -128.5
t-126 -38.5z" />
    <glyph glyph-name="uni0445" unicode="&#x445;" horiz-adv-x="479" 
d="M285 -7l-60 156l-97 -149h-155l182 251l-97 227l144 19l53 -144l88 137h154l-173 -240l105 -238z" />
    <glyph glyph-name="uni0446" unicode="&#x446;" horiz-adv-x="543" 
d="M335 -152l24 152h-68l14 89q-48 -48 -89 -73.5t-86 -25.5q-48 0 -74 29t-26 79q0 20 4 50l55 342h147l-48 -304q-4 -16 -4 -33q0 -32 31 -32t96 62l49 307h147l-58 -367h64l-41 -257z" />
    <glyph glyph-name="uni0447" unicode="&#x447;" horiz-adv-x="500" 
d="M409 0h-147l23 138q-37 -5 -70 -5q-78 0 -123 37t-45 107q0 38 6 70l23 143h147l-23 -145q-4 -24 -4 -38q0 -48 63 -48q26 0 46 4l36 227h146z" />
    <glyph glyph-name="uni0448" unicode="&#x448;" horiz-adv-x="783" 
d="M567 90q-102 -100 -173 -100q-46 0 -70.5 27.5t-25.5 69.5q-97 -97 -170 -97q-47 0 -72.5 29.5t-25.5 79.5q0 23 5 50l54 341h147l-49 -303q-3 -30 -3 -34q0 -32 28 -32q33 0 95 63l49 306h147l-48 -303q-4 -20 -4 -34q0 -32 29 -32q32 0 94 63l48 306h147l-58 -367v-123
h-139z" />
    <glyph glyph-name="uni0449" unicode="&#x449;" horiz-adv-x="806" 
d="M597 -152l24 152h-68l14 89q-101 -99 -173 -99q-46 0 -70.5 27t-26.5 70q-95 -97 -169 -97q-48 0 -73 29t-25 80q0 19 4 49l55 342h147l-49 -304q-3 -27 -3 -33q0 -32 28 -32q35 0 95 63l48 306h147l-48 -304q-3 -27 -3 -33q0 -32 28 -32q35 0 95 63l48 306h147l-58 -367
h64l-41 -257z" />
    <glyph glyph-name="uni044A" unicode="&#x44a;" horiz-adv-x="555" 
d="M272 -10q-94 0 -174 31l55 347h-121l19 122h268l-24 -148q26 4 58 4q79 0 127 -39.5t48 -107.5q0 -95 -69.5 -152t-186.5 -57zM388 185q0 29 -18 45.5t-53 16.5q-20 0 -38 -4l-24 -147q11 -4 30 -4q47 0 75 26.5t28 66.5z" />
    <glyph glyph-name="uni044B" unicode="&#x44b;" horiz-adv-x="716" 
d="M701 490l-79 -490h-147l79 490h147zM16 21l74 469h147l-23 -148q24 4 58 4q78 0 126 -39.5t48 -107.5q0 -95 -69.5 -152t-186.5 -57q-94 0 -174 31zM306 185q0 29 -18 45.5t-52 16.5q-21 0 -39 -4l-24 -147q12 -4 31 -4q47 0 74.5 26.5t27.5 66.5z" />
    <glyph glyph-name="uni044C" unicode="&#x44c;" horiz-adv-x="472" 
d="M15 21l74 469h147l-24 -148q26 4 58 4q79 0 127 -39.5t48 -107.5q0 -95 -69.5 -152t-186.5 -57q-94 0 -174 31zM305 185q0 29 -18 45.5t-53 16.5q-20 0 -38 -4l-24 -147q11 -4 30 -4q47 0 75 26.5t28 66.5z" />
    <glyph glyph-name="uni044D" unicode="&#x44d;" horiz-adv-x="453" 
d="M150 -10q-79 0 -150 40l37 109q62 -34 108 -34t80 24t49 68l-173 -2v101l183 -2q-7 91 -99 91q-54 0 -116 -35v115q68 35 144 35q98 0 155.5 -55.5t58.5 -160.5q1 -130 -74.5 -212t-202.5 -82z" />
    <glyph glyph-name="uni044E" unicode="&#x44e;" horiz-adv-x="729" 
d="M455 -10q-90 0 -141.5 55t-56.5 146h-68l-30 -191h-147l78 490h147l-28 -180h62q25 86 86.5 138t146.5 52q93 0 145.5 -59.5t52.5 -157.5q0 -125 -68.5 -209t-178.5 -84zM557 284q0 99 -62 99q-43 0 -70 -54t-27 -123q0 -99 62 -99q43 0 70 54t27 123z" />
    <glyph glyph-name="uni044F" unicode="&#x44f;" horiz-adv-x="513" 
d="M320 248l22 141q-16 4 -30 4q-52 0 -81 -23t-29 -59q0 -63 75 -63h43zM303 149h-44l-132 -157l-150 26l151 168q-66 42 -66 121q0 86 67 138.5t189 52.5q100 0 181 -28l-74 -470h-146z" />
    <glyph glyph-name="uni0450" unicode="&#x450;" horiz-adv-x="478" 
d="M341 547h-93l-128 121l183 30zM264 402q-31 0 -55 -29t-37 -76h148q11 105 -56 105zM416 37q-92 -47 -182 -47q-94 0 -151.5 53t-57.5 152q0 131 73 218t181 87q82 0 128 -53t46 -142q0 -50 -12 -95h-279q0 -114 100 -114q71 0 154 44v-103z" />
    <glyph glyph-name="uni0451" unicode="&#x451;" horiz-adv-x="478" 
d="M258 548h-120l20 131h122zM442 548h-121l21 131h121zM264 402q-31 0 -55 -29t-37 -76h148q11 105 -56 105zM416 37q-92 -47 -182 -47q-94 0 -151.5 53t-57.5 152q0 131 73 218t181 87q82 0 128 -53t46 -142q0 -50 -12 -95h-279q0 -114 100 -114q71 0 154 44v-103z" />
    <glyph glyph-name="uni0452" unicode="&#x452;" horiz-adv-x="507" 
d="M475 257q0 -93 -41.5 -198.5t-128.5 -244.5l-139 23q85 147 122.5 238.5t37.5 158.5q0 34 -16 49t-50 15q-26 0 -53 -6l-46 -292h-147l82 519h-66v106h83l12 74l151 23l-16 -97h137l-17 -106h-137l-16 -101q35 6 72 6q176 0 176 -167z" />
    <glyph glyph-name="uni0453" unicode="&#x453;" horiz-adv-x="432" 
d="M457 668l-156 -121h-94l81 151zM84 452q88 48 182 48q76 0 115 -35t39 -95q0 -68 -41 -107.5t-129 -69.5q-63 -21 -81 -34t-18 -32q0 -30 43 -30q67 0 176 60v-114q-98 -53 -199 -53q-80 0 -121.5 33.5t-41.5 97.5q0 62 40 101t130 72q62 24 81 37.5t19 32.5q0 27 -38 27
q-54 0 -156 -51v112z" />
    <glyph glyph-name="uni0454" unicode="&#x454;" horiz-adv-x="453" 
d="M387 27q-69 -37 -147 -37q-99 0 -156 55.5t-57 160.5q-1 130 74 212t202 82q84 0 148 -39l-38 -109q-53 33 -104 33q-98 0 -130 -90l173 2v-102l-183 2q6 -92 99 -92q52 0 119 37v-115z" />
    <glyph glyph-name="uni0455" unicode="&#x455;" horiz-adv-x="421" 
d="M404 455l-31 -110q-85 47 -145 47q-44 0 -44 -32q0 -14 9.5 -23t38.5 -22q86 -40 119.5 -73t33.5 -91q0 -70 -49.5 -115.5t-138.5 -45.5q-104 0 -203 57l34 111q92 -60 171 -60q25 0 39 10t14 27q0 15 -11.5 25t-45.5 26q-80 37 -112 69t-32 88q0 70 48.5 113.5
t130.5 43.5q89 0 174 -45z" />
    <glyph glyph-name="uni0456" unicode="&#x456;" horiz-adv-x="258" 
d="M278 636q0 -37 -24.5 -59.5t-61.5 -22.5t-62 22.5t-25 59.5t25 59.5t62 22.5t61.5 -22.5t24.5 -59.5zM242 490l-79 -490h-147l79 490h147z" />
    <glyph glyph-name="uni0457" unicode="&#x457;" horiz-adv-x="258" 
d="M145 548h-120l20 131h122zM329 548h-121l21 131h121zM242 490l-79 -490h-147l79 490h147z" />
    <glyph glyph-name="uni0458" unicode="&#x458;" horiz-adv-x="258" 
d="M278 636q0 -37 -24.5 -59.5t-61.5 -22.5t-62 22.5t-25 59.5t25 59.5t62 22.5t61.5 -22.5t24.5 -59.5zM241 490l-78 -499q-16 -94 -58 -133.5t-123 -39.5q-46 0 -66 6v124q14 -5 40 -5q28 0 42.5 16t19.5 51l76 480h147z" />
    <glyph glyph-name="uni0459" unicode="&#x459;" horiz-adv-x="796" 
d="M-4 -10v119q48 4 70 24.5t43 72.5l48 116q38 91 90 133.5t147 42.5q81 0 163 -29l-20 -127q24 4 58 4q78 0 125.5 -39.5t47.5 -107.5q0 -96 -69 -152.5t-186 -56.5q-91 0 -173 31l56 354q-18 3 -21 3q-26 0 -43.5 -17t-35.5 -60l-57 -139q-39 -98 -90 -134.5t-153 -37.5z
M628 185q0 29 -17.5 45.5t-51.5 16.5q-14 0 -38 -4l-23 -148q8 -3 29 -3q47 0 74 26.5t27 66.5z" />
    <glyph glyph-name="uni045A" unicode="&#x45a;" horiz-adv-x="746" 
d="M464 -10q-92 0 -174 31l27 170h-128l-30 -191h-147l78 490h147l-28 -180h127l29 180h146l-23 -148q26 4 57 4q78 0 126 -39.5t48 -107.5q0 -95 -69 -152t-186 -57zM471 243l-24 -147q12 -4 31 -4q46 0 73.5 26.5t27.5 66.5q0 29 -17.5 45.5t-51.5 16.5q-19 0 -39 -4z" />
    <glyph glyph-name="uni045B" unicode="&#x45b;" horiz-adv-x="510" 
d="M257 298q-29 0 -50 -5l-46 -293h-147l82 519h-66v106h83l12 74l151 23l-16 -97h137l-17 -106h-137l-16 -100q40 5 74 5q79 0 124 -36.5t45 -106.5q0 -29 -6 -71l-34 -210h-147l34 212q4 24 4 38q0 48 -64 48z" />
    <glyph glyph-name="uni045C" unicode="&#x45c;" horiz-adv-x="491" 
d="M498 668l-156 -121h-94l81 151zM304 -7l-111 233l-34 -226h-147l78 490h147l-35 -211l153 211h164l-187 -242l119 -230z" />
    <glyph glyph-name="uni045D" unicode="&#x45d;" horiz-adv-x="520" 
d="M357 547h-93l-128 121l183 30zM30 98q0 20 4 50l55 342h147l-48 -304q-4 -16 -4 -33q0 -32 31 -32t96 62l49 307h147l-59 -368v-122h-138l-6 89q-49 -48 -89 -73.5t-85 -25.5q-48 0 -74 29t-26 79z" />
    <glyph glyph-name="uni045E" unicode="&#x45e;" horiz-adv-x="483" 
d="M459 682q-34 -136 -161 -136q-65 0 -98 35.5t-32 100.5l79 14q9 -57 59 -57q48 0 76 57zM511 490l-245 -504q-46 -96 -93.5 -132t-130.5 -36q-31 0 -55 6v120q30 -7 57 -7q51 0 80 46l10 19l-87 474l153 21l39 -309l129 302h143z" />
    <glyph glyph-name="uni045F" unicode="&#x45f;" horiz-adv-x="520" 
d="M30 98q0 20 4 50l55 342h147l-48 -304q-4 -16 -4 -33q0 -32 31 -32t96 62l49 307h147l-59 -368v-122h-138l-6 89q-49 -48 -89 -73.5t-85 -25.5q-48 0 -74 29t-26 79zM116 -186l41 147h111l-13 -130z" />
    <glyph glyph-name="uni0462" unicode="&#x462;" horiz-adv-x="704" 
d="M382 0h-234l78 492h-170l20 120h169l14 89h169l-14 -89h178v-119h-197l-14 -87h55q112 0 171 -46.5t59 -134.5q0 -104 -76 -164.5t-208 -60.5zM503 215q0 69 -85 69h-58l-25 -160h60q49 0 78.5 25t29.5 66z" />
    <glyph glyph-name="uni0463" unicode="&#x463;" horiz-adv-x="742" 
d="M390 500q47 0 72.5 -29t25.5 -78q0 -12 -1 -18q0 -9 -4 -33q24 4 58 4q78 0 125.5 -39.5t47.5 -107.5q0 -96 -69 -152.5t-186 -56.5q-91 0 -173 31l45 284q3 27 3 32q0 15 -8 23.5t-21 8.5q-32 0 -95 -62l-49 -307h-147l59 367v123h138l6 -90q49 48 89 74t84 26zM505 247
q-14 0 -38 -4l-23 -148q8 -3 29 -3q47 0 74 26.5t27 66.5q0 29 -17.5 45.5t-51.5 16.5z" />
    <glyph glyph-name="uni0472" unicode="&#x472;" horiz-adv-x="690" 
d="M327 -13q-131 0 -205 80t-74 223q0 96 31 181t89 142q88 90 222 90q131 0 205 -80t74 -223q0 -96 -31 -181t-88 -142q-90 -90 -223 -90zM290 537q-45 -45 -67 -126h287v2q0 168 -121 168q-57 0 -99 -44zM328 110q55 0 100 43q45 45 67 129h-288v-5q0 -167 121 -167z" />
    <glyph glyph-name="uni0473" unicode="&#x473;" horiz-adv-x="507" 
d="M479 283q0 -125 -69 -209t-181 -84q-96 0 -149 59.5t-53 156.5q0 126 69.5 210t181.5 84q94 0 147.5 -59.5t53.5 -157.5zM271 398q-36 0 -62.5 -30.5t-40.5 -80.5h181q-1 56 -22 83.5t-56 27.5zM235 92q37 0 63 29.5t40 78.5h-180q3 -108 77 -108z" />
    <glyph glyph-name="uni0474" unicode="&#x474;" horiz-adv-x="668" 
d="M714 553q-48 -8 -76.5 -35.5t-64.5 -98.5l-212 -422h-159l-121 670l178 30l66 -480l116 258q54 124 110 173t163 53v-148z" />
    <glyph glyph-name="uni0475" unicode="&#x475;" horiz-adv-x="487" 
d="M265 -2h-137l-83 478l153 21l35 -309l63 148q40 95 81.5 129.5t126.5 33.5v-128q-39 -4 -58.5 -21.5t-43.5 -66.5z" />
    <glyph glyph-name="uni0490" unicode="&#x490;" horiz-adv-x="508" 
d="M526 542h-249l-85 -542h-170l109 690h266l22 129h153z" />
    <glyph glyph-name="uni0491" unicode="&#x491;" horiz-adv-x="402" 
d="M401 365h-184l-58 -365h-147l78 490h198l21 128h135z" />
    <glyph glyph-name="uni0492" unicode="&#x492;" horiz-adv-x="519" 
d="M386 285h-119l-45 -285h-170l45 285h-71v70h82l53 335h385v-148h-239l-29 -187h119z" />
    <glyph glyph-name="uni0493" unicode="&#x493;" horiz-adv-x="421" 
d="M321 178h-106l-29 -178h-146l28 178h-63v66h74l39 246h308v-125h-181l-20 -121h106z" />
    <glyph glyph-name="uni0496" unicode="&#x496;" horiz-adv-x="972" 
d="M745 -162l27 162h-45l-163 328l-48 -328h-170l57 328l-242 -328h-191l285 370l-163 299l168 28l154 -300l41 293h170l-51 -298l229 298h192l-271 -334l108 -207h122l-46 -292z" />
    <glyph glyph-name="uni0497" unicode="&#x497;" horiz-adv-x="753" 
d="M554 -152l25 152h-36l-111 224l-32 -224h-147l40 224l-166 -224h-159l201 262l-117 213l145 22l106 -213l30 206h146l-36 -202l158 202h159l-194 -241l68 -126h99l-41 -257z" />
    <glyph glyph-name="uni0498" unicode="&#x498;" horiz-adv-x="558" 
d="M113 -162l34 158q-76 13 -146 52l43 133q101 -55 190 -55q54 0 86 24.5t32 63.5q0 74 -121 74h-78v130h98q67 0 102 22.5t35 60.5q0 64 -86 64t-197 -60v142q102 55 225 55q107 0 165 -45t58 -125q0 -133 -149 -182q108 -37 108 -145q0 -87 -59 -143t-155 -70l-20 -135z
" />
    <glyph glyph-name="uni0499" unicode="&#x499;" horiz-adv-x="466" 
d="M95 -152l30 148q-61 11 -127 44l36 110q90 -46 162 -46q38 0 59 14t21 38q0 43 -67 43h-84v100h84q87 0 87 49q0 38 -58 38q-66 0 -164 -36v114q91 35 189 35q90 0 136 -33.5t45 -91.5q0 -90 -100 -127q75 -27 75 -102q0 -61 -42.5 -101t-121.5 -50l-16 -128z" />
    <glyph glyph-name="uni049A" unicode="&#x49a;" horiz-adv-x="643" 
d="M417 -162l26 162h-44l-158 320l-49 -320h-170l109 690h170l-48 -295l229 295h195l-272 -333l108 -208h112l-46 -292z" />
    <glyph glyph-name="uni049B" unicode="&#x49b;" horiz-adv-x="510" 
d="M313 -152l25 152h-38l-107 226l-34 -226h-147l78 490h147l-35 -211l153 211h164l-187 -242l64 -125h96l-41 -257z" />
    <glyph glyph-name="uni049C" unicode="&#x49c;" horiz-adv-x="677" 
d="M470 -7l-111 291l-25 -156h-65l25 157h-60l-44 -285h-168l109 690h168l-42 -259h60l25 159h65l-23 -148l166 248h193l-246 -336l144 -333z" />
    <glyph glyph-name="uni049D" unicode="&#x49d;" horiz-adv-x="559" 
d="M367 -7l-75 205l-18 -118h-60l18 112h-45l-31 -192h-144l78 490h144l-28 -176h45l18 112h60l-18 -109l111 173h161l-165 -237l96 -239z" />
    <glyph glyph-name="uni04A0" unicode="&#x4a0;" horiz-adv-x="745" 
d="M529 -7l-162 327l-49 -320h-170l87 548h-171l23 142h340l-48 -295l229 295h195l-272 -333l175 -335z" />
    <glyph glyph-name="uni04A1" unicode="&#x4a1;" horiz-adv-x="574" 
d="M387 -7l-111 233l-34 -226h-147l59 368h-122l19 122h269l-35 -211l153 211h164l-187 -242l119 -230z" />
    <glyph glyph-name="uni04A2" unicode="&#x4a2;" horiz-adv-x="704" 
d="M468 -162l27 162h-90l45 280h-214l-44 -280h-170l109 690h170l-42 -261h215l40 261h170l-85 -541h80l-47 -292z" />
    <glyph glyph-name="uni04A3" unicode="&#x4a3;" horiz-adv-x="550" 
d="M341 -152l25 152h-76l30 191h-131l-30 -191h-147l78 490h147l-28 -180h131l28 180h147l-58 -367h63l-41 -257z" />
    <glyph glyph-name="uni04A4" unicode="&#x4a4;" horiz-adv-x="852" 
d="M192 0h-170l109 690h170l-42 -261h204l41 261h375v-146h-228l-86 -544h-170l44 280h-203z" />
    <glyph glyph-name="uni04A5" unicode="&#x4a5;" horiz-adv-x="666" 
d="M287 0l30 191h-128l-30 -191h-147l78 490h147l-28 -180h128l28 180h305v-125h-178l-58 -365h-147z" />
    <glyph glyph-name="uni04AA" unicode="&#x4aa;" horiz-adv-x="573" 
d="M339 -143l-164 -19l36 170q-79 29 -122.5 98.5t-43.5 175.5q0 185 104.5 302.5t258.5 117.5q104 0 184 -55l-45 -144q-66 55 -135 55q-86 0 -140.5 -77t-54.5 -182q0 -84 38 -127t104 -43q70 0 146 43v-143q-63 -33 -146 -39z" />
    <glyph glyph-name="uni04AB" unicode="&#x4ab;" horiz-adv-x="423" 
d="M246 -134l-144 -18l33 162q-107 48 -109 190q-1 127 73.5 213.5t191.5 86.5q74 0 135 -36l-38 -121q-44 29 -87 29q-55 0 -90.5 -46.5t-35.5 -111.5q0 -51 24.5 -76t67.5 -25q39 0 95 27v-120q-42 -22 -100 -28z" />
    <glyph glyph-name="uni04AE" unicode="&#x4ae;" horiz-adv-x="631" 
d="M703 690l-305 -437l-41 -253h-170l40 250l-160 419l177 28l97 -282l178 275h184z" />
    <glyph glyph-name="uni04AF" unicode="&#x4af;" horiz-adv-x="492" 
d="M520 490l-239 -479l-27 -171l-151 -26l30 194l-88 468l153 21l43 -311l135 304h144z" />
    <glyph glyph-name="uni04B0" unicode="&#x4b0;" horiz-adv-x="631" 
d="M513 144h-133l-23 -144h-170l23 144h-126l11 66h126l6 40l-160 419l177 28l97 -282l178 275h184l-306 -437l-7 -43h123v-66z" />
    <glyph glyph-name="uni04B1" unicode="&#x4b1;" horiz-adv-x="492" 
d="M254 -160l-151 -26l19 125h-110l10 65h110l1 4l-88 468l153 21l43 -311l135 304h144l-239 -479l-1 -7h105v-65h-115z" />
    <glyph glyph-name="uni04B2" unicode="&#x4b2;" horiz-adv-x="649" 
d="M421 -162l27 162h-48l-91 228l-156 -228h-185l265 361l-138 307l177 29l78 -201l131 194h185l-239 -329l95 -212h108l-46 -292z" />
    <glyph glyph-name="uni04B3" unicode="&#x4b3;" horiz-adv-x="502" 
d="M300 -152l24 152h-41l-58 149l-97 -149h-155l182 251l-97 227l144 19l53 -144l88 137h154l-173 -240l56 -127h98l-41 -257z" />
    <glyph glyph-name="uni04B6" unicode="&#x4b6;" horiz-adv-x="653" 
d="M402 -162l27 162h-79l36 220q-45 -6 -88 -6q-106 0 -164.5 45.5t-58.5 139.5q0 27 7 83l33 208h169l-34 -211q-5 -38 -5 -52q0 -68 95 -68q34 0 67 6l52 325h170l-85 -541h69l-47 -292z" />
    <glyph glyph-name="uni04B7" unicode="&#x4b7;" horiz-adv-x="525" 
d="M315 -152l25 152h-78l23 138q-37 -5 -70 -5q-78 0 -123 37t-45 107q0 38 6 70l23 143h147l-23 -145q-4 -24 -4 -38q0 -48 63 -48q26 0 46 4l36 227h146l-58 -367h65l-41 -257z" />
    <glyph glyph-name="uni04B8" unicode="&#x4b8;" horiz-adv-x="630" 
d="M530 0h-170l36 219q-50 -4 -64 -5l-23 -143h-64l23 144q-193 13 -193 184q0 27 7 83l33 208h169l-34 -211q-5 -38 -5 -52q0 -50 49 -63l24 154h60l-26 -159q35 0 66 6l51 325h170z" />
    <glyph glyph-name="uni04B9" unicode="&#x4b9;" horiz-adv-x="534" 
d="M443 0h-147l23 138q-16 -3 -49 -5l-15 -97h-60l16 97q-77 1 -120.5 37.5t-43.5 106.5q0 38 6 70l23 143h147l-23 -145q-4 -24 -4 -38q0 -37 38 -46l19 123h57l-20 -125h3q26 0 46 4l36 227h146z" />
    <glyph glyph-name="uni04BA" unicode="&#x4ba;" horiz-adv-x="619" 
d="M311 331q-34 0 -67 -6l-52 -325h-170l109 690h170l-36 -220q45 6 88 6q106 0 164.5 -45.5t58.5 -139.5q0 -27 -7 -83l-33 -208h-169l34 211q5 38 5 52q0 68 -95 68z" />
    <glyph glyph-name="uni04BB" unicode="&#x4bb;" horiz-adv-x="519" 
d="M489 391q0 -18 -4 -50l-55 -341h-147l48 303q4 18 4 34q0 14 -8.5 23t-22.5 9q-31 0 -96 -62l-49 -307h-147l112 699l150 23l-51 -313q47 45 84 68t82 23q48 0 74 -29.5t26 -79.5z" />
    <glyph glyph-name="uni04C0" unicode="&#x4c0;" horiz-adv-x="298" 
d="M304 690l-109 -690h-170l109 690h170z" />
    <glyph glyph-name="uni04C1" unicode="&#x4c1;" horiz-adv-x="938" 
d="M714 877q-34 -136 -161 -136q-65 0 -98 35.5t-32 100.5l79 14q9 -57 59 -57q47 0 76 57zM730 -7l-166 335l-48 -328h-170l57 328l-242 -328h-191l285 370l-163 299l168 28l154 -300l41 293h170l-51 -298l229 298h192l-271 -334l174 -335z" />
    <glyph glyph-name="uni04C2" unicode="&#x4c2;" horiz-adv-x="733" 
d="M579 682q-34 -136 -161 -136q-65 0 -98 35.5t-32 100.5l79 14q9 -57 59 -57q48 0 76 57zM547 -7l-115 231l-32 -224h-147l40 224l-166 -224h-159l201 262l-117 213l145 22l106 -213l30 206h146l-36 -202l158 202h159l-194 -241l127 -234z" />
    <glyph glyph-name="uni04CF" unicode="&#x4cf;" horiz-adv-x="258" 
d="M278 722l-115 -722h-147l111 699z" />
    <glyph glyph-name="uni04D0" unicode="&#x4d0;" horiz-adv-x="663" 
d="M580 887q-34 -136 -161 -136q-65 0 -98 35.5t-32 100.5l79 14q9 -57 59 -57q47 0 76 57zM444 -7l-22 150h-216l-66 -143h-166l347 693h173l121 -670zM372 514l-108 -238h141z" />
    <glyph glyph-name="uni04D1" unicode="&#x4d1;" horiz-adv-x="515" 
d="M488 682q-34 -136 -161 -136q-65 0 -98 35.5t-32 100.5l79 14q9 -57 59 -57q47 0 76 57zM305 173l32 201q-18 7 -35 7q-51 0 -90 -53.5t-39 -134.5q0 -73 47 -73q34 0 85 53zM299 76q-75 -86 -145 -86q-60 0 -94.5 45t-34.5 124q0 159 85.5 248t207.5 89q86 0 178 -35
l-54 -338v-123h-138z" />
    <glyph glyph-name="uni04D2" unicode="&#x4d2;" horiz-adv-x="663" 
d="M382 753h-120l20 131h122zM566 753h-121l21 131h121zM444 -7l-22 150h-216l-66 -143h-166l347 693h173l121 -670zM372 514l-108 -238h141z" />
    <glyph glyph-name="uni04D3" unicode="&#x4d3;" horiz-adv-x="515" 
d="M289 548h-120l20 131h122zM473 548h-121l21 131h121zM305 173l32 201q-18 7 -35 7q-51 0 -90 -53.5t-39 -134.5q0 -73 47 -73q34 0 85 53zM299 76q-75 -86 -145 -86q-60 0 -94.5 45t-34.5 124q0 159 85.5 248t207.5 89q86 0 178 -35l-54 -338v-123h-138z" />
    <glyph glyph-name="uni04D4" unicode="&#x4d4;" horiz-adv-x="867" 
d="M432 276l46 297l-183 -297h137zM388 0l23 143h-195l-90 -143h-167l445 690h492l-21 -138h-232l-20 -127h171v-137h-193l-24 -150h240l-22 -138h-407z" />
    <glyph glyph-name="uni04D5" unicode="&#x4d5;" horiz-adv-x="749" 
d="M723 312q0 -57 -12 -102h-278v-10q4 -104 99 -104q71 0 154 44v-103q-92 -47 -181 -47q-117 0 -171 75q-102 -75 -193 -75q-57 0 -92.5 32t-35.5 92q0 172 294 187l3 16q7 38 -8.5 54t-56.5 16q-61 0 -151 -37v112q101 38 187 38q100 0 132 -55q61 55 140 55
q81 0 125.5 -52t44.5 -136zM591 297q11 105 -56 105q-31 0 -56 -28.5t-37 -76.5h149zM301 138q-6 23 -6 62q0 19 1 28q-136 -14 -136 -89q0 -43 44 -43q39 0 97 42z" />
    <glyph glyph-name="uni04D6" unicode="&#x4d6;" 
d="M510 877q-34 -136 -161 -136q-65 0 -98 35.5t-32 100.5l79 14q9 -57 59 -57q47 0 76 57zM541 690l-21 -138h-243l-20 -127h182v-137h-204l-24 -150h251l-22 -138h-418l109 690h410z" />
    <glyph glyph-name="uni04D7" unicode="&#x4d7;" horiz-adv-x="478" 
d="M456 682q-34 -136 -161 -136q-65 0 -98 35.5t-32 100.5l79 14q9 -57 59 -57q47 0 76 57zM264 402q-31 0 -55 -29t-37 -76h148q11 105 -56 105zM416 37q-92 -47 -182 -47q-94 0 -151.5 53t-57.5 152q0 131 73 218t181 87q82 0 128 -53t46 -142q0 -50 -12 -95h-279
q0 -114 100 -114q71 0 154 44v-103z" />
    <glyph glyph-name="uni04D8" unicode="&#x4d8;" horiz-adv-x="658" 
d="M293 -13q-119 0 -180.5 76.5t-61.5 202.5q0 72 15 145h403q-2 73 -36.5 112.5t-102.5 39.5q-51 0 -97.5 -14t-111.5 -45v138q114 61 234 61q134 0 208 -79t74 -223q0 -176 -98 -295t-246 -119zM305 115q53 0 96.5 48.5t59.5 134.5h-246q-3 -28 -3 -53q0 -130 93 -130z
" />
    <glyph glyph-name="uni04D9" unicode="&#x4d9;" horiz-adv-x="478" 
d="M199 -10q-82 0 -128 53t-46 142q0 50 12 95h279q0 114 -100 114q-71 0 -154 -44v103q92 47 182 47q94 0 151.5 -53t57.5 -152q0 -131 -73 -218t-181 -87zM214 88q31 0 55 29t37 76h-148q-11 -105 56 -105z" />
    <glyph glyph-name="uni04DC" unicode="&#x4dc;" horiz-adv-x="938" 
d="M516 743h-120l20 131h122zM700 743h-121l21 131h121zM730 -7l-166 335l-48 -328h-170l57 328l-242 -328h-191l285 370l-163 299l168 28l154 -300l41 293h170l-51 -298l229 298h192l-271 -334l174 -335z" />
    <glyph glyph-name="uni04DD" unicode="&#x4dd;" horiz-adv-x="733" 
d="M380 548h-120l20 131h122zM564 548h-121l21 131h121zM547 -7l-115 231l-32 -224h-147l40 224l-166 -224h-159l201 262l-117 213l145 22l106 -213l30 206h146l-36 -202l158 202h159l-194 -241l127 -234z" />
    <glyph glyph-name="uni04DE" unicode="&#x4de;" horiz-adv-x="558" 
d="M314 753h-120l20 131h122zM498 753h-121l21 131h121zM240 -12q-132 0 -239 60l43 133q101 -55 190 -55q54 0 86 24.5t32 63.5q0 74 -121 74h-78v130h98q67 0 102 22.5t35 60.5q0 64 -86 64t-197 -60v142q102 55 225 55q107 0 165 -45t58 -125q0 -133 -149 -182
q108 -37 108 -145q0 -101 -77 -159t-195 -58z" />
    <glyph glyph-name="uni04DF" unicode="&#x4df;" horiz-adv-x="466" 
d="M243 548h-120l20 131h122zM427 548h-121l21 131h121zM200 -10q-105 0 -202 50l36 110q90 -46 162 -46q38 0 59 14t21 38q0 43 -67 43h-84v100h84q87 0 87 49q0 38 -58 38q-66 0 -164 -36v114q91 35 189 35q90 0 136 -33.5t45 -91.5q0 -90 -100 -127q75 -27 75 -102
q0 -71 -57.5 -113t-161.5 -42z" />
    <glyph glyph-name="uni04E2" unicode="&#x4e2;" horiz-adv-x="680" 
d="M570 749h-301l17 105h301zM22 0l109 690h158l-63 -399l292 399h171l-109 -690h-158l66 420l-310 -420h-156z" />
    <glyph glyph-name="uni04E3" unicode="&#x4e3;" horiz-adv-x="520" 
d="M457 557h-301l17 105h301zM30 98q0 20 4 50l55 342h147l-48 -304q-4 -16 -4 -33q0 -32 31 -32t96 62l49 307h147l-59 -368v-122h-138l-6 89q-49 -48 -89 -73.5t-85 -25.5q-48 0 -74 29t-26 79z" />
    <glyph glyph-name="uni04E4" unicode="&#x4e4;" horiz-adv-x="680" 
d="M385 740h-120l20 131h122zM569 740h-121l21 131h121zM22 0l109 690h158l-63 -399l292 399h171l-109 -690h-158l66 420l-310 -420h-156z" />
    <glyph glyph-name="uni04E5" unicode="&#x4e5;" horiz-adv-x="520" 
d="M273 548h-120l20 131h122zM457 548h-121l21 131h121zM30 98q0 20 4 50l55 342h147l-48 -304q-4 -16 -4 -33q0 -32 31 -32t96 62l49 307h147l-59 -368v-122h-138l-6 89q-49 -48 -89 -73.5t-85 -25.5q-48 0 -74 29t-26 79z" />
    <glyph glyph-name="uni04E6" unicode="&#x4e6;" horiz-adv-x="690" 
d="M389 753h-120l20 131h122zM573 753h-121l21 131h121zM327 -13q-131 0 -205 80t-74 223q0 96 31 181t89 142q88 90 222 90q131 0 205 -80t74 -223q0 -96 -31 -181t-88 -142q-90 -90 -223 -90zM330 116q47 0 86 39q35 35 58 106t23 155q0 158 -109 158q-48 0 -87 -39
q-34 -33 -57 -105t-23 -156q0 -158 109 -158z" />
    <glyph glyph-name="uni04E7" unicode="&#x4e7;" horiz-adv-x="507" 
d="M268 548h-120l20 131h122zM452 548h-121l21 131h121zM479 283q0 -125 -69 -209t-181 -84q-96 0 -149 59.5t-53 156.5q0 126 69.5 210t181.5 84q94 0 147.5 -59.5t53.5 -157.5zM334 283q0 100 -63 100q-44 0 -71 -54t-27 -122q0 -100 62 -100q45 0 72 53.5t27 122.5z" />
    <glyph glyph-name="uni04E8" unicode="&#x4e8;" horiz-adv-x="690" 
d="M327 -13q-131 0 -205 80t-74 223q0 96 31 181t89 142q88 90 222 90q131 0 205 -80t74 -223q0 -96 -31 -181t-88 -142q-90 -90 -223 -90zM290 537q-45 -45 -67 -126h287v2q0 168 -121 168q-57 0 -99 -44zM328 110q55 0 100 43q45 45 67 129h-288v-5q0 -167 121 -167z" />
    <glyph glyph-name="uni04E9" unicode="&#x4e9;" horiz-adv-x="507" 
d="M479 283q0 -125 -69 -209t-181 -84q-96 0 -149 59.5t-53 156.5q0 126 69.5 210t181.5 84q94 0 147.5 -59.5t53.5 -157.5zM271 398q-36 0 -62.5 -30.5t-40.5 -80.5h181q-1 56 -22 83.5t-56 27.5zM235 92q37 0 63 29.5t40 78.5h-180q3 -108 77 -108z" />
    <glyph glyph-name="uni04EE" unicode="&#x4ee;" horiz-adv-x="637" 
d="M565 749h-301l17 105h301zM56 -10v143q129 1 185 75l-153 465l174 24l91 -324l169 317h185l-287 -480q-71 -121 -156 -170t-208 -50z" />
    <glyph glyph-name="uni04EF" unicode="&#x4ef;" horiz-adv-x="483" 
d="M445 557h-301l17 105h301zM511 490l-245 -504q-46 -96 -93.5 -132t-130.5 -36q-31 0 -55 6v120q30 -7 57 -7q51 0 80 46l10 19l-87 474l153 21l39 -309l129 302h143z" />
    <glyph glyph-name="uni04F0" unicode="&#x4f0;" horiz-adv-x="637" 
d="M381 740h-120l20 131h122zM565 740h-121l21 131h121zM56 -10v143q129 1 185 75l-153 465l174 24l91 -324l169 317h185l-287 -480q-71 -121 -156 -170t-208 -50z" />
    <glyph glyph-name="uni04F1" unicode="&#x4f1;" horiz-adv-x="483" 
d="M261 548h-120l20 131h122zM445 548h-121l21 131h121zM511 490l-245 -504q-46 -96 -93.5 -132t-130.5 -36q-31 0 -55 6v120q30 -7 57 -7q51 0 80 46l10 19l-87 474l153 21l39 -309l129 302h143z" />
    <glyph glyph-name="uni04F2" unicode="&#x4f2;" horiz-adv-x="637" 
d="M513 860l-152 -120h-95l87 150zM684 860l-151 -120h-95l94 150zM56 -10v143q129 1 185 75l-153 465l174 24l91 -324l169 317h185l-287 -480q-71 -121 -156 -170t-208 -50z" />
    <glyph glyph-name="uni04F3" unicode="&#x4f3;" horiz-adv-x="483" 
d="M393 668l-152 -120h-95l87 150zM564 668l-151 -120h-95l94 150zM511 490l-245 -504q-46 -96 -93.5 -132t-130.5 -36q-31 0 -55 6v120q30 -7 57 -7q51 0 80 46l10 19l-87 474l153 21l39 -309l129 302h143z" />
    <glyph glyph-name="uni04F4" unicode="&#x4f4;" horiz-adv-x="619" 
d="M358 740h-120l20 131h122zM542 740h-121l21 131h121zM520 0h-170l36 220q-45 -6 -88 -6q-106 0 -164.5 45.5t-58.5 139.5q0 27 7 83l33 208h169l-34 -211q-5 -38 -5 -52q0 -68 95 -68q34 0 67 6l52 325h170z" />
    <glyph glyph-name="uni04F5" unicode="&#x4f5;" horiz-adv-x="500" 
d="M259 548h-120l20 131h122zM443 548h-121l21 131h121zM409 0h-147l23 138q-37 -5 -70 -5q-78 0 -123 37t-45 107q0 38 6 70l23 143h147l-23 -145q-4 -24 -4 -38q0 -48 63 -48q26 0 46 4l36 227h146z" />
    <glyph glyph-name="uni04F8" unicode="&#x4f8;" horiz-adv-x="845" 
d="M465 740h-120l20 131h122zM649 740h-121l21 131h121zM300 690l-37 -228h24q254 0 254 -208q0 -117 -84 -185.5t-228 -68.5h-207l109 690h169zM851 690l-109 -690h-170l109 690h170zM375 249q0 89 -103 89h-30l-33 -214h31q61 0 98 33.5t37 91.5z" />
    <glyph glyph-name="uni04F9" unicode="&#x4f9;" horiz-adv-x="716" 
d="M373 548h-120l20 131h122zM557 548h-121l21 131h121zM701 490l-79 -490h-147l79 490h147zM16 21l74 469h147l-23 -148q24 4 58 4q78 0 126 -39.5t48 -107.5q0 -95 -69.5 -152t-186.5 -57q-94 0 -174 31zM306 185q0 29 -18 45.5t-52 16.5q-21 0 -39 -4l-24 -147
q12 -4 31 -4q47 0 74.5 26.5t27.5 66.5z" />
    <glyph glyph-name="Wgrave" unicode="&#x1e80;" horiz-adv-x="971" 
d="M627 742h-93l-128 121l183 30zM1025 690l-297 -690h-160l-57 434l-197 -434h-154l-76 667l188 30l27 -432l187 425h165l51 -425l161 425h162z" />
    <glyph glyph-name="wgrave" unicode="&#x1e81;" horiz-adv-x="707" 
d="M457 547h-93l-128 121l183 30zM731 490l-210 -490h-139l-25 296l-117 -296h-136l-55 478l149 19l16 -302l114 295h135l21 -295l108 295h139z" />
    <glyph glyph-name="Wacute" unicode="&#x1e82;" horiz-adv-x="971" 
d="M772 863l-156 -121h-94l81 151zM1025 690l-297 -690h-160l-57 434l-197 -434h-154l-76 667l188 30l27 -432l187 425h165l51 -425l161 425h162z" />
    <glyph glyph-name="wacute" unicode="&#x1e83;" horiz-adv-x="707" 
d="M602 668l-156 -121h-94l81 151zM731 490l-210 -490h-139l-25 296l-117 -296h-136l-55 478l149 19l16 -302l114 295h135l21 -295l108 295h139z" />
    <glyph glyph-name="Wdieresis" unicode="&#x1e84;" horiz-adv-x="971" 
d="M544 743h-120l20 131h122zM728 743h-121l21 131h121zM1025 690l-297 -690h-160l-57 434l-197 -434h-154l-76 667l188 30l27 -432l187 425h165l51 -425l161 425h162z" />
    <glyph glyph-name="wdieresis" unicode="&#x1e85;" horiz-adv-x="707" 
d="M374 548h-120l20 131h122zM558 548h-121l21 131h121zM731 490l-210 -490h-139l-25 296l-117 -296h-136l-55 478l149 19l16 -302l114 295h135l21 -295l108 295h139z" />
    <glyph glyph-name="Ygrave" unicode="&#x1ef2;" horiz-adv-x="631" 
d="M440 739h-93l-128 121l183 30zM703 690l-305 -437l-41 -253h-170l40 250l-160 419l177 28l97 -282l178 275h184z" />
    <glyph glyph-name="ygrave" unicode="&#x1ef3;" horiz-adv-x="483" 
d="M344 547h-93l-128 121l183 30zM511 490l-245 -504q-46 -96 -93.5 -132t-130.5 -36q-31 0 -55 6v120q30 -7 57 -7q51 0 80 46l10 19l-87 474l153 21l39 -309l129 302h143z" />
    <glyph glyph-name="enspace" unicode="&#x2002;" horiz-adv-x="500" 
 />
    <glyph glyph-name="emspace" unicode="&#x2003;" horiz-adv-x="1000" 
 />
    <glyph glyph-name="threeperemspace" unicode="&#x2004;" horiz-adv-x="333" 
 />
    <glyph glyph-name="fourperemspace" unicode="&#x2005;" horiz-adv-x="250" 
 />
    <glyph glyph-name="thinspace" unicode="&#x2009;" horiz-adv-x="133" 
 />
    <glyph glyph-name="hairspace" unicode="&#x200a;" horiz-adv-x="75" 
 />
    <glyph glyph-name="endash" unicode="&#x2013;" horiz-adv-x="423" 
d="M379 220h-344l22 141h343z" />
    <glyph glyph-name="emdash" unicode="&#x2014;" horiz-adv-x="844" 
d="M801 221h-766l22 139h766z" />
    <glyph glyph-name="quoteleft" unicode="&#x2018;" horiz-adv-x="251" 
d="M43 384l149 315l89 -21l-68 -294h-170z" />
    <glyph glyph-name="quoteright" unicode="&#x2019;" horiz-adv-x="251" 
d="M297 690l-150 -315l-88 21l67 294h171z" />
    <glyph glyph-name="quotesinglbase" unicode="&#x201a;" horiz-adv-x="257" 
d="M213 172l-149 -315l-89 21l67 294h171z" />
    <glyph glyph-name="quotedblleft" unicode="&#x201c;" horiz-adv-x="473" 
d="M268 384l149 315l86 -21l-67 -294h-168zM43 384l149 315l86 -21l-68 -294h-167z" />
    <glyph glyph-name="quotedblright" unicode="&#x201d;" horiz-adv-x="473" 
d="M519 690l-150 -315l-85 21l67 294h168zM294 690l-150 -315l-86 21l68 294h168z" />
    <glyph glyph-name="quotedblbase" unicode="&#x201e;" horiz-adv-x="480" 
d="M436 172l-150 -315l-86 21l68 294h168zM211 172l-150 -315l-86 21l67 294h169z" />
    <glyph glyph-name="dagger" unicode="&#x2020;" horiz-adv-x="476" 
d="M357 611l-68 -135h-32l-23 135l12 79h124zM228 420l-132 -41h-39l18 115h38l120 -41zM459 379h-37l-120 41l6 33l132 41h38zM257 11l-62 -125h-29l-22 125l42 268l60 119h31l22 -119z" />
    <glyph glyph-name="daggerdbl" unicode="&#x2021;" horiz-adv-x="493" 
d="M366 611l-68 -135h-31l-25 135l13 79h123zM468 379h-38l-120 41l6 33l132 41h38zM237 420l-133 -41h-39l18 115h39l120 -41zM300 230l-60 -119h-32l-21 119l7 49l60 119h32l22 -119zM410 14h-38l-120 41l6 33l132 41h39zM178 55l-132 -41h-38l18 115h38l120 -41z
M240 -182h-123l12 79l67 136h32l25 -136z" />
    <glyph glyph-name="bullet" unicode="&#x2022;" horiz-adv-x="482" 
d="M428 344l-25 -156l-146 -23l-146 23l-24 156l24 157l146 23l146 -23z" />
    <glyph glyph-name="ellipsis" unicode="&#x2026;" horiz-adv-x="784" 
d="M167 0h-156l28 179h156zM431 0h-156l28 179h156zM694 0h-155l28 179h156z" />
    <glyph glyph-name="guilsinglleft" unicode="&#x2039;" horiz-adv-x="308" 
d="M320 490l-146 -249l63 -226l-98 -24l-121 254l188 245h114z" />
    <glyph glyph-name="guilsinglright" unicode="&#x203a;" horiz-adv-x="308" 
d="M-13 0l146 249l-63 226l97 23l122 -254l-187 -244h-115z" />
    <glyph glyph-name="fraction" unicode="&#x2044;" horiz-adv-x="270" 
d="M173 319l-249 -333l-64 18l270 347l251 333l64 -18z" />
    <glyph glyph-name="Euro" unicode="&#x20ac;" horiz-adv-x="586" 
d="M533 24q-68 -36 -152 -36q-246 0 -272 239h-84v77h81q1 36 8 77h-72l12 76h80q37 104 115 168t189 64q107 0 180 -54l-41 -125q-74 50 -139 50q-98 0 -144 -103h201v-76h-224q-6 -30 -8 -77h215l-13 -77h-197q23 -111 138 -111q61 0 127 33v-125z" />
    <glyph glyph-name="hryvnia" unicode="&#x20b4;" horiz-adv-x="580" 
d="M471 42q-114 -54 -227 -54q-96 0 -143 35.5t-47 100.5q0 66 57 128l-71 7v76l146 -15l72 62l-201 21l12 74l264 -28q28 26 39.5 42.5t10.5 35.5q0 40 -60 40q-67 0 -171 -43v121q109 43 209 43q97 0 145.5 -35t48.5 -99q0 -65 -50 -123l67 -7v-76l-140 15l-72 -62
l194 -20l-12 -74l-257 27q-35 -30 -47 -48t-12 -36q0 -41 63 -41q67 0 182 54v-121z" />
    <glyph glyph-name="numero" unicode="&#x2116;" horiz-adv-x="1076" 
d="M1048 372q0 -97 -59.5 -165t-150.5 -68q-81 0 -126 49t-45 131q0 98 59.5 166t150.5 68q81 0 126 -49t45 -132zM928 376q0 80 -56 80q-36 0 -61 -43t-25 -98q0 -80 57 -80q37 0 61 42.5t24 98.5zM653 690l-109 -690h-145l-156 408l-64 -408h-155l109 690h164l142 -381
l60 381h154zM979 0h-348l14 83h348z" />
    <glyph glyph-name="published" unicode="&#x2117;" horiz-adv-x="799" 
d="M764 346q0 -160 -96.5 -259.5t-249.5 -99.5q-154 0 -249.5 98.5t-95.5 258.5t96.5 259.5t249.5 99.5q154 0 249.5 -98.5t95.5 -258.5zM720 345q0 151 -85 236.5t-216 85.5q-133 0 -217.5 -85.5t-84.5 -236.5t85 -236.5t217 -85.5t216.5 85.5t84.5 236.5zM592 413
q0 -66 -43 -101.5t-118 -35.5h-33v-126h-111v394h149q73 0 114.5 -34.5t41.5 -96.5zM486 411q0 54 -60 54h-30v-110h28q62 0 62 56z" />
    <glyph glyph-name="servicemark" unicode="&#x2120;" horiz-adv-x="812" 
d="M831 345h-96l-14 216l-64 -218h-86l-64 218l-15 -216h-82l26 345h120l67 -225l67 225h115zM236 340q-59 0 -115 28l14 78q58 -34 105 -34q35 0 35 27q0 14 -10.5 23t-38.5 20q-55 23 -76.5 45.5t-21.5 64.5q0 47 33.5 75t83.5 28q54 0 99 -24l-11 -78q-53 30 -89 30
q-33 0 -33 -24q0 -12 9.5 -20.5t34.5 -18.5q59 -25 82 -48.5t23 -65.5q0 -52 -34.5 -79t-89.5 -27z" />
    <glyph glyph-name="trademark" unicode="&#x2122;" horiz-adv-x="812" 
d="M392 615h-109v-270h-94v270h-103v75h295zM836 345h-96l-14 216l-64 -218h-87l-64 218l-14 -216h-82l26 345h120l67 -225l67 225h115z" />
    <glyph glyph-name="Omega" unicode="&#x2126;" horiz-adv-x="712" 
d="M310 119l-38 -119h-254l20 132l106 -3q-83 99 -83 226q0 144 97 245.5t250 101.5q137 0 212.5 -76t75.5 -197q0 -91 -40 -161t-122 -139l104 3l-21 -132h-255v119l38 38q65 65 96.5 125.5t31.5 137.5q0 69 -34.5 110t-95.5 41q-78 0 -125.5 -66.5t-47.5 -167.5
q0 -92 58 -181z" />
    <glyph glyph-name="Delta" unicode="&#x2206;" horiz-adv-x="673" 
d="M588 0h-578v122l306 571h184l122 -566zM375 519l-197 -387h270z" />
    <glyph glyph-name="minus" unicode="&#x2212;" horiz-adv-x="572" 
d="M522 276h-464l21 124h464z" />
    <glyph glyph-name="hcoslug" unicode="&#xe10b;" horiz-adv-x="694" 
d="M644 700v-800h-594v800h594zM247 428q0 13 7.5 21t19.5 8q13 0 21 -10.5t8 -27.5q0 -22 -18 -50q-15 14 -21 20.5t-11.5 17t-5.5 21.5zM312 342q30 20 42 34q29 -29 -1 -80q-33 38 -41 46zM261 219q-22 0 -37 15.5t-15 38.5q0 24 16 40q34 -32 74 -82q-15 -12 -38 -12z
M382 264q20 26 46 42q15 -25 43 -25q21 0 35.5 15.5t14.5 38.5t-14.5 37.5t-35.5 14.5q-35 0 -60 -38q-3 39 -49 37q9 15 9 34q0 29 -25.5 51.5t-69.5 22.5q-48 0 -78.5 -25.5t-30.5 -59.5q0 -37 31 -69q-82 -28 -82 -91q0 -39 32 -66t77 -27q63 0 104 45q44 -45 85 -45
q33 0 56 25.5t24 68.5l-7 2q-17 -29 -43 -29q-27 0 -62 41zM286 124l-12 -2v-9h-7v-7h7v-20q0 -13 12 -13q11 0 14 13l-5 2q-1 -7 -5 -7t-4 5v20h13v7h-13v11zM174 94q0 -21 21 -21q9 0 15 6t6 15q0 20 -21 20t-21 -20zM203 94q0 -16 -8 -16t-8 16q0 15 8 15t8 -15zM219 81
v-7h22v7h-4v15q0 10 7 10q6 0 6 -7v-18h-4v-7h22v7h-6v19q0 14 -12 14q-9 0 -14 -11v10h-17v-7h6v-25h-6zM379 93q0 -13 -7 -13q-8 0 -8 13t8 13q7 0 7 -13zM125 81v-7h30v7h-10v16h4q5 0 6 -8h7v23h-7q-1 -8 -6 -8h-4v18h12q9 0 11 -13h8v20h-51v-7h7v-41h-7zM302 88v-14h7
l1 4q7 -5 13 -5q14 0 14 13q0 9 -12 12t-12 6q0 4 5 4t10 -7h7v13h-6l-2 -5q-3 5 -11 5q-14 0 -14 -12q0 -9 12 -12.5t12 -6.5q0 -4 -5 -4q-6 0 -12 9h-7zM352 125v-52h6l4 8q5 -8 14 -8q16 0 16 21q0 20 -15 20q-10 0 -13 -9v27h-18v-7h6zM405 65q3 2 1.5 6t-6.5 4
q-7 0 -7 -7q0 -9 11 -9q12 0 18 16l13 31h5v7h-17v-7h5l-8 -20l-9 20h6v7h-25v-7h5q12 -23 16 -33q-2 -8 -8 -8zM294 39v3q0 12 6 12l3 -1q-1 -1 -1 -3q0 -6 6 -6v-5h-14zM464 33h-18v-7h6q-2 -5 -6 -9q-2 2 -5.5 6t-6.5 7q11 5 11 12q0 12 -14 12q-17 0 -17 -14q0 -6 6 -12
q-13 -4 -13 -15q0 -14 18 -14q9 0 15 6q5 -6 12 -6q10 0 13 12l-5 1q-1 -5 -4 -5t-6 5q6 8 9 14h5v7zM469 27q0 -28 29 -28q22 0 24 23h-8q-2 -16 -14 -16q-16 0 -16 22t14 22q10 0 15 -16h8v22h-8l-1 -6q-7 7 -16 7q-11 0 -19 -8.5t-8 -21.5zM431 33q-6 6 -6 10q0 5 5 5
q6 0 6 -6t-5 -9zM340 18h26q2 22 -19 22q-8 0 -14 -6t-6 -15q0 -20 21 -20q14 0 18 14h-7q-1 -7 -9 -7q-10 0 -10 12zM525 20q0 -21 21 -21q9 0 15 6t6 15q0 20 -21 20t-21 -20zM189 20q0 -21 21 -21q9 0 15 6t6 15q0 20 -21 20t-21 -20zM247 18h26q2 22 -19 22q-8 0 -14 -6
t-6 -15q0 -20 21 -20q15 0 18 14h-7q-1 -7 -9 -7q-10 0 -10 12zM340 23q0 12 7 12t7 -12h-14zM554 20q0 -16 -8 -16t-8 16q0 15 8 15t8 -15zM218 20q0 -16 -8 -16t-8 16q0 15 8 15t8 -15zM247 23q0 12 7 12t7 -12h-14zM368 7v-7h26v7h-8v16q4 9 7 9v-1q0 -6 6 -6q7 0 7 7
q0 8 -8 8t-12 -11v10h-18v-7h6v-25h-6zM276 7v-7h23v7h-5v25h14v-25h-5v-7h23v7h-6v52l-10 -2q-4 2 -9 2q-19 0 -19 -19v-1h-7v-7h7v-25h-6zM124 7v-7h29v7h-8v18h22v-18h-8v-7h29v7h-8v41h8v7h-29v-7h8v-16h-22v16h8v7h-29v-7h8v-41h-8zM437 9q-5 -3 -8 -3q-10 0 -10 10
q0 5 4 9q4 -4 14 -16zM583 6q0 7 -7 7t-7 -7t7 -7t7 7z" />
    <glyph glyph-name="f_f" unicode="&#xfb00;" horiz-adv-x="665" 
d="M720 596q-26 6 -48 6q-28 0 -44 -14t-22 -47l-9 -51h83v-121h-101l-83 -532l-150 -23l87 555h-68l19 121h68l12 71q13 75 54.5 115.5t124.5 40.5q39 0 77 -6v-115zM385 596q-25 6 -48 6q-28 0 -44 -14t-22 -47l-9 -51h83v-121h-101l-83 -532l-150 -23l87 555h-68l19 121
h68l12 71q13 75 54.5 115.5t124.5 40.5q39 0 77 -6v-115z" />
    <glyph glyph-name="fi" unicode="&#xfb01;" horiz-adv-x="588" 
d="M608 636q0 -37 -24.5 -59.5t-61.5 -22.5t-62 22.5t-25 59.5t25 59.5t62 22.5t61.5 -22.5t24.5 -59.5zM385 596q-25 6 -48 6q-28 0 -44 -14t-22 -47l-9 -51h83v-121h-101l-83 -532l-150 -23l87 555h-68l19 121h68l12 71q13 75 54.5 115.5t124.5 40.5q39 0 77 -6v-115z
M572 490l-79 -490h-147l79 490h147z" />
    <glyph glyph-name="fl" unicode="&#xfb02;" horiz-adv-x="588" 
d="M609 722l-115 -722h-147l111 699zM385 596q-25 6 -48 6q-28 0 -44 -14t-22 -47l-9 -51h83v-121h-101l-83 -532l-150 -23l87 555h-68l19 121h68l12 71q13 75 54.5 115.5t124.5 40.5q39 0 77 -6v-115z" />
    <glyph glyph-name="f_f_i" unicode="&#xfb03;" horiz-adv-x="923" 
d="M943 636q0 -37 -24.5 -59.5t-61.5 -22.5t-62 22.5t-25 59.5t25 59.5t62 22.5t61.5 -22.5t24.5 -59.5zM720 596q-26 6 -48 6q-28 0 -44 -14t-22 -47l-9 -51h83v-121h-101l-83 -532l-150 -23l87 555h-68l19 121h68l12 71q13 75 54.5 115.5t124.5 40.5q39 0 77 -6v-115z
M385 596q-25 6 -48 6q-28 0 -44 -14t-22 -47l-9 -51h83v-121h-101l-83 -532l-150 -23l87 555h-68l19 121h68l12 71q13 75 54.5 115.5t124.5 40.5q39 0 77 -6v-115zM907 490l-79 -490h-147l79 490h147z" />
    <glyph glyph-name="f_f_l" unicode="&#xfb04;" horiz-adv-x="923" 
d="M944 722l-115 -722h-147l111 699zM720 596q-26 6 -48 6q-28 0 -44 -14t-22 -47l-9 -51h83v-121h-101l-83 -532l-150 -23l87 555h-68l19 121h68l12 71q13 75 54.5 115.5t124.5 40.5q39 0 77 -6v-115zM385 596q-25 6 -48 6q-28 0 -44 -14t-22 -47l-9 -51h83v-121h-101
l-83 -532l-150 -23l87 555h-68l19 121h68l12 71q13 75 54.5 115.5t124.5 40.5q39 0 77 -6v-115z" />
    <glyph glyph-name="M.alt" horiz-adv-x="870" 
d="M770 0h-166l70 442l-211 -445h-154l-72 445l-70 -442h-145l109 690h224l78 -474l227 474h219z" />
    <glyph glyph-name="Q.alt" horiz-adv-x="697" 
d="M626 -14l-93 79q-89 -78 -206 -78q-131 0 -205 80t-74 223q0 96 31 181t89 142q88 90 222 90q131 0 205 -80t74 -223q0 -128 -56 -231l47 -37zM331 113q48 0 88 40q3 3 4 5l-128 107l155 36l31 -26q19 66 19 140q0 159 -111 159q-46 0 -87 -39q-35 -35 -58 -106.5
t-23 -155.5q0 -160 110 -160z" />
    <glyph glyph-name="U.alt" horiz-adv-x="664" 
d="M672 690l-109 -690h-143v69q-100 -77 -199 -77q-81 0 -124.5 43.5t-42.5 125.5q0 42 5 75l72 454h169l-71 -448q-3 -18 -3 -36q-1 -70 66 -70q58 0 132 57l79 497h169z" />
    <glyph glyph-name="W.alt" horiz-adv-x="980" 
d="M557 -1l-57 312l-150 -312h-158l-113 670l177 28l66 -475l141 290l-29 157l173 28l64 -466l194 459h174l-325 -691h-157z" />
    <glyph glyph-name="a.alt" horiz-adv-x="495" 
d="M195 94q35 0 87 45l15 89q-73 -7 -105 -33.5t-32 -61.5q0 -39 35 -39zM312 317q6 39 -9 54.5t-57 15.5q-62 0 -152 -37v112q101 38 195 38q104 0 143.5 -45.5t24.5 -136.5l-36 -219v-99h-138l-5 61q-76 -71 -150 -71q-51 0 -83 32.5t-32 85.5q0 180 296 193z" />
    <glyph glyph-name="g.alt" horiz-adv-x="504" 
d="M315 346q0 31 -16 48.5t-44 17.5q-34 0 -55 -29t-21 -69q0 -29 16 -46.5t44 -17.5q34 0 55 28t21 68zM449 -11q0 -73 -74.5 -122t-180.5 -49q-105 0 -170 32.5t-65 87.5q0 70 101 121q-22 19 -22 50q0 48 79 84q-70 39 -70 121q0 79 58.5 131.5t147.5 52.5q87 0 142 -45
l124 44v-113l-78 -2q5 -20 5 -40q0 -77 -59.5 -127t-146.5 -50q-34 0 -62 6q-14 -13 -14 -23t11 -16t41 -11l85 -14q74 -13 111 -40t37 -78zM197 -104q50 0 82 17t32 40q0 29 -55 40l-123 20q-4 1 -14 3q-37 -31 -37 -59q0 -27 31 -44t84 -17z" />
    <glyph glyph-name="uni039C.alt" horiz-adv-x="870" 
d="M770 0h-166l70 442l-211 -445h-154l-72 445l-70 -442h-145l109 690h224l78 -474l227 474h219z" />
    <glyph glyph-name="uni0414.alt" horiz-adv-x="753" 
d="M416 519l-192 -386h262zM513 -162l26 162h-402l-24 -155h-161l49 305h63l282 543h203l112 -544h62l-46 -292z" />
    <glyph glyph-name="uni041B.alt" horiz-adv-x="656" 
d="M484 693l124 -670l-178 -30l-70 480l-218 -473h-168l350 693h160z" />
    <glyph glyph-name="uni041B.bgr" horiz-adv-x="656" 
d="M484 693l124 -670l-178 -30l-70 480l-218 -473h-168l350 693h160z" />
    <glyph glyph-name="uni041C.alt" horiz-adv-x="870" 
d="M770 0h-166l70 442l-211 -445h-154l-72 445l-70 -442h-145l109 690h224l78 -474l227 474h219z" />
    <glyph glyph-name="uni0424.bgr" horiz-adv-x="868" 
d="M463 -96h-168l16 102q-121 21 -191.5 100.5t-70.5 201.5q0 162 103 265q102 102 267 117l15 93h169l-16 -99q122 -22 192 -101.5t70 -200.5q0 -160 -103 -265q-104 -102 -268 -117zM214 314q0 -148 123 -179l67 424q-70 -13 -120 -63q-70 -70 -70 -182zM684 376
q0 148 -122 179l-68 -424q70 13 120 63q70 70 70 182z" />
    <glyph glyph-name="uni0430.alt" horiz-adv-x="495" 
d="M195 94q35 0 87 45l15 89q-73 -7 -105 -33.5t-32 -61.5q0 -39 35 -39zM312 317q6 39 -9 54.5t-57 15.5q-62 0 -152 -37v112q101 38 195 38q104 0 143.5 -45.5t24.5 -136.5l-36 -219v-99h-138l-5 61q-76 -71 -150 -71q-51 0 -83 32.5t-32 85.5q0 180 296 193z" />
    <glyph glyph-name="uni0431.srb" horiz-adv-x="510" 
d="M238 -10q-102 0 -158 58.5t-56 149.5q0 174 177 249q-56 50 -56 110q0 106 150 129l242 36v-131l-213 -27q-28 -5 -28 -24q0 -10 9 -20.5t41 -36.5q73 -58 103.5 -111.5t30.5 -126.5q0 -112 -67 -183.5t-175 -71.5zM242 105q41 0 68 38t27 98q0 75 -58 129
q-110 -54 -110 -167q0 -46 19.5 -72t53.5 -26z" />
    <glyph glyph-name="uni0432.bgr" horiz-adv-x="542" 
d="M21 54l66 426q18 113 80 175t165 62q92 0 146 -51.5t54 -132.5q0 -138 -132 -189q104 -41 104 -142q0 -93 -68.5 -152t-185.5 -59q-114 0 -229 63zM230 471l-12 -74h34q65 0 102 36t37 92q0 35 -17 55t-47 20q-75 0 -97 -129zM254 108q48 0 76.5 28t28.5 72q0 85 -113 85
h-44l-27 -168q37 -17 79 -17z" />
    <glyph glyph-name="uni0433.srb" horiz-adv-x="289" 
d="M326 557h-301l17 105h301zM240 9q-43 -16 -91 -16q-119 0 -119 111q0 31 7 73l52 313h147l-54 -326q-3 -17 -3 -32q0 -24 27 -24q16 0 34 6v-105z" />
    <glyph glyph-name="uni0434.srb" horiz-adv-x="517" 
d="M339 373q-17 7 -42 7q-52 0 -88 -48.5t-36 -129.5q0 -71 52 -71q35 0 82 50zM498 461l-66 -423q-20 -121 -83.5 -170.5t-163.5 -49.5q-114 0 -204 44l37 113q80 -41 155 -41q92 0 110 98l9 44q-69 -69 -130 -69q-63 0 -100 44.5t-37 126.5q0 147 82.5 232.5t198.5 85.5
q89 0 192 -35z" />
    <glyph glyph-name="uni0434.bgr" horiz-adv-x="517" 
d="M339 373q-17 7 -42 7q-52 0 -88 -48.5t-36 -129.5q0 -71 52 -71q35 0 82 50zM498 461l-66 -423q-20 -121 -83.5 -170.5t-163.5 -49.5q-114 0 -204 44l37 113q80 -41 155 -41q92 0 110 98l9 44q-69 -69 -130 -69q-63 0 -100 44.5t-37 126.5q0 147 82.5 232.5t198.5 85.5
q89 0 192 -35z" />
    <glyph glyph-name="uni0436.bgr" horiz-adv-x="733" 
d="M547 -7l-115 231l-32 -224h-147l40 224l-166 -224h-159l201 262l-117 213l145 22l106 -213l63 415l150 23l-74 -435l159 203h159l-194 -241l127 -234z" />
    <glyph glyph-name="uni043A.bgr" horiz-adv-x="491" 
d="M159 0h-147l111 696l151 26l-70 -428l150 196h164l-185 -232l117 -240l-148 -25l-109 236z" />
    <glyph glyph-name="uni043F.srb" horiz-adv-x="520" 
d="M457 557h-301l17 105h301zM30 98q0 20 4 50l55 342h147l-48 -304q-4 -16 -4 -33q0 -32 31 -32t96 62l49 307h147l-59 -368v-122h-138l-6 89q-49 -48 -89 -73.5t-85 -25.5q-48 0 -74 29t-26 79z" />
    <glyph glyph-name="uni0442.srb" horiz-adv-x="783" 
d="M718 558h-563l16 103h564zM567 90q-102 -100 -173 -100q-46 0 -70.5 27.5t-25.5 69.5q-97 -97 -170 -97q-47 0 -72.5 29.5t-25.5 79.5q0 23 5 50l54 341h147l-49 -303q-3 -30 -3 -34q0 -32 28 -32q33 0 95 63l49 306h147l-48 -303q-4 -20 -4 -34q0 -32 29 -32q32 0 94 63
l48 306h147l-58 -367v-123h-139z" />
    <glyph glyph-name="uni0448.srb" horiz-adv-x="783" 
d="M567 90q-102 -100 -173 -100q-46 0 -70.5 27.5t-25.5 69.5q-97 -97 -170 -97q-47 0 -72.5 29.5t-25.5 79.5q0 23 5 50l54 341h147l-49 -303q-3 -30 -3 -34q0 -32 28 -32q33 0 95 63l49 306h147l-48 -303q-4 -20 -4 -34q0 -32 29 -32q32 0 94 63l48 306h147l-58 -367v-123
h-139zM619 -178h-567l17 102h566z" />
    <glyph glyph-name="uni044E.bgr" horiz-adv-x="729" 
d="M455 -10q-90 0 -141.5 55t-56.5 146h-68l-30 -191h-147l112 699l150 23l-65 -412h62q25 86 86.5 138t146.5 52q93 0 145.5 -59.5t52.5 -157.5q0 -125 -68.5 -209t-178.5 -84zM557 284q0 99 -62 99q-43 0 -70 -54t-27 -123q0 -99 62 -99q43 0 70 54t27 123z" />
    <glyph glyph-name="aacute.alt" horiz-adv-x="495" 
d="M494 668l-156 -121h-94l81 151zM195 94q35 0 87 45l15 89q-73 -7 -105 -33.5t-32 -61.5q0 -39 35 -39zM312 317q6 39 -9 54.5t-57 15.5q-62 0 -152 -37v112q101 38 195 38q104 0 143.5 -45.5t24.5 -136.5l-36 -219v-99h-138l-5 61q-76 -71 -150 -71q-51 0 -83 32.5
t-32 85.5q0 180 296 193z" />
    <glyph glyph-name="abreve.alt" horiz-adv-x="495" 
d="M464 682q-34 -136 -161 -136q-65 0 -98 35.5t-32 100.5l79 14q9 -57 59 -57q47 0 76 57zM195 94q35 0 87 45l15 89q-73 -7 -105 -33.5t-32 -61.5q0 -39 35 -39zM312 317q6 39 -9 54.5t-57 15.5q-62 0 -152 -37v112q101 38 195 38q104 0 143.5 -45.5t24.5 -136.5l-36 -219
v-99h-138l-5 61q-76 -71 -150 -71q-51 0 -83 32.5t-32 85.5q0 180 296 193z" />
    <glyph glyph-name="acircumflex.alt" horiz-adv-x="495" 
d="M457 547h-92l-58 58l-79 -58h-89l117 147h127zM195 94q35 0 87 45l15 89q-73 -7 -105 -33.5t-32 -61.5q0 -39 35 -39zM312 317q6 39 -9 54.5t-57 15.5q-62 0 -152 -37v112q101 38 195 38q104 0 143.5 -45.5t24.5 -136.5l-36 -219v-99h-138l-5 61q-76 -71 -150 -71
q-51 0 -83 32.5t-32 85.5q0 180 296 193z" />
    <glyph glyph-name="adieresis.alt" horiz-adv-x="495" 
d="M266 548h-120l20 131h122zM450 548h-121l21 131h121zM195 94q35 0 87 45l15 89q-73 -7 -105 -33.5t-32 -61.5q0 -39 35 -39zM312 317q6 39 -9 54.5t-57 15.5q-62 0 -152 -37v112q101 38 195 38q104 0 143.5 -45.5t24.5 -136.5l-36 -219v-99h-138l-5 61q-76 -71 -150 -71
q-51 0 -83 32.5t-32 85.5q0 180 296 193z" />
    <glyph glyph-name="agrave.alt" horiz-adv-x="495" 
d="M349 547h-93l-128 121l183 30zM195 94q35 0 87 45l15 89q-73 -7 -105 -33.5t-32 -61.5q0 -39 35 -39zM312 317q6 39 -9 54.5t-57 15.5q-62 0 -152 -37v112q101 38 195 38q104 0 143.5 -45.5t24.5 -136.5l-36 -219v-99h-138l-5 61q-76 -71 -150 -71q-51 0 -83 32.5
t-32 85.5q0 180 296 193z" />
    <glyph glyph-name="amacron.alt" horiz-adv-x="495" 
d="M450 557h-301l17 105h301zM195 94q35 0 87 45l15 89q-73 -7 -105 -33.5t-32 -61.5q0 -39 35 -39zM312 317q6 39 -9 54.5t-57 15.5q-62 0 -152 -37v112q101 38 195 38q104 0 143.5 -45.5t24.5 -136.5l-36 -219v-99h-138l-5 61q-76 -71 -150 -71q-51 0 -83 32.5t-32 85.5
q0 180 296 193z" />
    <glyph glyph-name="aogonek.alt" horiz-adv-x="495" 
d="M195 94q35 0 87 45l15 89q-73 -7 -105 -33.5t-32 -61.5q0 -39 35 -39zM391 -184q-45 -19 -95 -19q-45 0 -68 20t-23 52q0 54 78 132l-5 60q-76 -71 -150 -71q-51 0 -83 32.5t-32 85.5q0 180 296 193l3 16q6 39 -9 54.5t-57 15.5q-62 0 -152 -37v112q101 38 195 38
q104 0 143.5 -45.5t24.5 -136.5l-36 -219v-99h-45l-14 -17q-41 -52 -41 -73q0 -25 33 -25q15 0 49 6z" />
    <glyph glyph-name="aring.alt" horiz-adv-x="495" 
d="M316 546q-65 0 -99.5 31.5t-34.5 81.5q0 48 34.5 80t99.5 32q64 0 99 -32t35 -80q0 -50 -35 -81.5t-99 -31.5zM316 603q24 0 38.5 15.5t14.5 40.5t-14.5 40.5t-38.5 15.5t-38.5 -15.5t-14.5 -40.5t14.5 -40.5t38.5 -15.5zM195 94q35 0 87 45l15 89q-73 -7 -105 -33.5
t-32 -61.5q0 -39 35 -39zM312 317q6 39 -9 54.5t-57 15.5q-62 0 -152 -37v112q101 38 195 38q104 0 143.5 -45.5t24.5 -136.5l-36 -219v-99h-138l-5 61q-76 -71 -150 -71q-51 0 -83 32.5t-32 85.5q0 180 296 193z" />
    <glyph glyph-name="aringacute.alt" horiz-adv-x="495" 
d="M519 921l-156 -121h-94l81 151zM316 546q-65 0 -99.5 31.5t-34.5 81.5q0 48 34.5 80t99.5 32q64 0 99 -32t35 -80q0 -50 -35 -81.5t-99 -31.5zM316 603q24 0 38.5 15.5t14.5 40.5t-14.5 40.5t-38.5 15.5t-38.5 -15.5t-14.5 -40.5t14.5 -40.5t38.5 -15.5zM195 94
q35 0 87 45l15 89q-73 -7 -105 -33.5t-32 -61.5q0 -39 35 -39zM312 317q6 39 -9 54.5t-57 15.5q-62 0 -152 -37v112q101 38 195 38q104 0 143.5 -45.5t24.5 -136.5l-36 -219v-99h-138l-5 61q-76 -71 -150 -71q-51 0 -83 32.5t-32 85.5q0 180 296 193z" />
    <glyph glyph-name="atilde.alt" horiz-adv-x="495" 
d="M477 686q-18 -76 -42.5 -107.5t-62.5 -31.5q-23 0 -63 20q-42 21 -57 21q-21 0 -37 -44l-68 15q18 77 43 108.5t63 31.5q28 0 63 -20q41 -21 57 -21q11 0 19 9.5t18 35.5zM195 94q35 0 87 45l15 89q-73 -7 -105 -33.5t-32 -61.5q0 -39 35 -39zM312 317q6 39 -9 54.5
t-57 15.5q-62 0 -152 -37v112q101 38 195 38q104 0 143.5 -45.5t24.5 -136.5l-36 -219v-99h-138l-5 61q-76 -71 -150 -71q-51 0 -83 32.5t-32 85.5q0 180 296 193z" />
    <glyph glyph-name="gbreve.alt" horiz-adv-x="504" 
d="M457 682q-34 -136 -161 -136q-65 0 -98 35.5t-32 100.5l79 14q9 -57 59 -57q48 0 76 57zM315 346q0 31 -16 48.5t-44 17.5q-34 0 -55 -29t-21 -69q0 -29 16 -46.5t44 -17.5q34 0 55 28t21 68zM449 -11q0 -73 -74.5 -122t-180.5 -49q-105 0 -170 32.5t-65 87.5
q0 70 101 121q-22 19 -22 50q0 48 79 84q-70 39 -70 121q0 79 58.5 131.5t147.5 52.5q87 0 142 -45l124 44v-113l-78 -2q5 -20 5 -40q0 -77 -59.5 -127t-146.5 -50q-34 0 -62 6q-14 -13 -14 -23t11 -16t41 -11l85 -14q74 -13 111 -40t37 -78zM197 -104q50 0 82 17t32 40
q0 29 -55 40l-123 20q-4 1 -14 3q-37 -31 -37 -59q0 -27 31 -44t84 -17z" />
    <glyph glyph-name="gcommaaccent.alt" horiz-adv-x="504" 
d="M378 563l-125 -23q-32 32 -32 70q0 77 111 146l90 -19q-69 -65 -69 -114q0 -28 25 -60zM315 346q0 31 -16 48.5t-44 17.5q-34 0 -55 -29t-21 -69q0 -29 16 -46.5t44 -17.5q34 0 55 28t21 68zM449 -11q0 -73 -74.5 -122t-180.5 -49q-105 0 -170 32.5t-65 87.5
q0 70 101 121q-22 19 -22 50q0 48 79 84q-70 39 -70 121q0 79 58.5 131.5t147.5 52.5q87 0 142 -45l124 44v-113l-78 -2q5 -20 5 -40q0 -77 -59.5 -127t-146.5 -50q-34 0 -62 6q-14 -13 -14 -23t11 -16t41 -11l85 -14q74 -13 111 -40t37 -78zM197 -104q50 0 82 17t32 40
q0 29 -55 40l-123 20q-4 1 -14 3q-37 -31 -37 -59q0 -27 31 -44t84 -17z" />
    <glyph glyph-name="gdotaccent.alt" horiz-adv-x="504" 
d="M354 548h-125l21 131h125zM315 346q0 31 -16 48.5t-44 17.5q-34 0 -55 -29t-21 -69q0 -29 16 -46.5t44 -17.5q34 0 55 28t21 68zM449 -11q0 -73 -74.5 -122t-180.5 -49q-105 0 -170 32.5t-65 87.5q0 70 101 121q-22 19 -22 50q0 48 79 84q-70 39 -70 121q0 79 58.5 131.5
t147.5 52.5q87 0 142 -45l124 44v-113l-78 -2q5 -20 5 -40q0 -77 -59.5 -127t-146.5 -50q-34 0 -62 6q-14 -13 -14 -23t11 -16t41 -11l85 -14q74 -13 111 -40t37 -78zM197 -104q50 0 82 17t32 40q0 29 -55 40l-123 20q-4 1 -14 3q-37 -31 -37 -59q0 -27 31 -44t84 -17z" />
    <glyph glyph-name="Uacute.alt" horiz-adv-x="664" 
d="M605 860l-156 -121h-94l81 151zM672 690l-109 -690h-143v69q-100 -77 -199 -77q-81 0 -124.5 43.5t-42.5 125.5q0 42 5 75l72 454h169l-71 -448q-3 -18 -3 -36q-1 -70 66 -70q58 0 132 57l79 497h169z" />
    <glyph glyph-name="Ubreve.alt" horiz-adv-x="664" 
d="M576 869q-34 -136 -161 -136q-65 0 -98 35.5t-32 100.5l79 14q9 -57 59 -57q47 0 76 57zM672 690l-109 -690h-143v69q-100 -77 -199 -77q-81 0 -124.5 43.5t-42.5 125.5q0 42 5 75l72 454h169l-71 -448q-3 -18 -3 -36q-1 -70 66 -70q58 0 132 57l79 497h169z" />
    <glyph glyph-name="Ucircumflex.alt" horiz-adv-x="664" 
d="M568 739h-92l-58 58l-79 -58h-89l117 147h127zM672 690l-109 -690h-143v69q-100 -77 -199 -77q-81 0 -124.5 43.5t-42.5 125.5q0 42 5 75l72 454h169l-71 -448q-3 -18 -3 -36q-1 -70 66 -70q58 0 132 57l79 497h169z" />
    <glyph glyph-name="Udieresis.alt" horiz-adv-x="664" 
d="M377 740h-120l20 131h122zM561 740h-121l21 131h121zM672 690l-109 -690h-143v69q-100 -77 -199 -77q-81 0 -124.5 43.5t-42.5 125.5q0 42 5 75l72 454h169l-71 -448q-3 -18 -3 -36q-1 -70 66 -70q58 0 132 57l79 497h169z" />
    <glyph glyph-name="Ugrave.alt" horiz-adv-x="664" 
d="M460 739h-93l-128 121l183 30zM672 690l-109 -690h-143v69q-100 -77 -199 -77q-81 0 -124.5 43.5t-42.5 125.5q0 42 5 75l72 454h169l-71 -448q-3 -18 -3 -36q-1 -70 66 -70q58 0 132 57l79 497h169z" />
    <glyph glyph-name="Uhungarumlaut.alt" horiz-adv-x="664" 
d="M510 860l-152 -120h-95l87 150zM681 860l-151 -120h-95l94 150zM672 690l-109 -690h-143v69q-100 -77 -199 -77q-81 0 -124.5 43.5t-42.5 125.5q0 42 5 75l72 454h169l-71 -448q-3 -18 -3 -36q-1 -70 66 -70q58 0 132 57l79 497h169z" />
    <glyph glyph-name="Umacron.alt" horiz-adv-x="664" 
d="M561 749h-301l17 105h301zM672 690l-109 -690h-143v69q-100 -77 -199 -77q-81 0 -124.5 43.5t-42.5 125.5q0 42 5 75l72 454h169l-71 -448q-3 -18 -3 -36q-1 -70 66 -70q58 0 132 57l79 497h169z" />
    <glyph glyph-name="Uogonek.alt" horiz-adv-x="669" 
d="M527 -184q-45 -19 -95 -19q-45 0 -68 20t-23 52q0 54 79 133v67q-100 -77 -199 -77q-81 0 -124.5 43.5t-42.5 125.5q0 42 5 75l72 454h169l-71 -448q-3 -18 -3 -36q-1 -70 66 -70q58 0 132 57l79 497h169l-109 -690h-51l-14 -17q-41 -52 -41 -73q0 -25 33 -25q15 0 49 6z
" />
    <glyph glyph-name="Uring.alt" horiz-adv-x="664" 
d="M424 728q-65 0 -99.5 31.5t-34.5 81.5q0 48 34.5 80t99.5 32q64 0 99 -32t35 -80q0 -50 -35 -81.5t-99 -31.5zM424 785q24 0 38.5 15.5t14.5 40.5t-14.5 40.5t-38.5 15.5t-38.5 -15.5t-14.5 -40.5t14.5 -40.5t38.5 -15.5zM672 690l-109 -690h-143v69q-100 -77 -199 -77
q-81 0 -124.5 43.5t-42.5 125.5q0 42 5 75l72 454h169l-71 -448q-3 -18 -3 -36q-1 -70 66 -70q58 0 132 57l79 497h169z" />
    <glyph glyph-name="Wacute.alt" horiz-adv-x="980" 
d="M755 863l-156 -121h-94l81 151zM557 -1l-57 312l-150 -312h-158l-113 670l177 28l66 -475l141 290l-29 157l173 28l64 -466l194 459h174l-325 -691h-157z" />
    <glyph glyph-name="Wcircumflex.alt" horiz-adv-x="980" 
d="M719 742h-92l-58 58l-79 -58h-89l117 147h127zM557 -1l-57 312l-150 -312h-158l-113 670l177 28l66 -475l141 290l-29 157l173 28l64 -466l194 459h174l-325 -691h-157z" />
    <glyph glyph-name="Wdieresis.alt" horiz-adv-x="980" 
d="M528 743h-120l20 131h122zM712 743h-121l21 131h121zM557 -1l-57 312l-150 -312h-158l-113 670l177 28l66 -475l141 290l-29 157l173 28l64 -466l194 459h174l-325 -691h-157z" />
    <glyph glyph-name="Wgrave.alt" horiz-adv-x="980" 
d="M611 742h-93l-128 121l183 30zM557 -1l-57 312l-150 -312h-158l-113 670l177 28l66 -475l141 290l-29 157l173 28l64 -466l194 459h174l-325 -691h-157z" />
    <glyph glyph-name="uni0386.calt" horiz-adv-x="663" 
d="M444 -7l-22 150h-216l-66 -143h-166l347 693h173l121 -670zM372 514l-108 -238h141z" />
    <glyph glyph-name="uni0388.calt" 
d="M541 690l-21 -138h-243l-20 -127h182v-137h-204l-24 -150h251l-22 -138h-418l109 690h410z" />
    <glyph glyph-name="uni0389.calt" horiz-adv-x="675" 
d="M684 690l-109 -690h-170l45 280h-214l-44 -280h-170l109 690h170l-42 -261h215l40 261h170z" />
    <glyph glyph-name="uni038A.calt" horiz-adv-x="298" 
d="M304 690l-109 -690h-170l109 690h170z" />
    <glyph glyph-name="uni038C.calt" horiz-adv-x="690" 
d="M327 -13q-131 0 -205 80t-74 223q0 96 31 181t89 142q88 90 222 90q131 0 205 -80t74 -223q0 -96 -31 -181t-88 -142q-90 -90 -223 -90zM330 116q47 0 86 39q35 35 58 106t23 155q0 158 -109 158q-48 0 -87 -39q-34 -33 -57 -105t-23 -156q0 -158 109 -158z" />
    <glyph glyph-name="uni038E.calt" horiz-adv-x="631" 
d="M703 690l-305 -437l-41 -253h-170l40 250l-160 419l177 28l97 -282l178 275h184z" />
    <glyph glyph-name="uni038F.calt" horiz-adv-x="712" 
d="M310 119l-38 -119h-254l20 132l106 -3q-83 99 -83 226q0 144 97 245.5t250 101.5q137 0 212.5 -76t75.5 -197q0 -91 -40 -161t-122 -139l104 3l-21 -132h-255v119l38 38q65 65 96.5 125.5t31.5 137.5q0 69 -34.5 110t-95.5 41q-78 0 -125.5 -66.5t-47.5 -167.5
q0 -92 58 -181z" />
    <glyph glyph-name="uni0399.calt" horiz-adv-x="298" 
d="M195 743h-120l20 131h122zM379 743h-121l21 131h121zM304 690l-109 -690h-170l109 690h170z" />
    <glyph glyph-name="uni03A5.calt" horiz-adv-x="631" 
d="M357 740h-120l20 131h122zM541 740h-121l21 131h121zM703 690l-305 -437l-41 -253h-170l40 250l-160 419l177 28l97 -282l178 275h184z" />
    <glyph glyph-name="uni0409.alt" horiz-adv-x="922" 
d="M429 0l-69 473l-218 -473h-167l349 693h158l43 -231h109q129 0 196 -52t67 -152q0 -121 -85 -189.5t-231 -68.5h-152zM547 338l40 -214h7q61 0 99 32t38 89q0 93 -112 93h-72z" />
    <glyph glyph-name="uni04D1.alt" horiz-adv-x="495" 
d="M465 686q-34 -136 -161 -136q-65 0 -98 35.5t-32 100.5l79 14q9 -57 59 -57q48 0 76 57zM195 94q35 0 87 45l15 89q-73 -7 -105 -33.5t-32 -61.5q0 -39 35 -39zM312 317q6 39 -9 54.5t-57 15.5q-62 0 -152 -37v112q101 38 195 38q104 0 143.5 -45.5t24.5 -136.5l-36 -219
v-99h-138l-5 61q-76 -71 -150 -71q-51 0 -83 32.5t-32 85.5q0 180 296 193z" />
    <glyph glyph-name="uni04D3.alt" horiz-adv-x="495" 
d="M266 552h-120l20 131h122zM450 552h-121l21 131h121zM195 94q35 0 87 45l15 89q-73 -7 -105 -33.5t-32 -61.5q0 -39 35 -39zM312 317q6 39 -9 54.5t-57 15.5q-62 0 -152 -37v112q101 38 195 38q104 0 143.5 -45.5t24.5 -136.5l-36 -219v-99h-138l-5 61q-76 -71 -150 -71
q-51 0 -83 32.5t-32 85.5q0 180 296 193z" />
    <glyph glyph-name="three.alt" horiz-adv-x="533" 
d="M491 232q0 -110 -77.5 -177.5t-201.5 -67.5q-121 0 -214 56l40 130q88 -52 172 -52q53 0 85 27t32 71q0 77 -122 77h-55v98l185 151h-231v131h445l-18 -121l-192 -155q152 -26 152 -168z" />
    <glyph glyph-name="four.alt" horiz-adv-x="591" 
d="M559 135h-96l-21 -135h-139l23 135h-317l16 103l351 445l139 -37l-324 -399h152l25 155l144 36l-30 -191h96z" />
    <glyph glyph-name="comma.alt" horiz-adv-x="257" 
d="M42 172h155q3 -24 3 -44q0 -71 -38.5 -137.5t-126.5 -141.5l-78 40q88 120 88 234q0 1 -3 49z" />
    <glyph glyph-name="semicolon.alt" horiz-adv-x="265" 
d="M66 313l28 177h161l-27 -177h-162zM30 -151l-77 40q88 121 88 234q0 17 -4 49h156q0 -4 1.5 -20t1.5 -24q-1 -71 -39.5 -138t-126.5 -141z" />
    <glyph glyph-name="quotedblleft.alt" horiz-adv-x="473" 
d="M431 701l75 -37q-63 -119 -63 -222q0 -18 4 -58h-149q-4 21 -4 47q0 137 137 270zM208 701l75 -37q-62 -120 -62 -222q0 -31 4 -58h-150q-4 21 -4 47q0 137 137 270z" />
    <glyph glyph-name="quotedblright.alt" horiz-adv-x="473" 
d="M357 373l-75 37q62 120 62 222q0 18 -4 58h150q4 -32 4 -47q0 -137 -137 -270zM134 373l-75 37q63 122 63 222q0 25 -5 58h150q4 -21 4 -47q0 -137 -137 -270z" />
    <glyph glyph-name="quoteleft.alt" horiz-adv-x="251" 
d="M208 701l75 -37q-62 -120 -62 -222q0 -31 4 -58h-150q-4 21 -4 47q0 137 137 270z" />
    <glyph glyph-name="quoteright.alt" horiz-adv-x="251" 
d="M134 373l-75 37q63 122 63 222q0 25 -5 58h150q4 -21 4 -47q0 -137 -137 -270z" />
    <glyph glyph-name="quotedblbase.alt" horiz-adv-x="473" 
d="M275 -145l-75 37q62 120 62 222q0 31 -4 58h150q4 -21 4 -47q0 -137 -137 -270zM52 -145l-75 37q63 119 63 222q0 18 -4 58h149q4 -21 4 -47q0 -137 -137 -270z" />
    <glyph glyph-name="quotesinglbase.alt" horiz-adv-x="251" 
d="M52 -145l-75 37q63 119 63 222q0 18 -4 58h149q4 -21 4 -47q0 -137 -137 -270z" />
    <glyph glyph-name="registered.alt" horiz-adv-x="799" 
d="M764 346q0 -160 -96.5 -259.5t-249.5 -99.5q-154 0 -249.5 98.5t-95.5 258.5t96.5 259.5t249.5 99.5q154 0 249.5 -98.5t95.5 -258.5zM720 345q0 151 -85 236.5t-216 85.5q-133 0 -217.5 -85.5t-84.5 -236.5t85 -236.5t217 -85.5t216.5 85.5t84.5 236.5zM577 420
q0 -75 -68 -111l99 -139l-113 -20l-89 133h-23v-128h-109v394h141q77 0 119.5 -33.5t42.5 -95.5zM409 470h-27v-113h27q64 0 64 57q0 56 -64 56z" />
    <glyph glyph-name="servicemark.alt" horiz-adv-x="820" 
d="M581 342l-78 225v-222h-86v345h124l83 -228l78 228h123v-345h-90v222l-78 -225h-76zM236 340q-59 0 -115 28l14 78q58 -34 105 -34q35 0 35 27q0 14 -10.5 23t-38.5 20q-55 23 -76.5 45.5t-21.5 64.5q0 47 33.5 75t83.5 28q54 0 99 -24l-11 -78q-53 30 -89 30
q-33 0 -33 -24q0 -12 9.5 -20.5t34.5 -18.5q59 -25 82 -48.5t23 -65.5q0 -52 -34.5 -79t-89.5 -27z" />
    <glyph glyph-name="trademark.alt" horiz-adv-x="827" 
d="M392 615h-109v-270h-94v270h-103v75h295zM838 345h-90v222l-78 -225h-76l-78 225v-222h-86v345h124l83 -228l78 228h123v-345z" />
    <glyph glyph-name="space.tab" horiz-adv-x="270" 
 />
    <glyph glyph-name="NUL" horiz-adv-x="0" 
 />
    <glyph glyph-name="A.flat" horiz-adv-x="668" 
d="M372 514l-108 -238h141zM443 0l-21 143h-216l-66 -143h-166l347 693h173l125 -693h-176z" />
    <glyph glyph-name="E.flat" 
d="M541 690l-21 -138h-243l-20 -127h193l-22 -137h-193l-24 -150h251l-22 -138h-418l109 690h410z" />
    <glyph glyph-name="F.flat" horiz-adv-x="491" 
d="M532 690l-22 -143h-233l-23 -142h185l-23 -142h-184l-41 -263h-169l109 690h401z" />
    <glyph glyph-name="G.flat" horiz-adv-x="652" 
d="M627 396l-57 -344q-108 -65 -238 -65q-132 0 -209.5 78t-77.5 213q0 183 107.5 304t269.5 121q114 0 210 -51l-45 -144q-78 54 -161 54q-93 0 -150.5 -78.5t-57.5 -197.5q0 -82 36.5 -123t98.5 -41q46 0 87 18l19 130h-117l20 126h265z" />
    <glyph glyph-name="K.flat" horiz-adv-x="621" 
d="M677 690l-272 -333l187 -357h-193l-158 320l-49 -320h-170l109 690h170l-48 -295l229 295h195z" />
    <glyph glyph-name="L.flat" horiz-adv-x="478" 
d="M410 0h-388l109 690h170l-86 -543h218z" />
    <glyph glyph-name="Q.alt_flat" horiz-adv-x="697" 
d="M628 -13l-99 76q-87 -76 -202 -76q-131 0 -205 80t-74 223q0 96 31 181t89 142q88 90 222 90q131 0 205 -80t74 -223q0 -126 -54 -229l45 -33zM331 113q48 0 85 37l-69 52l31 146l102 -77q20 66 20 144q0 159 -111 159q-46 0 -87 -39q-35 -35 -58 -106.5t-23 -155.5
q0 -160 110 -160z" />
    <glyph glyph-name="R.flat" horiz-adv-x="594" 
d="M417 481q0 85 -103 85h-38l-31 -206h36q65 0 100.5 31.5t35.5 89.5zM581 495q0 -81 -39.5 -135.5t-108.5 -80.5l125 -279h-188l-102 241h-41l-38 -241h-167l109 690h198q121 0 186.5 -49t65.5 -146z" />
    <glyph glyph-name="T.flat" horiz-adv-x="585" 
d="M614 548h-189l-86 -548h-170l87 548h-190l23 142h549z" />
    <glyph glyph-name="V.flat" horiz-adv-x="650" 
d="M709 690l-346 -693h-160l-125 693h183l66 -473l214 473h168z" />
    <glyph glyph-name="W.flat" horiz-adv-x="973" 
d="M1027 690l-297 -690h-160l-57 434l-197 -434h-154l-78 690h190l28 -425l186 425h165l51 -425l161 425h162z" />
    <glyph glyph-name="W.alt_flat" horiz-adv-x="982" 
d="M559 -1l-57 311l-150 -311h-158l-117 691h182l65 -468l141 289l-32 179h177l63 -459l194 459h174l-324 -691h-158z" />
    <glyph glyph-name="X.flat" horiz-adv-x="621" 
d="M396 0l-88 225l-155 -225h-185l265 359l-147 331h189l75 -197l135 197h185l-244 -333l160 -357h-190z" />
    <glyph glyph-name="Y.flat" horiz-adv-x="634" 
d="M707 690l-306 -437l-40 -253h-171l40 250l-167 440h187l95 -275l178 275h184z" />
    <glyph glyph-name="Z.flat" horiz-adv-x="576" 
d="M609 690l-19 -123l-366 -432h297l-22 -135h-505l20 123l365 432h-273l21 135h482z" />
    <glyph glyph-name="f.flat" horiz-adv-x="329" 
d="M385 596q-25 6 -48 6q-28 0 -44 -14t-22 -47l-9 -51h93l-19 -121h-92l-83 -532l-150 -23l87 555h-68l19 121h68l12 71q13 75 54.5 115.5t124.5 40.5q39 0 77 -6v-115z" />
    <glyph glyph-name="k.flat" horiz-adv-x="491" 
d="M159 0h-147l111 696l151 26l-70 -428l150 196h164l-185 -232l125 -258h-159l-106 229z" />
    <glyph glyph-name="t.flat" horiz-adv-x="358" 
d="M342 369h-101l-28 -176q-3 -18 -3 -34q0 -42 44 -42q16 0 43 5v-120q-44 -11 -97 -11q-141 0 -141 122q0 29 5 61l31 195h-61l19 121h61l22 149l151 23l-27 -172h101z" />
    <glyph glyph-name="v.flat" horiz-adv-x="476" 
d="M505 490l-238 -492h-137l-85 492h155l35 -301l127 301h143z" />
    <glyph glyph-name="w.flat" horiz-adv-x="707" 
d="M731 490l-210 -490h-139l-25 296l-117 -296h-136l-56 490h150l16 -295l114 295h135l21 -295l108 295h139z" />
    <glyph glyph-name="x.flat" horiz-adv-x="479" 
d="M279 0l-55 146l-96 -146h-155l181 248l-101 242h152l50 -140l92 140h154l-177 -243l107 -247h-152z" />
    <glyph glyph-name="y.flat" horiz-adv-x="485" 
d="M513 490l-244 -504q-48 -96 -95 -132t-129 -36q-32 0 -56 6v120q30 -7 57 -7q51 0 80 46l10 19l-89 488h156l38 -302l129 302h143z" />
    <glyph glyph-name="z.flat" horiz-adv-x="456" 
d="M456 490l-18 -114l-244 -259h206l-18 -117h-394l18 113l245 259h-185l18 118h372z" />
    <glyph glyph-name="two.flat" horiz-adv-x="539" 
d="M527 512q0 -74 -36.5 -125.5t-123.5 -122.5l-158 -135h260l-20 -129h-450l20 124l258 230q49 43 69 70.5t20 59.5t-21.5 50t-61.5 18q-73 0 -173 -68v137q99 68 213 68q93 0 148.5 -47.5t55.5 -129.5z" />
    <glyph glyph-name="three.flat" horiz-adv-x="522" 
d="M515 525q0 -70 -37 -110.5t-105 -64.5q103 -43 103 -148q0 -102 -69.5 -158.5t-184.5 -56.5q-118 0 -224 57l38 124q94 -49 172 -49q50 0 81.5 24t31.5 68q0 81 -118 81h-57l18 116h59q62 0 97 23t35 64q0 63 -82 63q-78 0 -175 -55v131q107 55 211 55q97 0 151.5 -42.5
t54.5 -121.5z" />
    <glyph glyph-name="three.alt_flat" horiz-adv-x="533" 
d="M491 232q0 -110 -77.5 -177.5t-201.5 -67.5q-121 0 -214 56l40 130q88 -52 172 -52q53 0 85 27t32 71q0 77 -122 77h-55v98l185 151h-242l21 131h435l-18 -121l-192 -155q152 -26 152 -168z" />
    <glyph glyph-name="four.alt_flat" horiz-adv-x="591" 
d="M559 135h-96l-21 -135h-139l23 135h-317l16 103l346 438h168l-348 -429h152l25 157h138l-24 -157h96z" />
    <glyph glyph-name="five.flat" horiz-adv-x="529" 
d="M515 544h-261l-27 -115q131 -15 195 -64.5t64 -141.5q0 -113 -71.5 -174.5t-188.5 -61.5q-110 0 -224 49l41 132q95 -45 183 -45q52 0 79.5 23.5t27.5 63.5q0 49 -58 75t-201 37l79 354h383z" />
    <glyph glyph-name="seven.flat" horiz-adv-x="533" 
d="M563 676l-20 -129l-331 -548h-169l330 538h-290l22 139h458z" />
    <glyph glyph-name="sterling.flat" horiz-adv-x="553" 
d="M494 130l-22 -130h-460l18 116l67 156h-56l20 124h89l56 131q35 83 85.5 122.5t133.5 39.5q75 0 131 -18l-33 -130q-39 14 -79 14q-63 0 -97 -76l-35 -83h137l-19 -124h-170l-60 -142h294z" />
    <glyph glyph-name="Euro.flat" horiz-adv-x="586" 
d="M533 24q-68 -36 -152 -36q-246 0 -272 239h-89l11 77h75q1 36 8 77h-72l12 76h80q37 104 115 168t189 64q107 0 180 -54l-41 -125q-74 50 -139 50q-98 0 -144 -103h207l-12 -76h-218q-6 -30 -8 -77h215l-13 -77h-197q23 -111 138 -111q61 0 127 33v-125z" />
    <glyph glyph-name="yen.flat" horiz-adv-x="633" 
d="M524 82h-158l-13 -82h-158l13 82h-157l11 75h159l10 65h-159l12 76h134l-141 378h171l92 -283l171 283h176l-264 -378h132l-11 -76h-156l-10 -65h157z" />
    <glyph glyph-name="numbersign.flat" horiz-adv-x="627" 
d="M243 264h137l24 148h-137zM336 -2l23 143h-133l-23 -143h-89l23 143h-95v127h115l22 140h-111v127h131l23 143h89l-23 -143h133l23 143h89l-23 -143h95v-127h-115l-22 -140h111v-127h-131l-23 -143h-89z" />
    <glyph glyph-name="ordfeminine.flat" horiz-adv-x="372" 
d="M253 447l10 61q-92 -13 -92 -66q0 -24 23 -24q25 0 59 29zM122 582l1 73q62 26 137 26q132 0 113 -114l-24 -148v-64h-97l-1 41q-53 -48 -108 -48q-36 0 -55.5 20t-19.5 54q0 114 203 134l1 6q1 25 -9.5 35t-39.5 10q-41 0 -101 -25zM321 222h-282l11 73h283z" />
    <glyph glyph-name="ordmasculine.flat" horiz-adv-x="373" 
d="M208 349q-60 0 -97.5 36.5t-37.5 100.5q0 82 49.5 138t129.5 56q61 0 98.5 -36.5t37.5 -100.5q0 -82 -50 -138t-130 -56zM243 598q-30 0 -50 -33t-20 -75q0 -59 45 -59q30 0 50 33t20 75q0 59 -45 59zM326 222h-290l12 73h290z" />
    <glyph glyph-name="percent.flat" horiz-adv-x="828" 
d="M200 275q-66 0 -101 44t-35 121q0 127 72 199q45 45 101 45q66 0 101 -44.5t35 -120.5q0 -60 -19.5 -113t-53.5 -87q-42 -44 -100 -44zM125 0l279 369l228 307h101l-268 -355l-239 -321h-101zM203 362q23 0 41 30q32 50 32 132q0 72 -42 72q-23 0 -41 -29
q-32 -49 -32 -132q0 -73 42 -73zM620 -8q-66 0 -101 44t-35 121q0 60 19.5 113t53.5 87q44 44 101 44q66 0 101 -44.5t35 -120.5q0 -59 -19.5 -112t-53.5 -87q-45 -45 -101 -45zM624 80q24 0 41 30q32 48 32 131q0 73 -43 73q-22 0 -40 -30q-33 -50 -33 -132q0 -72 43 -72z
" />
    <glyph glyph-name="ampersand.flat" horiz-adv-x="643" 
d="M249 104q49 0 97 41l-102 155q-76 -50 -76 -117q0 -35 20.5 -57t60.5 -22zM443 0l-41 61q-91 -74 -195 -74q-91 0 -142 47t-51 122q0 154 175 231q-38 68 -38 127q0 83 54.5 136t149.5 53q100 0 186 -44l-41 -130q-79 42 -135 42q-29 0 -46 -15t-17 -40q0 -30 30 -75
l106 -162q26 61 44 134l119 -30q-35 -118 -96 -208l115 -175h-177z" />
    <glyph glyph-name="exclam.flat" horiz-adv-x="293" 
d="M310 690l-117 -444h-92l24 444h185zM215 170l-27 -170h-162l28 170h161z" />
    <glyph glyph-name="exclamdown.flat" horiz-adv-x="293" 
d="M112 520l27 170h162l-28 -170h-161zM17 0l118 444h91l-24 -444h-185z" />
    <glyph glyph-name="question.flat" horiz-adv-x="483" 
d="M245 246h-87l1 8h-1l13 132l17 6q85 31 117 54.5t32 58.5q0 56 -72 56q-75 0 -186 -70v146q106 66 228 66q94 0 144.5 -46.5t50.5 -126.5q0 -95 -60 -154t-189 -97zM73 0l27 170h162l-27 -170h-162z" />
    <glyph glyph-name="questiondown.flat" horiz-adv-x="482" 
d="M441 691l-27 -170h-162l27 170h162zM207 -12q-94 0 -144.5 46.5t-50.5 126.5q0 95 60 154t189 97l8 33h87l-1 -8h1l-13 -132l-17 -6q-85 -31 -117 -54.5t-32 -58.5q0 -56 72 -56q75 0 186 70v-146q-106 -66 -228 -66z" />
    <glyph glyph-name="guillemotleft.flat" horiz-adv-x="530" 
d="M542 490l-146 -249l67 -241h-105l-119 245l188 245h115zM320 490l-146 -249l67 -241h-105l-118 245l188 245h114z" />
    <glyph glyph-name="guillemotright.flat" horiz-adv-x="530" 
d="M-13 0l146 249l-68 241h106l118 -246l-188 -244h-114zM209 0l145 249l-67 241h105l119 -246l-188 -244h-114z" />
    <glyph glyph-name="guilsinglleft.flat" horiz-adv-x="308" 
d="M320 490l-146 -249l67 -241h-105l-118 245l188 245h114z" />
    <glyph glyph-name="guilsinglright.flat" horiz-adv-x="308" 
d="M-13 0l146 249l-68 241h106l118 -246l-188 -244h-114z" />
    <glyph glyph-name="parenleft.flat" horiz-adv-x="381" 
d="M399 623q-98 -79 -145.5 -168t-48.5 -203q0 -140 91 -244l-35 -106q-98 55 -158.5 144t-59.5 213q2 158 96.5 278.5t259.5 189.5v-104z" />
    <glyph glyph-name="parenright.flat" horiz-adv-x="381" 
d="M3 4q97 80 144.5 168.5t48.5 203.5q0 140 -91 244l35 106q219 -126 218 -357q-1 -158 -95.5 -278.5t-259.5 -189.5v103z" />
    <glyph glyph-name="bracketleft.flat" horiz-adv-x="406" 
d="M445 690l-14 -93h-162l-96 -608h161l-15 -93h-305l126 794h305z" />
    <glyph glyph-name="bracketright.flat" horiz-adv-x="406" 
d="M-25 -104l14 93h162l96 608h-161l15 93h305l-126 -794h-305z" />
    <glyph glyph-name="braceleft.flat" horiz-adv-x="478" 
d="M511 690l-14 -93h-84q-74 0 -75 -80v-68q-1 -68 -33 -104.5t-97 -51.5v-2q49 -11 69.5 -34.5t19.5 -65.5q-1 -28 -18 -84t-17 -73q-1 -22 14 -33.5t43 -11.5h81l-14 -93h-148q-62 0 -94.5 27t-31.5 78q0 29 18.5 91.5t18.5 86.5q0 36 -21 52.5t-68 16.5h-29l15 91h30
q60 0 88 28.5t29 95.5v65q1 75 44 118.5t126 43.5h148z" />
    <glyph glyph-name="braceright.flat" horiz-adv-x="473" 
d="M-23 -104l14 93h84q74 0 74 80v68q1 69 33 105t97 51v2q-48 11 -68.5 34.5t-20.5 65.5q1 28 18.5 84t17.5 74q0 44 -57 44h-81l14 93h148q62 0 94.5 -27t31.5 -78q-1 -29 -19 -91t-18 -87q-1 -35 20 -52t68 -17h30l-15 -91h-31q-60 0 -88 -28.5t-29 -95.5v-65
q0 -75 -43 -118.5t-126 -43.5h-148z" />
    <glyph glyph-name="registered.alt_flat" horiz-adv-x="799" 
d="M764 346q0 -160 -96.5 -259.5t-249.5 -99.5q-154 0 -249.5 98.5t-95.5 258.5t96.5 259.5t249.5 99.5q154 0 249.5 -98.5t95.5 -258.5zM720 345q0 151 -85 236.5t-216 85.5q-133 0 -217.5 -85.5t-84.5 -236.5t85 -236.5t217 -85.5t216.5 85.5t84.5 236.5zM382 470v-113h27
q64 0 64 57q0 56 -64 56h-27zM619 155h-128l-85 128h-23v-128h-109v394h141q77 0 119.5 -33.5t42.5 -95.5q0 -75 -68 -111z" />
    <glyph glyph-name="registered.flat" horiz-adv-x="563" 
d="M545 470q0 -103 -63.5 -167.5t-163.5 -64.5q-101 0 -163.5 64t-62.5 168q0 103 63.5 168t163.5 65t163 -64.5t63 -168.5zM513 470q0 96 -55.5 151t-138.5 55q-85 0 -140 -55t-55 -151q0 -95 55.5 -150t138.5 -55q85 0 140 55t55 150zM355 521q0 35 -40 35h-20v-71h20
q40 0 40 36zM447 350h-82l-57 89h-13v-89h-70v256h98q48 0 74.5 -20.5t26.5 -59.5q0 -52 -47 -71z" />
    <glyph glyph-name="trademark.flat" horiz-adv-x="812" 
d="M386 615h-103v-270h-94v270h-103v75h300v-75zM836 345h-96l-14 216l-64 -218h-87l-64 218l-14 -216h-82l26 345h120l67 -225l67 225h115z" />
    <glyph glyph-name="trademark.alt_flat" horiz-adv-x="827" 
d="M386 615h-103v-270h-94v270h-103v75h300v-75zM838 345h-90v222l-78 -225h-76l-78 225v-222h-86v345h124l83 -228l78 228h123v-345z" />
    <glyph glyph-name="AE.flat" horiz-adv-x="867" 
d="M432 276l46 297l-183 -297h137zM388 0l23 143h-195l-90 -143h-167l445 690h492l-21 -138h-232l-20 -127h182l-22 -137h-182l-24 -150h240l-22 -138h-407z" />
    <glyph glyph-name="OE.flat" horiz-adv-x="852" 
d="M379 0q-163 0 -249.5 73.5t-86.5 215.5q0 178 109 285q115 116 331 116h398l-20 -138h-233l-20 -127h182l-21 -137h-183l-24 -150h241l-22 -138h-402zM379 130h15l69 430h-9q-101 0 -168 -65q-72 -72 -72 -197q0 -168 165 -168z" />
    <glyph glyph-name="Eth.flat" horiz-adv-x="694" 
d="M237 130h27q102 0 167 65q72 72 72 197q0 168 -164 168h-33l-22 -137h108l-23 -138h-107zM234 0h-183l45 283h-80l23 143h79l42 264h179q164 0 250 -73.5t86 -215.5q0 -178 -109 -285q-116 -116 -332 -116z" />
    <glyph glyph-name="Dcroat.flat" horiz-adv-x="694" 
d="M237 130h27q102 0 167 65q72 72 72 197q0 168 -164 168h-33l-22 -137h108l-23 -138h-107zM234 0h-183l45 283h-80l23 143h79l42 264h179q164 0 250 -73.5t86 -215.5q0 -178 -109 -285q-116 -116 -332 -116z" />
    <glyph glyph-name="Hbar.flat" horiz-adv-x="721" 
d="M281 418h213l15 95h-213zM261 278l-43 -278h-170l80 509h-80l16 103h81l12 78h167l-12 -78h212l12 78h167l-12 -78h80l-16 -103h-81l-80 -509h-169l44 278h-208z" />
    <glyph glyph-name="Lslash.flat" horiz-adv-x="506" 
d="M439 0h-388l36 226l-78 -39l22 144l78 38l51 321h170l-37 -229l133 67l-23 -145l-133 -65l-27 -171h218z" />
    <glyph glyph-name="Aogonek.flat" horiz-adv-x="668" 
d="M372 514l-108 -238h141zM552 -184q-45 -19 -95 -19q-45 0 -68 20t-23 52q0 54 77 131l-21 143h-216l-66 -143h-166l347 693h173l125 -693h-82l-14 -17q-41 -52 -41 -73q0 -25 33 -25q15 0 49 6z" />
    <glyph glyph-name="Eogonek.flat" 
d="M419 -184q-45 -19 -95 -19q-45 0 -68 20t-23 52q0 54 77 131h-288l109 690h410l-21 -138h-243l-20 -127h193l-22 -137h-193l-24 -150h251l-22 -138h-36l-14 -17q-41 -52 -41 -73q0 -25 33 -25q15 0 49 6z" />
    <glyph glyph-name="Aring.flat" horiz-adv-x="668" 
d="M410 683q25 0 39 15t14 41q0 25 -14 40t-39 15q-24 0 -38.5 -15t-14.5 -40t14.5 -40.5t38.5 -15.5zM372 514l-108 -238h141zM443 0l-21 143h-216l-66 -143h-166l331 663q-29 31 -29 76q0 48 35 80t99 32q65 0 99.5 -32t34.5 -80q0 -57 -43 -88l118 -651h-176z" />
    <glyph glyph-name="Aringacute.flat" horiz-adv-x="664" 
d="M630 990l-156 -121h-94l81 151zM410 683q25 0 39 15t14 41q0 25 -14 40t-39 15q-24 0 -38.5 -15t-14.5 -40t14.5 -40.5t38.5 -15.5zM372 514l-108 -238h141zM443 0l-21 143h-216l-66 -143h-166l331 663q-29 31 -29 76q0 48 35 80t99 32q65 0 99.5 -32t34.5 -80
q0 -57 -43 -88l118 -651h-176z" />
    <glyph glyph-name="Ldot.flat" horiz-adv-x="481" 
d="M413 0h-388l109 690h170l-86 -543h218zM461 301h-127l21 131h126z" />
    <glyph glyph-name="Aacute.flat" horiz-adv-x="668" 
d="M610 873l-156 -121h-94l81 151zM372 514l-108 -238h141zM443 0l-21 143h-216l-66 -143h-166l347 693h173l125 -693h-176z" />
    <glyph glyph-name="Agrave.flat" horiz-adv-x="668" 
d="M466 752h-93l-128 121l183 30zM372 514l-108 -238h141zM443 0l-21 143h-216l-66 -143h-166l347 693h173l125 -693h-176z" />
    <glyph glyph-name="Acircumflex.flat" horiz-adv-x="668" 
d="M572 749h-92l-58 58l-79 -58h-89l117 147h127zM372 514l-108 -238h141zM443 0l-21 143h-216l-66 -143h-166l347 693h173l125 -693h-176z" />
    <glyph glyph-name="Abreve.flat" horiz-adv-x="668" 
d="M580 887q-34 -136 -161 -136q-65 0 -98 35.5t-32 100.5l79 14q9 -57 59 -57q47 0 76 57zM372 514l-108 -238h141zM443 0l-21 143h-216l-66 -143h-166l347 693h173l125 -693h-176z" />
    <glyph glyph-name="Atilde.flat" horiz-adv-x="668" 
d="M594 891q-18 -76 -42.5 -107.5t-62.5 -31.5q-23 0 -63 20q-42 21 -57 21q-21 0 -37 -44l-68 15q18 77 43 108.5t63 31.5q28 0 63 -20q41 -21 57 -21q11 0 19 9.5t18 35.5zM372 514l-108 -238h141zM443 0l-21 143h-216l-66 -143h-166l347 693h173l125 -693h-176z" />
    <glyph glyph-name="Amacron.flat" horiz-adv-x="668" 
d="M567 762h-301l17 105h301zM372 514l-108 -238h141zM443 0l-21 143h-216l-66 -143h-166l347 693h173l125 -693h-176z" />
    <glyph glyph-name="Adieresis.flat" horiz-adv-x="668" 
d="M382 753h-120l20 131h122zM566 753h-121l21 131h121zM372 514l-108 -238h141zM443 0l-21 143h-216l-66 -143h-166l347 693h173l125 -693h-176z" />
    <glyph glyph-name="Eacute.flat" 
d="M540 863l-156 -121h-94l81 151zM541 690l-21 -138h-243l-20 -127h193l-22 -137h-193l-24 -150h251l-22 -138h-418l109 690h410z" />
    <glyph glyph-name="Egrave.flat" 
d="M395 742h-93l-128 121l183 30zM541 690l-21 -138h-243l-20 -127h193l-22 -137h-193l-24 -150h251l-22 -138h-418l109 690h410z" />
    <glyph glyph-name="Ecircumflex.flat" 
d="M503 742h-92l-58 58l-79 -58h-89l117 147h127zM541 690l-21 -138h-243l-20 -127h193l-22 -137h-193l-24 -150h251l-22 -138h-418l109 690h410z" />
    <glyph glyph-name="Ecaron.flat" 
d="M207 889h92l57 -58l80 58h89l-117 -147h-128zM541 690l-21 -138h-243l-20 -127h193l-22 -137h-193l-24 -150h251l-22 -138h-418l109 690h410z" />
    <glyph glyph-name="Ebreve.flat" 
d="M510 877q-34 -136 -161 -136q-65 0 -98 35.5t-32 100.5l79 14q9 -57 59 -57q47 0 76 57zM541 690l-21 -138h-243l-20 -127h193l-22 -137h-193l-24 -150h251l-22 -138h-418l109 690h410z" />
    <glyph glyph-name="Emacron.flat" 
d="M497 752h-301l17 105h301zM541 690l-21 -138h-243l-20 -127h193l-22 -137h-193l-24 -150h251l-22 -138h-418l109 690h410z" />
    <glyph glyph-name="Edieresis.flat" 
d="M312 743h-120l20 131h122zM496 743h-121l21 131h121zM541 690l-21 -138h-243l-20 -127h193l-22 -137h-193l-24 -150h251l-22 -138h-418l109 690h410z" />
    <glyph glyph-name="Edotaccent.flat" 
d="M407 743h-125l21 131h125zM541 690l-21 -138h-243l-20 -127h193l-22 -137h-193l-24 -150h251l-22 -138h-418l109 690h410z" />
    <glyph glyph-name="Gbreve.flat" horiz-adv-x="652" 
d="M599 887q-34 -136 -161 -136q-65 0 -98 35.5t-32 100.5l79 14q9 -57 59 -57q48 0 76 57zM627 396l-57 -344q-108 -65 -238 -65q-132 0 -209.5 78t-77.5 213q0 183 107.5 304t269.5 121q114 0 210 -51l-45 -144q-78 54 -161 54q-93 0 -150.5 -78.5t-57.5 -197.5
q0 -82 36.5 -123t98.5 -41q46 0 87 18l19 130h-117l20 126h265z" />
    <glyph glyph-name="Gdotaccent.flat" horiz-adv-x="652" 
d="M496 753h-125l21 131h125zM627 396l-57 -344q-108 -65 -238 -65q-132 0 -209.5 78t-77.5 213q0 183 107.5 304t269.5 121q114 0 210 -51l-45 -144q-78 54 -161 54q-93 0 -150.5 -78.5t-57.5 -197.5q0 -82 36.5 -123t98.5 -41q46 0 87 18l19 130h-117l20 126h265z" />
    <glyph glyph-name="Gcommaaccent.flat" horiz-adv-x="652" 
d="M627 396l-57 -344q-108 -65 -238 -65q-132 0 -209.5 78t-77.5 213q0 183 107.5 304t269.5 121q114 0 210 -51l-45 -144q-78 54 -161 54q-93 0 -150.5 -78.5t-57.5 -197.5q0 -82 36.5 -123t98.5 -41q46 0 87 18l19 130h-117l20 126h265zM218 -82l126 23q31 -34 31 -71
q0 -78 -110 -146l-91 19q70 67 70 114q0 30 -26 61z" />
    <glyph glyph-name="Kcommaaccent.flat" horiz-adv-x="621" 
d="M677 690l-272 -333l187 -357h-193l-158 320l-49 -320h-170l109 690h170l-48 -295l229 295h195zM188 -64l126 23q31 -34 31 -71q0 -78 -110 -146l-91 19q70 67 70 114q0 30 -26 61z" />
    <glyph glyph-name="Lacute.flat" horiz-adv-x="478" 
d="M433 861l-156 -121h-94l81 151zM410 0h-388l109 690h170l-86 -543h218z" />
    <glyph glyph-name="Lcaron.flat" horiz-adv-x="478" 
d="M465 692q6 -16 6 -35q0 -98 -93 -175l-69 15q43 65 43 122q0 30 -8 57zM410 0h-388l109 690h170l-86 -543h218z" />
    <glyph glyph-name="Lcommaaccent.flat" horiz-adv-x="478" 
d="M410 0h-388l109 690h170l-86 -543h218zM121 -73l126 23q31 -34 31 -71q0 -78 -110 -146l-91 19q70 67 70 114q0 30 -26 61z" />
    <glyph glyph-name="Racute.flat" horiz-adv-x="594" 
d="M558 863l-156 -121h-94l81 151zM417 481q0 85 -103 85h-38l-31 -206h36q65 0 100.5 31.5t35.5 89.5zM581 495q0 -81 -39.5 -135.5t-108.5 -80.5l125 -279h-188l-102 241h-41l-38 -241h-167l109 690h198q121 0 186.5 -49t65.5 -146z" />
    <glyph glyph-name="Rcaron.flat" horiz-adv-x="594" 
d="M224 889h92l57 -58l80 58h89l-117 -147h-128zM417 481q0 85 -103 85h-38l-31 -206h36q65 0 100.5 31.5t35.5 89.5zM581 495q0 -81 -39.5 -135.5t-108.5 -80.5l125 -279h-188l-102 241h-41l-38 -241h-167l109 690h198q121 0 186.5 -49t65.5 -146z" />
    <glyph glyph-name="Rcommaaccent.flat" horiz-adv-x="594" 
d="M417 481q0 85 -103 85h-38l-31 -206h36q65 0 100.5 31.5t35.5 89.5zM581 495q0 -81 -39.5 -135.5t-108.5 -80.5l125 -279h-188l-102 241h-41l-38 -241h-167l109 690h198q121 0 186.5 -49t65.5 -146zM174 -64l126 23q31 -34 31 -71q0 -78 -110 -146l-91 19q70 67 70 114
q0 30 -26 61z" />
    <glyph glyph-name="Tcaron.flat" horiz-adv-x="585" 
d="M234 889h92l57 -58l80 58h89l-117 -147h-128zM614 548h-189l-86 -548h-170l87 548h-190l23 142h549z" />
    <glyph glyph-name="Tcommaaccent.flat" horiz-adv-x="585" 
d="M614 548h-189l-86 -548h-170l87 548h-190l23 142h549zM160 -73l126 23q31 -34 31 -71q0 -78 -110 -146l-91 19q70 67 70 114q0 30 -26 61z" />
    <glyph glyph-name="Wacute.flat" horiz-adv-x="973" 
d="M774 863l-156 -121h-94l81 151zM1027 690l-297 -690h-160l-57 434l-197 -434h-154l-78 690h190l28 -425l186 425h165l51 -425l161 425h162z" />
    <glyph glyph-name="Wgrave.flat" horiz-adv-x="973" 
d="M629 742h-93l-128 121l183 30zM1027 690l-297 -690h-160l-57 434l-197 -434h-154l-78 690h190l28 -425l186 425h165l51 -425l161 425h162z" />
    <glyph glyph-name="Wcircumflex.flat" horiz-adv-x="973" 
d="M737 742h-92l-58 58l-79 -58h-89l117 147h127zM1027 690l-297 -690h-160l-57 434l-197 -434h-154l-78 690h190l28 -425l186 425h165l51 -425l161 425h162z" />
    <glyph glyph-name="Wdieresis.flat" horiz-adv-x="973" 
d="M546 743h-120l20 131h122zM730 743h-121l21 131h121zM1027 690l-297 -690h-160l-57 434l-197 -434h-154l-78 690h190l28 -425l186 425h165l51 -425l161 425h162z" />
    <glyph glyph-name="Wacute.alt_flat" horiz-adv-x="982" 
d="M758 863l-156 -121h-94l81 151zM559 -1l-57 311l-150 -311h-158l-117 691h182l65 -468l141 289l-32 179h177l63 -459l194 459h174l-324 -691h-158z" />
    <glyph glyph-name="Wgrave.alt_flat" horiz-adv-x="982" 
d="M614 742h-93l-128 121l183 30zM559 -1l-57 311l-150 -311h-158l-117 691h182l65 -468l141 289l-32 179h177l63 -459l194 459h174l-324 -691h-158z" />
    <glyph glyph-name="Wcircumflex.alt_flat" horiz-adv-x="982" 
d="M721 742h-92l-58 58l-79 -58h-89l117 147h127zM559 -1l-57 311l-150 -311h-158l-117 691h182l65 -468l141 289l-32 179h177l63 -459l194 459h174l-324 -691h-158z" />
    <glyph glyph-name="Wdieresis.alt_flat" horiz-adv-x="982" 
d="M530 743h-120l20 131h122zM714 743h-121l21 131h121zM559 -1l-57 311l-150 -311h-158l-117 691h182l65 -468l141 289l-32 179h177l63 -459l194 459h174l-324 -691h-158z" />
    <glyph glyph-name="Yacute.flat" horiz-adv-x="634" 
d="M589 860l-156 -121h-94l81 151zM707 690l-306 -437l-40 -253h-171l40 250l-167 440h187l95 -275l178 275h184z" />
    <glyph glyph-name="Ygrave.flat" horiz-adv-x="634" 
d="M444 739h-93l-128 121l183 30zM707 690l-306 -437l-40 -253h-171l40 250l-167 440h187l95 -275l178 275h184z" />
    <glyph glyph-name="Ycircumflex.flat" horiz-adv-x="634" 
d="M552 739h-92l-58 58l-79 -58h-89l117 147h127zM707 690l-306 -437l-40 -253h-171l40 250l-167 440h187l95 -275l178 275h184z" />
    <glyph glyph-name="Ydieresis.flat" horiz-adv-x="634" 
d="M361 740h-120l20 131h122zM545 740h-121l21 131h121zM707 690l-306 -437l-40 -253h-171l40 250l-167 440h187l95 -275l178 275h184z" />
    <glyph glyph-name="Zacute.flat" horiz-adv-x="576" 
d="M565 863l-156 -121h-94l81 151zM609 690l-19 -123l-366 -432h297l-22 -135h-505l20 123l365 432h-273l21 135h482z" />
    <glyph glyph-name="Zcaron.flat" horiz-adv-x="576" 
d="M232 889h92l57 -58l80 58h89l-117 -147h-128zM609 690l-19 -123l-366 -432h297l-22 -135h-505l20 123l365 432h-273l21 135h482z" />
    <glyph glyph-name="Zdotaccent.flat" horiz-adv-x="576" 
d="M432 743h-125l21 131h125zM609 690l-19 -123l-366 -432h297l-22 -135h-505l20 123l365 432h-273l21 135h482z" />
    <glyph glyph-name="AEacute.flat" horiz-adv-x="867" 
d="M785 863l-156 -121h-94l81 151zM432 276l46 297l-183 -297h137zM388 0l23 143h-195l-90 -143h-167l445 690h492l-21 -138h-232l-20 -127h182l-22 -137h-182l-24 -150h240l-22 -138h-407z" />
    <glyph glyph-name="dcroat.flat" horiz-adv-x="519" 
d="M338 373q-16 7 -40 7q-53 0 -89.5 -49.5t-36.5 -137.5q0 -73 51 -73q34 0 82 48zM300 73q-76 -83 -143 -83q-61 0 -97 46.5t-36 129.5q0 153 79.5 240.5t192.5 87.5q29 0 61 -8l9 63h-103l15 93h102l9 57l151 23l-13 -80h66l-15 -93h-66l-68 -427v-122h-138z" />
    <glyph glyph-name="hbar.flat" horiz-adv-x="520" 
d="M210 307l-49 -307h-147l88 549h-65l16 93h64l9 57l150 23l-13 -80h111l-15 -93h-111l-23 -140q47 45 84 68t82 23q48 0 74 -29.5t26 -79.5q0 -18 -4 -50l-55 -341h-147l48 303q4 18 4 34q0 14 -8.5 23t-22.5 9q-31 0 -96 -62z" />
    <glyph glyph-name="lslash.flat" horiz-adv-x="331" 
d="M198 0h-147l38 238l-80 -39l23 144l80 38l50 318l150 23l-42 -263l80 39l-23 -144l-79 -38z" />
    <glyph glyph-name="kcommaaccent.flat" horiz-adv-x="491" 
d="M159 0h-147l111 696l151 26l-70 -428l150 196h164l-185 -232l125 -258h-159l-106 229zM120 -73l126 23q31 -34 31 -71q0 -78 -110 -146l-91 19q70 67 70 114q0 30 -26 61z" />
    <glyph glyph-name="tcaron.flat" horiz-adv-x="358" 
d="M459 741q6 -16 6 -35q0 -98 -93 -175l-69 15q43 64 43 122q0 30 -8 57zM342 369h-101l-28 -176q-3 -18 -3 -34q0 -42 44 -42q16 0 43 5v-120q-44 -11 -97 -11q-141 0 -141 122q0 29 5 61l31 195h-61l19 121h61l22 149l151 23l-27 -172h101z" />
    <glyph glyph-name="tcommaaccent.flat" horiz-adv-x="358" 
d="M342 369h-101l-28 -176q-3 -18 -3 -34q0 -42 44 -42q16 0 43 5v-120q-44 -11 -97 -11q-141 0 -141 122q0 29 5 61l31 195h-61l19 121h61l22 149l151 23l-27 -172h101zM71 -76l126 23q31 -34 31 -71q0 -78 -110 -146l-91 19q70 67 70 114q0 30 -26 61z" />
    <glyph glyph-name="wacute.flat" horiz-adv-x="707" 
d="M602 668l-156 -121h-94l81 151zM731 490l-210 -490h-139l-25 296l-117 -296h-136l-56 490h150l16 -295l114 295h135l21 -295l108 295h139z" />
    <glyph glyph-name="wgrave.flat" horiz-adv-x="707" 
d="M457 547h-93l-128 121l183 30zM731 490l-210 -490h-139l-25 296l-117 -296h-136l-56 490h150l16 -295l114 295h135l21 -295l108 295h139z" />
    <glyph glyph-name="wcircumflex.flat" horiz-adv-x="707" 
d="M565 547h-92l-58 58l-79 -58h-89l117 147h127zM731 490l-210 -490h-139l-25 296l-117 -296h-136l-56 490h150l16 -295l114 295h135l21 -295l108 295h139z" />
    <glyph glyph-name="wdieresis.flat" horiz-adv-x="707" 
d="M374 548h-120l20 131h122zM558 548h-121l21 131h121zM731 490l-210 -490h-139l-25 296l-117 -296h-136l-56 490h150l16 -295l114 295h135l21 -295l108 295h139z" />
    <glyph glyph-name="yacute.flat" horiz-adv-x="485" 
d="M492 668l-156 -121h-94l81 151zM513 490l-244 -504q-48 -96 -95 -132t-129 -36q-32 0 -56 6v120q30 -7 57 -7q51 0 80 46l10 19l-89 488h156l38 -302l129 302h143z" />
    <glyph glyph-name="ygrave.flat" horiz-adv-x="485" 
d="M347 547h-93l-128 121l183 30zM513 490l-244 -504q-48 -96 -95 -132t-129 -36q-32 0 -56 6v120q30 -7 57 -7q51 0 80 46l10 19l-89 488h156l38 -302l129 302h143z" />
    <glyph glyph-name="ycircumflex.flat" horiz-adv-x="485" 
d="M455 547h-92l-58 58l-79 -58h-89l117 147h127zM513 490l-244 -504q-48 -96 -95 -132t-129 -36q-32 0 -56 6v120q30 -7 57 -7q51 0 80 46l10 19l-89 488h156l38 -302l129 302h143z" />
    <glyph glyph-name="ydieresis.flat" horiz-adv-x="485" 
d="M264 548h-120l20 131h122zM448 548h-121l21 131h121zM513 490l-244 -504q-48 -96 -95 -132t-129 -36q-32 0 -56 6v120q30 -7 57 -7q51 0 80 46l10 19l-89 488h156l38 -302l129 302h143z" />
    <glyph glyph-name="zacute.flat" horiz-adv-x="456" 
d="M472 668l-156 -121h-94l81 151zM456 490l-18 -114l-244 -259h206l-18 -117h-394l18 113l245 259h-185l18 118h372z" />
    <glyph glyph-name="zcaron.flat" horiz-adv-x="456" 
d="M139 694h92l57 -58l80 58h89l-117 -147h-128zM456 490l-18 -114l-244 -259h206l-18 -117h-394l18 113l245 259h-185l18 118h372z" />
    <glyph glyph-name="zdotaccent.flat" horiz-adv-x="456" 
d="M338 548h-125l21 131h125zM456 490l-18 -114l-244 -259h206l-18 -117h-394l18 113l245 259h-185l18 118h372z" />
    <glyph glyph-name="f_f.flat" horiz-adv-x="659" 
d="M715 596q-25 6 -48 6q-28 0 -44 -14t-22 -47l-9 -51h93l-19 -121h-92l-83 -532l-150 -23l87 555h-68l19 121h68l12 71q13 75 54.5 115.5t124.5 40.5q39 0 77 -6v-115zM385 596q-25 6 -48 6q-28 0 -44 -14t-22 -47l-9 -51h93l-19 -121h-92l-83 -532l-150 -23l87 555h-68
l19 121h68l12 71q13 75 54.5 115.5t124.5 40.5q39 0 77 -6v-115z" />
    </font>
</defs>
</svg>
